{
classes = (
{
code = "M Q R a j t u";
name = salt1;
}
);
copyright = "Copyright 2020 The Spartan Project Authors (https://github.com/bghryct/Spartan-MB)";
designer = "Matt Bailey, Mirko Velimirovic";
designerURL = "http://mtbailey.com";
familyName = Spartan;
customParameters = (
{
name = glyphOrder;
value = (
.notdef,
NULL,
CR,
space,
A,
Aacute,
Abreve,
Acircumflex,
Adieresis,
Agrave,
Amacron,
Aogonek,
Aring,
Atilde,
AE,
B,
C,
Cacute,
Ccaron,
Ccedilla,
Cdotaccent,
D,
Eth,
Dcaron,
Dcroat,
E,
Eacute,
Ecaron,
Ecircumflex,
Edieresis,
Edotaccent,
Egrave,
Emacron,
Eogonek,
F,
G,
Gbreve,
Gcommaaccent,
Gdotaccent,
H,
Hbar,
I,
Iacute,
Icircumflex,
Idieresis,
Idotaccent,
Igrave,
Imacron,
Iogonek,
J,
K,
Kcommaaccent,
L,
Lacute,
Lcaron,
Lcommaaccent,
Lslash,
M,
N,
Nacute,
Ncaron,
Ncommaaccent,
Eng,
Ntilde,
O,
Oacute,
Ocircumflex,
Odieresis,
Ograve,
Ohungarumlaut,
Omacron,
Oslash,
Otilde,
OE,
P,
Thorn,
Q,
R,
Racute,
Rcaron,
Rcommaaccent,
S,
Sacute,
Scaron,
Scedilla,
Scommaaccent,
Germandbls,
T,
Tbar,
Tcaron,
Tcedilla,
Tcommaaccent,
U,
Uacute,
Ucircumflex,
Udieresis,
Ugrave,
Uhungarumlaut,
Umacron,
Uogonek,
Uring,
V,
W,
Wacute,
Wcircumflex,
Wdieresis,
Wgrave,
X,
Y,
Yacute,
Ycircumflex,
Ydieresis,
Ygrave,
Z,
Zacute,
Zcaron,
Zdotaccent,
M.alt,
a,
aacute,
abreve,
acircumflex,
adieresis,
agrave,
amacron,
aogonek,
aring,
atilde,
ae,
b,
c,
cacute,
ccaron,
ccedilla,
cdotaccent,
d,
eth,
dcaron,
dcroat,
e,
eacute,
ecaron,
ecircumflex,
edieresis,
edotaccent,
egrave,
emacron,
eogonek,
f,
g,
gbreve,
gcommaaccent,
gdotaccent,
h,
hbar,
i,
idotless,
iacute,
icircumflex,
idieresis,
idotaccent,
igrave,
imacron,
iogonek,
j,
k,
kcommaaccent,
l,
lacute,
lcaron,
lcommaaccent,
lslash,
m,
n,
nacute,
ncaron,
ncommaaccent,
eng,
ntilde,
o,
oacute,
ocircumflex,
odieresis,
ograve,
ohungarumlaut,
omacron,
oslash,
otilde,
oe,
p,
thorn,
q,
r,
racute,
rcaron,
rcommaaccent,
s,
sacute,
scaron,
scedilla,
scommaaccent,
germandbls,
t,
tbar,
tcaron,
tcedilla,
tcommaaccent,
u,
uacute,
ucircumflex,
udieresis,

glyphs = (
{
glyphname = A;
layers = (
{
anchors = (
{
name = bottom;
position = "{835, 0}";
},
{
name = ogonek;
position = "{1711, 0}";
},
{
name = top;
position = "{835, 1650}";
}
);
hints = (
{
horizontal = 1;
place = "{1650, -20}";
target = down;
type = TopGhost;
},
{
horizontal = 1;
place = "{274, 386}";
type = Stem;
},
{
horizontal = 1;
place = "{0, 21}";
target = up;
type = BottomGhost;
}
);
layerId = "6b09ce2e-afcf-4aca-aac2-7dbc8e1b58f4";
paths = (
{
closed = 1;
nodes = (
"433 0 LINE",
"532 274 LINE",
"1138 274 LINE",
"1237 0 LINE",
"1711 0 LINE",
"1039 1650 LINE",
"631 1650 LINE",
"-41 0 LINE"
);
},
{
closed = 1;
nodes = (
"835 1052 LINE",
"988 660 LINE",
"682 660 LINE"
);
}
);
width = 1670;
},
{
anchors = (
{
name = bottom;
position = "{833, 0}";
},
{
name = ogonek;
position = "{1675, 0}";
},
{
name = top;
position = "{833, 1650}";
}
);
hints = (
{
horizontal = 1;
place = "{1650, -20}";
target = down;
type = TopGhost;
},
{
horizontal = 1;
place = "{330, 330}";
type = Stem;
},
{
horizontal = 1;
place = "{0, 21}";
target = up;
type = BottomGhost;
}
);
layerId = "165b9972-5639-46b0-8551-47f8199b5798";
paths = (
{
closed = 1;
nodes = (
"397 0 LINE",
"519 330 LINE",
"1147 330 LINE",
"1269 0 LINE",
"1675 0 LINE",
"1007 1650 LINE",
"658 1650 LINE",
"-9 0 LINE"
);
},
{
closed = 1;
nodes = (
"833 1140 LINE",
"1019 660 LINE",
"647 660 LINE"
);
}
);
width = 1667;
},
{
anchors = (
{
name = bottom;
position = "{832, 0}";
},
{
name = ogonek;
position = "{1637, 0}";
},
{
name = top;
position = "{832, 1650}";
}
);
hints = (
{
horizontal = 1;
place = "{1650, -20}";
target = down;
type = TopGhost;
},
{
horizontal = 1;
place = "{389, 271}";
type = Stem;
},
{
horizontal = 1;
place = "{0, 21}";
target = up;
type = BottomGhost;
}
);
layerId = "88dbb4cf-2a0e-4722-85a3-f94739c801e9";
paths = (
{
closed = 1;
nodes = (
"359 0 LINE",
"505 389 LINE",
"1159 389 LINE",
"1305 0 LINE",
"1637 0 LINE",
"974 1650 LINE",
"690 1650 LINE",
"27 0 LINE"
);
},
{
closed = 1;
nodes = (
"832 1234 LINE",
"1053 660 LINE",
"611 660 LINE"
);
}
);
width = 1664;
},
{
anchors = (
{
name = bottom;
position = "{830, 0}";
},
{
name = ogonek;
position = "{1603, 0}";
},
{
name = top;
position = "{830, 1650}";
}
);
hints = (
{
horizontal = 1;
place = "{1650, -20}";
target = down;
type = TopGhost;
},
{
horizontal = 1;
place = "{440, 220}";
type = Stem;
},
{
horizontal = 1;
place = "{0, 21}";
target = up;
type = BottomGhost;
}
);
layerId = "e8d1f046-7750-4839-b2c6-57e680534bd5";
paths = (
{
closed = 1;
nodes = (
"327 0 LINE",
"493 440 LINE",
"1167 440 LINE",
"1333 0 LINE",
"1603 0 LINE",
"945 1650 LINE",
"715 1650 LINE",
"57 0 LINE"
);
},
{
closed = 1;
nodes = (
"830 1314 LINE",
"1081 660 LINE",
"579 660 LINE"
);
}
);
width = 1661;
},
{
anchors = (
{
name = bottom;
position = "{829, 0}";
},
{
name = ogonek;
position = "{1578, 0}";
},
{
name = top;
position = "{829, 1650}";
}
);
hints = (
{
horizontal = 1;
place = "{1650, -20}";
target = down;
type = TopGhost;
},
{
horizontal = 1;
place = "{480, 180}";
type = Stem;
},
{
horizontal = 1;
place = "{0, 21}";
target = up;
type = BottomGhost;
}
);
layerId = "3e2ba9c9-8461-4c64-8143-df88a38fbe08";
paths = (
{
closed = 1;
nodes = (
"301 0 LINE",
"484 480 LINE",
"1175 480 LINE",
"1358 0 LINE",
"1578 0 LINE",
"924 1650 LINE",
"735 1650 LINE",
"81 0 LINE"
);
},
{
closed = 1;
nodes = (
"829 1378 LINE",
"1105 660 LINE",
"554 660 LINE"
);
}
);
width = 1659;
},
{
anchors = (
{
name = bottom;
position = "{828, 0}";
},
{
name = ogonek;
position = "{1545, 0}";
},
{
name = top;
position = "{828, 1650}";
}
);
hints = (
{
horizontal = 1;
place = "{1650, -20}";
target = down;
type = TopGhost;
},
{
horizontal = 1;
place = "{531, 129}";
type = Stem;
},
{
horizontal = 1;
place = "{0, 21}";
target = up;
type = BottomGhost;
}
);
layerId = "e702a883-bc41-413c-af83-57815b8e3e41";
paths = (
{
closed = 1;
nodes = (
"268 0 LINE",
"472 531 LINE",
"1184 531 LINE",
"1388 0 LINE",
"1545 0 LINE",
"896 1650 LINE",
"760 1650 LINE",
"111 0 LINE"
);
},
{
closed = 1;
nodes = (
"828 1458 LINE",
"1134 660 LINE",
"522 660 LINE"
);
}
);
width = 1656;
},
{
anchors = (
{
name = bottom;
position = "{827, 0}";
},
{
name = ogonek;
position = "{1522, 0}";
},
{
name = top;
position = "{827, 1650}";
}
);
hints = (
{
horizontal = 1;
place = "{1650, -20}";
target = down;
type = TopGhost;
},
{
horizontal = 1;
place = "{566, 94}";
type = Stem;
},
{
horizontal = 1;
place = "{0, 21}";
target = up;
type = BottomGhost;
}
);
layerId = "89499a33-ee22-4529-a629-c9afa075ab0d";
paths = (
{
closed = 1;
nodes = (
"246 0 LINE",
"464 566 LINE",
"1190 566 LINE",
"1408 0 LINE",
"1522 0 LINE",
"876 1650 LINE",
"778 1650 LINE",
"132 0 LINE"
);
},
{
closed = 1;
nodes = (
"827 1513 LINE",
"1154 660 LINE",
"500 660 LINE"
);
}
);
width = 1654;
},
{
anchors = (
{
name = bottom;
position = "{827, 0}";
},
{
name = ogonek;
position = "{1505, 0}";
},
{
name = top;
position = "{827, 1650}";
}
);
hints = (
{
horizontal = 1;
place = "{1650, -20}";
target = down;
type = TopGhost;
},
{
horizontal = 1;
place = "{592, 68}";
type = Stem;
},
{
horizontal = 1;
place = "{0, 21}";
target = up;
type = BottomGhost;
}
);
layerId = "7b9d160b-1bc8-4aa8-aa2c-85d968a9ba41";
paths = (
{
closed = 1;
nodes = (
"229 0 LINE",
"459 592 LINE",
"1195 592 LINE",
"1425 0 LINE",
"1505 0 LINE",
"862 1650 LINE",
"792 1650 LINE",
"149 0 LINE"
);
},
{
closed = 1;
nodes = (
"827 1554 LINE",
"1169 660 LINE",
"485 660 LINE"
);
}
);
width = 1653;
},
{
anchors = (
{
name = bottom;
position = "{826, 0}";
},
{
name = ogonek;
position = "{1494, 0}";
},
{
name = top;
position = "{826, 1650}";
}
);
hints = (
{
horizontal = 1;
place = "{1650, -20}";
target = down;
type = TopGhost;
},
{
horizontal = 1;
place = "{610, 50}";
type = Stem;
},
{
horizontal = 1;
place = "{0, 21}";
target = up;
type = BottomGhost;
}
);
layerId = "30428d78-2e09-4e0b-978b-a63d31127a95";
paths = (
{
closed = 1;
nodes = (
"218 0 LINE",
"454 610 LINE",
"1198 610 LINE",
"1434 0 LINE",
"1494 0 LINE",
"852 1650 LINE",
"800 1650 LINE",
"158 0 LINE"
);
},
{
closed = 1;
nodes = (
"826 1582 LINE",
"1179 660 LINE",
"473 660 LINE"
);
}
);
width = 1652;
}
);
unicode = 0041;
},
{
glyphname = AE;
leftMetricsKey = A;
rightMetricsKey = E;
layers = (
{
hints = (
{
horizontal = 1;
place = "{274, 386}";
type = Stem;
},
{
horizontal = 1;
place = "{0, 21}";
target = up;
type = BottomGhost;
},
{
horizontal = 1;
place = "{1264, 386}";
type = Stem;
},
{
horizontal = 1;
place = "{634, 386}";
type = Stem;
},
{
horizontal = 1;
place = "{0, 386}";
type = Stem;
},
{
place = "{835, 440}";
type = Stem;
}
);
layerId = "6b09ce2e-afcf-4aca-aac2-7dbc8e1b58f4";
paths = (
{
closed = 1;
nodes = (
"835 1052 LINE",
"835 660 LINE",
"682 660 LINE"
);
},
{
closed = 1;
nodes = (
"631 1650 LINE",
"-41 0 LINE",
"433 0 LINE",
"532 274 LINE",
"835 274 LINE",
"835 0 LINE",
"1811 0 LINE",
"1811 386 LINE",
"1275 386 LINE",
"1275 634 LINE",
"1787 634 LINE",
"1787 1020 LINE",
"1275 1020 LINE",
"1275 1264 LINE",
"1811 1264 LINE",
"1811 1650 LINE"
);
}
);
width = 1979;
},
{
hints = (
{
horizontal = 1;
place = "{330, 330}";
type = Stem;
},
{
horizontal = 1;
place = "{0, 21}";
target = up;
type = BottomGhost;
},
{
horizontal = 1;
place = "{1320, 330}";
type = Stem;
},
{
horizontal = 1;
place = "{662, 330}";
type = Stem;
},
{
horizontal = 1;
place = "{0, 330}";
type = Stem;
},
{
place = "{833, 376}";
type = Stem;
}
);
layerId = "165b9972-5639-46b0-8551-47f8199b5798";
paths = (
{
closed = 1;
nodes = (
"833 1140 LINE",
"833 660 LINE",
"646 660 LINE"
);
},
{
closed = 1;
nodes = (
"658 1650 LINE",
"-9 0 LINE",
"396 0 LINE",
"518 330 LINE",
"833 330 LINE",
"833 0 LINE",
"1777 0 LINE",
"1777 330 LINE",
"1209 330 LINE",
"1209 662 LINE",
"1753 662 LINE",
"1753 992 LINE",
"1209 992 LINE",
"1209 1320 LINE",
"1777 1320 LINE",
"1777 1650 LINE"
);
}
);
width = 1946;
},
{
hints = (
{
horizontal = 1;
place = "{390, 271}";
type = Stem;
},
{
horizontal = 1;
place = "{0, 21}";
target = up;
type = BottomGhost;
},
{
horizontal = 1;
place = "{1380, 271}";
type = Stem;
},
{
horizontal = 1;
place = "{692, 271}";
type = Stem;
},
{
horizontal = 1;
place = "{0, 271}";
type = Stem;
},
{
place = "{832, 308}";
type = Stem;
}
);
layerId = "88dbb4cf-2a0e-4722-85a3-f94739c801e9";
paths = (
{
closed = 1;
nodes = (
"832 1235 LINE",
"832 661 LINE",
"610 661 LINE"
);
},
{
closed = 1;
nodes = (
"689 1651 LINE",
"27 0 LINE",
"359 0 LINE",
"505 390 LINE",
"832 390 LINE",
"832 0 LINE",
"1742 0 LINE",
"1742 271 LINE",
"1140 271 LINE",
"1140 692 LINE",
"1718 692 LINE",
"1718 963 LINE",
"1140 963 LINE",
"1140 1380 LINE",
"1742 1380 LINE",
"1742 1651 LINE"
);
}
);
width = 1913;
},
{
hints = (
{
horizontal = 1;
place = "{441, 220}";
type = Stem;
},
{
horizontal = 1;
place = "{0, 21}";
target = up;
type = BottomGhost;
},
{
horizontal = 1;
place = "{1431, 220}";
type = Stem;
},
{
horizontal = 1;
place = "{717, 220}";
type = Stem;
},
{
horizontal = 1;
place = "{0, 220}";
type = Stem;
},
{
place = "{830, 250}";
type = Stem;
}
);
layerId = "e8d1f046-7750-4839-b2c6-57e680534bd5";
paths = (
{
closed = 1;
nodes = (
"830 1315 LINE",
"830 661 LINE",
"579 661 LINE"
);
},
{
closed = 1;
nodes = (
"715 1651 LINE",
"57 0 LINE",
"327 0 LINE",
"493 441 LINE",
"830 441 LINE",
"830 0 LINE",
"1711 0 LINE",
"1711 220 LINE",
"1080 220 LINE",
"1080 717 LINE",
"1687 717 LINE",
"1687 937 LINE",
"1080 937 LINE",
"1080 1431 LINE",
"1711 1431 LINE",
"1711 1651 LINE"
);
}
);
width = 1883;
},
{
hints = (
{
horizontal = 1;
place = "{481, 180}";
type = Stem;
},
{
horizontal = 1;
place = "{0, 21}";
target = up;
type = BottomGhost;
},
{
horizontal = 1;
place = "{1471, 180}";
type = Stem;
},
{
horizontal = 1;
place = "{737, 180}";
type = Stem;
},
{
horizontal = 1;
place = "{0, 180}";
type = Stem;
},
{
place = "{829, 204}";
type = Stem;
}
);
layerId = "3e2ba9c9-8461-4c64-8143-df88a38fbe08";
paths = (
{
closed = 1;
nodes = (
"829 1378 LINE",
"829 661 LINE",
"554 661 LINE"
);
},
{
closed = 1;
nodes = (
"735 1651 LINE",
"81 0 LINE",
"301 0 LINE",
"484 481 LINE",
"829 481 LINE",
"829 0 LINE",
"1687 0 LINE",
"1687 180 LINE",
"1033 180 LINE",
"1033 737 LINE",
"1663 737 LINE",
"1663 917 LINE",
"1033 917 LINE",
"1033 1471 LINE",
"1687 1471 LINE",
"1687 1651 LINE"
);
}
);
width = 1860;
},
{
hints = (
{
horizontal = 1;
place = "{532, 129}";
type = Stem;
},
{
horizontal = 1;
place = "{0, 21}";
target = up;
type = BottomGhost;
},
{
horizontal = 1;
place = "{1522, 129}";
type = Stem;
},
{
horizontal = 1;
place = "{762, 129}";
type = Stem;
},
{
horizontal = 1;
place = "{0, 129}";
type = Stem;
},
{
place = "{828, 146}";
type = Stem;
}
);
layerId = "e702a883-bc41-413c-af83-57815b8e3e41";
paths = (
{
closed = 1;
nodes = (
"828 1459 LINE",
"828 661 LINE",
"522 661 LINE"
);
},
{
closed = 1;
nodes = (
"760 1651 LINE",
"111 0 LINE",
"268 0 LINE",
"472 532 LINE",
"828 532 LINE",
"828 0 LINE",
"1657 0 LINE",
"1657 129 LINE",
"974 129 LINE",
"974 762 LINE",
"1633 762 LINE",
"1633 891 LINE",
"974 891 LINE",
"974 1522 LINE",
"1657 1522 LINE",
"1657 1651 LINE"
);
}
);
width = 1831;
},
{
hints = (
{
horizontal = 1;
place = "{567, 94}";
type = Stem;
},
{
horizontal = 1;
place = "{0, 21}";
target = up;
type = BottomGhost;
},
{
horizontal = 1;
place = "{1557, 94}";
type = Stem;
},
{
horizontal = 1;
place = "{780, 94}";
type = Stem;
},
{
horizontal = 1;
place = "{0, 94}";
type = Stem;
},
{
place = "{827, 106}";
type = Stem;
}
);
layerId = "89499a33-ee22-4529-a629-c9afa075ab0d";
paths = (
{
closed = 1;
nodes = (
"827 1514 LINE",
"827 661 LINE",
"500 661 LINE"
);
},
{
closed = 1;
nodes = (
"778 1651 LINE",
"132 0 LINE",
"246 0 LINE",
"464 567 LINE",
"827 567 LINE",
"827 0 LINE",
"1636 0 LINE",
"1636 94 LINE",
"933 94 LINE",
"933 780 LINE",
"1612 780 LINE",
"1612 874 LINE",
"933 874 LINE",
"933 1557 LINE",
"1636 1557 LINE",
"1636 1651 LINE"
);
}
);
width = 1811;
},
{
hints = (
{
horizontal = 1;
place = "{593, 68}";
type = Stem;
},
{
horizontal = 1;
place = "{0, 21}";
target = up;
type = BottomGhost;
},
{
horizontal = 1;
place = "{1583, 68}";
type = Stem;
},
{
horizontal = 1;
place = "{793, 68}";
type = Stem;
},
{
horizontal = 1;
place = "{0, 68}";
type = Stem;
},
{
place = "{827, 76}";
type = Stem;
}
);
layerId = "7b9d160b-1bc8-4aa8-aa2c-85d968a9ba41";
paths = (
{
closed = 1;
nodes = (
"827 1555 LINE",
"827 661 LINE",
"485 661 LINE"
);
},
{
closed = 1;
nodes = (
"792 1651 LINE",
"149 0 LINE",
"230 0 LINE",
"459 593 LINE",
"827 593 LINE",
"827 0 LINE",
"1621 0 LINE",
"1621 68 LINE",
"903 68 LINE",
"903 793 LINE",
"1597 793 LINE",
"1597 861 LINE",
"903 861 LINE",
"903 1583 LINE",
"1621 1583 LINE",
"1621 1651 LINE"
);
}
);
width = 1797;
},
{
hints = (
{
horizontal = 1;
place = "{610, 50}";
type = Stem;
},
{
horizontal = 1;
place = "{0, 21}";
target = up;
type = BottomGhost;
},
{
horizontal = 1;
place = "{1600, 50}";
type = Stem;
},
{
horizontal = 1;
place = "{802, 50}";
type = Stem;
},
{
horizontal = 1;
place = "{0, 50}";
type = Stem;
},
{
place = "{826, 56}";
type = Stem;
}
);
layerId = "30428d78-2e09-4e0b-978b-a63d31127a95";
paths = (
{
closed = 1;
nodes = (
"826 1582 LINE",
"826 660 LINE",
"473 660 LINE"
);
},
{
closed = 1;
nodes = (
"800 1650 LINE",
"158 0 LINE",
"218 0 LINE",
"454 610 LINE",
"826 610 LINE",
"826 0 LINE",
"1610 0 LINE",
"1610 50 LINE",
"882 50 LINE",
"882 802 LINE",
"1586 802 LINE",
"1586 852 LINE",
"882 852 LINE",
"882 1600 LINE",
"1610 1600 LINE",
"1610 1650 LINE"
);
}
);
width = 1787;
}
);
unicode = 00C6;
},
{
glyphname = B;
layers = (
{
anchors = (
{
name = bottom;
position = "{671, 0}";
},
{
name = top;
position = "{671, 1650}";
}
);
hints = (
{
horizontal = 1;
place = "{0, 338}";
type = Stem;
},
{
horizontal = 1;
place = "{654, 378}";
type = Stem;
},
{
horizontal = 1;
place = "{1312, 338}";
type = Stem;
},
{
place = "{98, 440}";
type = Stem;
},
{
place = "{738, 108}";
type = Stem;
},
{
place = "{1164, 146}";
type = Stem;
}
);
layerId = "6b09ce2e-afcf-4aca-aac2-7dbc8e1b58f4";
paths = (
{
closed = 1;
nodes = (
"764 0 LINE SMOOTH",
"1096 0 OFFCURVE",
"1310 180 OFFCURVE",
"1310 478 CURVE SMOOTH",
"1310 701 OFFCURVE",
"1191 841 OFFCURVE",
"968 880 CURVE",
"1098 953 OFFCURVE",
"1164 1073 OFFCURVE",
"1164 1236 CURVE SMOOTH",
"1164 1516 OFFCURVE",
"971 1650 OFFCURVE",
"656 1650 CURVE SMOOTH",
"98 1650 LINE",
"98 0 LINE"
);
},
{
closed = 1;
nodes = (
"538 1312 LINE",
"548 1312 LINE SMOOTH",
"679 1312 OFFCURVE",
"738 1269 OFFCURVE",
"738 1176 CURVE SMOOTH",
"738 1082 OFFCURVE",
"672 1032 OFFCURVE",
"548 1032 CURVE SMOOTH",
"538 1032 LINE"
);
},
{
closed = 1;
nodes = (
"538 654 LINE",
"606 654 LINE SMOOTH",
"764 654 OFFCURVE",
"846 598 OFFCURVE",
"846 492 CURVE SMOOTH",
"846 386 OFFCURVE",
"771 338 OFFCURVE",
"606 338 CURVE SMOOTH",
"538 338 LINE"
);
}
);
width = 1342;
},
{
anchors = (
{
name = bottom;
position = "{665, 0}";
},
{
name = top;
position = "{665, 1650}";
}
);
hints = (
{
horizontal = 1;
place = "{0, 290}";
type = Stem;
},
{
horizontal = 1;
place = "{681, 324}";
type = Stem;
},
{
horizontal = 1;
place = "{1360, 290}";
type = Stem;
},
{
place = "{120, 376}";
type = Stem;
},
{
place = "{776, 114}";
type = Stem;
},
{
place = "{1140, 146}";
type = Stem;
}
);
layerId = "165b9972-5639-46b0-8551-47f8199b5798";
paths = (
{
closed = 1;
nodes = (
"746 0 LINE SMOOTH",
"1077 0 OFFCURVE",
"1286 176 OFFCURVE",
"1286 470 CURVE SMOOTH",
"1286 696 OFFCURVE",
"1163 838 OFFCURVE",
"934 876 CURVE",
"1070 947 OFFCURVE",
"1140 1069 OFFCURVE",
"1140 1236 CURVE SMOOTH",
"1140 1513 OFFCURVE",
"948 1650 OFFCURVE",
"632 1650 CURVE SMOOTH",
"120 1650 LINE",
"120 0 LINE"
);
},
{
closed = 1;
nodes = (
"496 1360 LINE",
"542 1360 LINE SMOOTH",
"700 1360 OFFCURVE",
"776 1302 OFFCURVE",
"776 1185 CURVE SMOOTH",
"776 1069 OFFCURVE",
"694 1005 OFFCURVE",
"542 1005 CURVE SMOOTH",
"496 1005 LINE"
);
},
{
closed = 1;
nodes = (
"496 681 LINE",
"614 681 LINE SMOOTH",
"794 681 OFFCURVE",
"890 610 OFFCURVE",
"890 481 CURVE SMOOTH",
"890 353 OFFCURVE",
"800 290 OFFCURVE",
"614 290 CURVE SMOOTH",
"496 290 LINE"
);
}
);
width = 1332;
},
{
anchors = (
{
name = bottom;
position = "{660, 0}";
},
{
name = top;
position = "{660, 1650}";
}
);
hints = (
{
horizontal = 1;
place = "{0, 239}";
type = Stem;
},
{
horizontal = 1;
place = "{709, 267}";
type = Stem;
},
{
horizontal = 1;
place = "{1411, 239}";
type = Stem;
},
{
place = "{144, 308}";
type = Stem;
},
{
place = "{817, 121}";
type = Stem;
},
{
place = "{1114, 147}";
type = Stem;
}
);
layerId = "88dbb4cf-2a0e-4722-85a3-f94739c801e9";
paths = (
{
closed = 1;
nodes = (
"728 0 LINE SMOOTH",
"1056 0 OFFCURVE",
"1261 172 OFFCURVE",
"1261 461 CURVE SMOOTH",
"1261 690 OFFCURVE",
"1132 835 OFFCURVE",
"899 871 CURVE",
"1041 941 OFFCURVE",
"1114 1065 OFFCURVE",
"1114 1235 CURVE SMOOTH",
"1114 1510 OFFCURVE",
"924 1650 OFFCURVE",
"607 1650 CURVE SMOOTH",
"144 1650 LINE",
"144 0 LINE"
);
},
{
closed = 1;
nodes = (
"452 1411 LINE",
"536 1411 LINE SMOOTH",
"722 1411 OFFCURVE",
"817 1338 OFFCURVE",
"817 1195 CURVE SMOOTH",
"817 1054 OFFCURVE",
"718 976 OFFCURVE",
"536 976 CURVE SMOOTH",
"452 976 LINE"
);
},
{
closed = 1;
nodes = (
"452 709 LINE",
"624 709 LINE SMOOTH",
"826 709 OFFCURVE",
"938 623 OFFCURVE",
"938 470 CURVE SMOOTH",
"938 318 OFFCURVE",
"831 239 OFFCURVE",
"624 239 CURVE SMOOTH",
"452 239 LINE"
);
}
);
width = 1321;
},
{
anchors = (
{
name = bottom;
position = "{656, 0}";
},
{
name = top;
position = "{656, 1650}";
}
);
hints = (
{
horizontal = 1;
place = "{0, 196}";
type = Stem;
},
{
horizontal = 1;
place = "{733, 218}";
type = Stem;
},
{
horizontal = 1;
place = "{1455, 195}";
type = Stem;
},
{
place = "{164, 250}";
type = Stem;
},
{
place = "{852, 127}";
type = Stem;
},
{
place = "{1092, 147}";
type = Stem;
}
);
layerId = "e8d1f046-7750-4839-b2c6-57e680534bd5";
paths = (
{
closed = 1;
nodes = (
"712 0 LINE SMOOTH",
"1038 0 OFFCURVE",
"1239 169 OFFCURVE",
"1239 454 CURVE SMOOTH",
"1239 685 OFFCURVE",
"1106 832 OFFCURVE",
"869 867 CURVE",
"1016 936 OFFCURVE",
"1092 1061 OFFCURVE",
"1092 1234 CURVE SMOOTH",
"1092 1507 OFFCURVE",
"904 1650 OFFCURVE",
"585 1650 CURVE SMOOTH",
"164 1650 LINE",
"164 0 LINE"
);
},
{
closed = 1;
nodes = (
"414 1455 LINE",
"530 1455 LINE SMOOTH",
"741 1455 OFFCURVE",
"852 1368 OFFCURVE",
"852 1204 CURVE SMOOTH",
"852 1041 OFFCURVE",
"738 951 OFFCURVE",
"530 951 CURVE SMOOTH",
"414 951 LINE"
);
},
{
closed = 1;
nodes = (
"414 733 LINE",
"632 733 LINE SMOOTH",
"853 733 OFFCURVE",
"979 634 OFFCURVE",
"979 461 CURVE SMOOTH",
"979 289 OFFCURVE",
"858 196 OFFCURVE",
"632 196 CURVE SMOOTH",
"414 196 LINE"
);
}
);
width = 1312;
},
{
anchors = (
{
name = bottom;
position = "{653, 0}";
},
{
name = top;
position = "{653, 1650}";
}
);
hints = (
{
horizontal = 1;
place = "{0, 162}";
type = Stem;
},
{
horizontal = 1;
place = "{752, 179}";
type = Stem;
},
{
horizontal = 1;
place = "{1490, 160}";
type = Stem;
},
{
place = "{180, 204}";
type = Stem;
},
{
place = "{879, 132}";
type = Stem;
},
{
place = "{1075, 147}";
type = Stem;
}
);
layerId = "3e2ba9c9-8461-4c64-8143-df88a38fbe08";
paths = (
{
closed = 1;
nodes = (
"699 0 LINE SMOOTH",
"1024 0 OFFCURVE",
"1222 167 OFFCURVE",
"1222 448 CURVE SMOOTH",
"1222 681 OFFCURVE",
"1086 829 OFFCURVE",
"845 864 CURVE",
"996 931 OFFCURVE",
"1075 1058 OFFCURVE",
"1075 1234 CURVE SMOOTH",
"1075 1505 OFFCURVE",
"887 1650 OFFCURVE",
"567 1650 CURVE SMOOTH",
"180 1650 LINE",
"180 0 LINE"
);
},
{
closed = 1;
nodes = (
"384 1490 LINE",
"526 1490 LINE SMOOTH",
"755 1490 OFFCURVE",
"879 1392 OFFCURVE",
"879 1211 CURVE SMOOTH",
"879 1031 OFFCURVE",
"753 931 OFFCURVE",
"526 931 CURVE SMOOTH",
"384 931 LINE"
);
},
{
closed = 1;
nodes = (
"384 752 LINE",
"638 752 LINE SMOOTH",
"874 752 OFFCURVE",
"1011 643 OFFCURVE",
"1011 454 CURVE SMOOTH",
"1011 266 OFFCURVE",
"878 162 OFFCURVE",
"638 162 CURVE SMOOTH",
"384 162 LINE"
);
}
);
width = 1305;
},
{
anchors = (
{
name = bottom;
position = "{647, 0}";
},
{
name = top;
position = "{647, 1650}";
}
);
hints = (
{
horizontal = 1;
place = "{0, 119}";
type = Stem;
},
{
horizontal = 1;
place = "{776, 130}";
type = Stem;
},
{
horizontal = 1;
place = "{1534, 117}";
type = Stem;
},
{
place = "{200, 146}";
type = Stem;
},
{
place = "{914, 137}";
type = Stem;
},
{
place = "{1053, 146}";
type = Stem;
}
);
layerId = "e702a883-bc41-413c-af83-57815b8e3e41";
paths = (
{
closed = 1;
nodes = (
"683 0 LINE SMOOTH",
"1006 0 OFFCURVE",
"1199 164 OFFCURVE",
"1199 441 CURVE SMOOTH",
"1199 675 OFFCURVE",
"1060 826 OFFCURVE",
"815 860 CURVE",
"971 926 OFFCURVE",
"1053 1054 OFFCURVE",
"1053 1233 CURVE SMOOTH",
"1053 1503 OFFCURVE",
"867 1651 OFFCURVE",
"545 1651 CURVE SMOOTH",
"200 1651 LINE",
"200 0 LINE"
);
},
{
closed = 1;
nodes = (
"346 1534 LINE",
"521 1534 LINE SMOOTH",
"774 1534 OFFCURVE",
"914 1422 OFFCURVE",
"914 1219 CURVE SMOOTH",
"914 1018 OFFCURVE",
"773 906 OFFCURVE",
"521 906 CURVE SMOOTH",
"346 906 LINE"
);
},
{
closed = 1;
nodes = (
"346 776 LINE",
"646 776 LINE SMOOTH",
"902 776 OFFCURVE",
"1051 654 OFFCURVE",
"1051 445 CURVE SMOOTH",
"1051 237 OFFCURVE",
"905 119 OFFCURVE",
"646 119 CURVE SMOOTH",
"346 119 LINE"
);
}
);
width = 1296;
},
{
anchors = (
{
name = bottom;
position = "{644, 0}";
},
{
name = top;
position = "{644, 1650}";
}
);
hints = (
{
horizontal = 1;
place = "{0, 89}";
type = Stem;
},
{
horizontal = 1;
place = "{793, 96}";
type = Stem;
},
{
horizontal = 1;
place = "{1564, 87}";
type = Stem;
},
{
place = "{214, 106}";
type = Stem;
},
{
place = "{938, 100}";
type = Stem;
},
{
place = "{1079, 105}";
type = Stem;
}
);
layerId = "89499a33-ee22-4529-a629-c9afa075ab0d";
paths = (
{
closed = 1;
nodes = (
"672 0 LINE SMOOTH",
"993 0 OFFCURVE",
"1184 161 OFFCURVE",
"1184 436 CURVE SMOOTH",
"1184 672 OFFCURVE",
"1042 824 OFFCURVE",
"794 858 CURVE",
"954 922 OFFCURVE",
"1038 1052 OFFCURVE",
"1038 1233 CURVE SMOOTH",
"1038 1501 OFFCURVE",
"853 1651 OFFCURVE",
"530 1651 CURVE SMOOTH",
"214 1651 LINE",
"214 0 LINE"
);
},
{
closed = 1;
nodes = (
"320 1564 LINE",
"517 1564 LINE SMOOTH",
"787 1564 OFFCURVE",
"938 1443 OFFCURVE",
"938 1225 CURVE SMOOTH",
"938 1010 OFFCURVE",
"787 889 OFFCURVE",
"517 889 CURVE SMOOTH",
"320 889 LINE"
);
},
{
closed = 1;
nodes = (
"320 793 LINE",
"651 793 LINE SMOOTH",
"921 793 OFFCURVE",
"1079 662 OFFCURVE",
"1079 438 CURVE SMOOTH",
"1079 216 OFFCURVE",
"923 89 OFFCURVE",
"651 89 CURVE SMOOTH",
"320 89 LINE"
);
}
);
width = 1290;
},
{
anchors = (
{
name = bottom;
position = "{642, 0}";
},
{
name = top;
position = "{642, 1650}";
}
);
hints = (
{
horizontal = 1;
place = "{0, 67}";
type = Stem;
},
{
horizontal = 1;
place = "{806, 70}";
type = Stem;
},
{
horizontal = 1;
place = "{1586, 64}";
type = Stem;
},
{
place = "{225, 76}";
type = Stem;
},
{
place = "{956, 71}";
type = Stem;
},
{
place = "{1100, 73}";
type = Stem;
}
);
layerId = "7b9d160b-1bc8-4aa8-aa2c-85d968a9ba41";
paths = (
{
closed = 1;
nodes = (
"664 0 LINE SMOOTH",
"984 0 OFFCURVE",
"1173 160 OFFCURVE",
"1173 433 CURVE SMOOTH",
"1173 670 OFFCURVE",
"1029 823 OFFCURVE",
"778 856 CURVE",
"941 919 OFFCURVE",
"1027 1050 OFFCURVE",
"1027 1232 CURVE SMOOTH",
"1027 1499 OFFCURVE",
"842 1650 OFFCURVE",
"519 1650 CURVE SMOOTH",
"225 1650 LINE",
"225 0 LINE"
);
},
{
closed = 1;
nodes = (
"301 1586 LINE",
"514 1586 LINE SMOOTH",
"797 1586 OFFCURVE",
"956 1458 OFFCURVE",
"956 1229 CURVE SMOOTH",
"956 1003 OFFCURVE",
"798 876 OFFCURVE",
"514 876 CURVE SMOOTH",
"301 876 LINE"
);
},
{
closed = 1;
nodes = (
"301 806 LINE",
"655 806 LINE SMOOTH",
"935 806 OFFCURVE",
"1100 668 OFFCURVE",
"1100 433 CURVE SMOOTH",
"1100 201 OFFCURVE",
"937 67 OFFCURVE",
"655 67 CURVE SMOOTH",
"301 67 LINE"
);
}
);
width = 1285;
},
{
anchors = (
{
name = bottom;
position = "{641, 0}";
},
{
name = top;
position = "{641, 1650}";
}
);
hints = (
{
horizontal = 1;
place = "{0, 52}";
type = Stem;
},
{
horizontal = 1;
place = "{814, 53}";
type = Stem;
},
{
horizontal = 1;
place = "{1601, 49}";
type = Stem;
},
{
place = "{232, 56}";
type = Stem;
},
{
place = "{968, 52}";
type = Stem;
},
{
place = "{1114, 52}";
type = Stem;
}
);
layerId = "30428d78-2e09-4e0b-978b-a63d31127a95";
paths = (
{
closed = 1;
nodes = (
"658 0 LINE SMOOTH",
"978 0 OFFCURVE",
"1166 159 OFFCURVE",
"1166 430 CURVE SMOOTH",
"1166 668 OFFCURVE",
"1021 822 OFFCURVE",
"768 854 CURVE",
"932 917 OFFCURVE",
"1020 1049 OFFCURVE",
"1020 1232 CURVE SMOOTH",
"1020 1498 OFFCURVE",
"835 1650 OFFCURVE",
"512 1650 CURVE SMOOTH",
"232 1650 LINE",
"232 0 LINE"
);
},
{
closed = 1;
nodes = (
"288 1601 LINE",
"512 1601 LINE SMOOTH",
"803 1601 OFFCURVE",
"968 1468 OFFCURVE",
"968 1232 CURVE SMOOTH",
"968 998 OFFCURVE",
"805 867 OFFCURVE",
"512 867 CURVE SMOOTH",
"288 867 LINE"
);
},
{
closed = 1;
nodes = (
"288 814 LINE",
"658 814 LINE SMOOTH",
"944 814 OFFCURVE",
"1114 671 OFFCURVE",
"1114 430 CURVE SMOOTH",
"1114 191 OFFCURVE",
"946 52 OFFCURVE",
"658 52 CURVE SMOOTH",
"288 52 LINE"
);
}
);
width = 1282;
}
);
unicode = 0042;
},
{
glyphname = C;
layers = (
{
anchors = (
{
name = bottom;
position = "{831, 0}";
},
{
name = top;
position = "{831, 1650}";
},
{
name = cedilla;
position = "{871, 0}";
}
);
hints = (
{
horizontal = 1;
place = "{-32, 432}";
type = Stem;
},
{
horizontal = 1;
place = "{1248, 432}";
type = Stem;
},
{
place = "{56, 476}";
type = Stem;
}
);
layerId = "6b09ce2e-afcf-4aca-aac2-7dbc8e1b58f4";
paths = (
{
closed = 1;
nodes = (
"56 351 OFFCURVE",
"435 -32 OFFCURVE",
"951 -32 CURVE SMOOTH",
"1151 -32 OFFCURVE",
"1347 30 OFFCURVE",
"1472 114 CURVE",
"1262 474 LINE",
"1190 428 OFFCURVE",
"1084 400 OFFCURVE",
"980 400 CURVE SMOOTH",
"694 400 OFFCURVE",
"532 581 OFFCURVE",
"532 825 CURVE SMOOTH",
"532 1067 OFFCURVE",
"694 1248 OFFCURVE",
"980 1248 CURVE SMOOTH",
"1084 1248 OFFCURVE",
"1190 1220 OFFCURVE",
"1262 1174 CURVE",
"1472 1534 LINE",
"1347 1618 OFFCURVE",
"1151 1680 OFFCURVE",
"951 1680 CURVE SMOOTH",
"435 1680 OFFCURVE",
"56 1297 OFFCURVE",
"56 824 CURVE SMOOTH"
);
}
);
width = 1476;
},
{
anchors = (
{
name = bottom;
position = "{850, 0}";
},
{
name = cedilla;
position = "{885, 0}";
},
{
name = left;
position = "{1041, 0}";
},
{
name = top;
position = "{850, 1650}";
}
);
hints = (
{
horizontal = 1;
place = "{-32, 369}";
type = Stem;
},
{
horizontal = 1;
place = "{1311, 369}";
type = Stem;
},
{
place = "{72, 407}";
type = Stem;
}
);
layerId = "165b9972-5639-46b0-8551-47f8199b5798";
paths = (
{
closed = 1;
nodes = (
"72 349 OFFCURVE",
"447 -32 OFFCURVE",
"960 -32 CURVE SMOOTH",
"1161 -32 OFFCURVE",
"1355 30 OFFCURVE",
"1483 119 CURVE",
"1302 427 LINE",
"1221 370 OFFCURVE",
"1103 337 OFFCURVE",
"984 337 CURVE SMOOTH",
"668 337 OFFCURVE",
"479 547 OFFCURVE",
"479 825 CURVE SMOOTH",
"479 1101 OFFCURVE",
"668 1311 OFFCURVE",
"984 1311 CURVE SMOOTH",
"1103 1311 OFFCURVE",
"1221 1278 OFFCURVE",
"1302 1221 CURVE",
"1483 1529 LINE",
"1355 1618 OFFCURVE",
"1161 1680 OFFCURVE",
"960 1680 CURVE SMOOTH",
"447 1680 OFFCURVE",
"72 1299 OFFCURVE",
"72 824 CURVE SMOOTH"
);
}
);
width = 1505;
},
{
anchors = (
{
name = bottom;
position = "{871, 0}";
},
{
name = cedilla;
position = "{899, 0}";
},
{
name = left;
position = "{1041, 0}";
},
{
name = top;
position = "{871, 1650}";
}
);
hints = (
{
horizontal = 1;
place = "{-32, 303}";
type = Stem;
},
{
horizontal = 1;
place = "{1377, 303}";
type = Stem;
},
{
place = "{88, 334}";
type = Stem;
}
);
layerId = "88dbb4cf-2a0e-4722-85a3-f94739c801e9";
paths = (
{
closed = 1;
nodes = (
"88 346 OFFCURVE",
"460 -32 OFFCURVE",
"969 -32 CURVE SMOOTH",
"1172 -32 OFFCURVE",
"1363 31 OFFCURVE",
"1494 125 CURVE",
"1345 377 LINE",
"1253 309 OFFCURVE",
"1123 271 OFFCURVE",
"989 271 CURVE SMOOTH",
"641 271 OFFCURVE",
"422 511 OFFCURVE",
"422 824 CURVE SMOOTH",
"422 1137 OFFCURVE",
"641 1377 OFFCURVE",
"989 1377 CURVE SMOOTH",
"1123 1377 OFFCURVE",
"1253 1339 OFFCURVE",
"1345 1271 CURVE",
"1494 1523 LINE",
"1363 1617 OFFCURVE",
"1172 1680 OFFCURVE",
"969 1680 CURVE SMOOTH",
"460 1680 OFFCURVE",
"88 1302 OFFCURVE",
"88 824 CURVE SMOOTH"
);
}
);
width = 1536;
},
{
anchors = (
{
name = bottom;
position = "{888, 0}";
},
{
name = cedilla;
position = "{912, 0}";
},
{
name = left;
position = "{1041, 0}";
},
{
name = top;
position = "{888, 1650}";
}
);
hints = (
{
horizontal = 1;
place = "{-32, 246}";
type = Stem;
},
{
horizontal = 1;
place = "{1434, 246}";
type = Stem;
},
{
place = "{102, 271}";
type = Stem;
}
);
layerId = "e8d1f046-7750-4839-b2c6-57e680534bd5";
paths = (
{
closed = 1;
nodes = (
"102 344 OFFCURVE",
"471 -32 OFFCURVE",
"977 -32 CURVE SMOOTH",
"1181 -32 OFFCURVE",
"1370 31 OFFCURVE",
"1504 130 CURVE",
"1381 334 LINE",
"1280 257 OFFCURVE",
"1140 214 OFFCURVE",
"993 214 CURVE SMOOTH",
"617 214 OFFCURVE",
"373 480 OFFCURVE",
"373 824 CURVE SMOOTH",
"373 1168 OFFCURVE",
"617 1434 OFFCURVE",
"993 1434 CURVE SMOOTH",
"1140 1434 OFFCURVE",
"1280 1391 OFFCURVE",
"1381 1314 CURVE",
"1504 1518 LINE",
"1370 1617 OFFCURVE",
"1181 1680 OFFCURVE",
"977 1680 CURVE SMOOTH",
"471 1680 OFFCURVE",
"102 1304 OFFCURVE",
"102 824 CURVE SMOOTH"
);
}
);
width = 1563;
},
{
anchors = (
{
name = bottom;
position = "{902, 0}";
},
{
name = top;
position = "{902, 1650}";
},
{
name = cedilla;
position = "{922, 0}";
}
);
hints = (
{
horizontal = 1;
place = "{-32, 201}";
type = Stem;
},
{
horizontal = 1;
place = "{1479, 201}";
type = Stem;
},
{
place = "{113, 222}";
type = Stem;
}
);
layerId = "3e2ba9c9-8461-4c64-8143-df88a38fbe08";
paths = (
{
closed = 1;
nodes = (
"113 342 OFFCURVE",
"480 -32 OFFCURVE",
"983 -32 CURVE SMOOTH",
"1188 -32 OFFCURVE",
"1376 31 OFFCURVE",
"1512 134 CURVE",
"1410 300 LINE",
"1302 215 OFFCURVE",
"1154 169 OFFCURVE",
"996 169 CURVE SMOOTH",
"598 169 OFFCURVE",
"335 455 OFFCURVE",
"335 824 CURVE SMOOTH",
"335 1193 OFFCURVE",
"598 1479 OFFCURVE",
"996 1479 CURVE SMOOTH",
"1154 1479 OFFCURVE",
"1302 1433 OFFCURVE",
"1410 1348 CURVE",
"1512 1514 LINE",
"1376 1617 OFFCURVE",
"1188 1680 OFFCURVE",
"983 1680 CURVE SMOOTH",
"480 1680 OFFCURVE",
"113 1306 OFFCURVE",
"113 824 CURVE SMOOTH"
);
}
);
width = 1584;
},
{
anchors = (
{
name = bottom;
position = "{925, 0}";
},
{
name = cedilla;
position = "{934, 0}";
},
{
name = left;
position = "{1041, 0}";
},
{
name = top;
position = "{925, 1650}";
}
);
hints = (
{
horizontal = 1;
place = "{-32, 144}";
type = Stem;
},
{
horizontal = 1;
place = "{1536, 144}";
type = Stem;
},
{
place = "{127, 159}";
type = Stem;
}
);
layerId = "e702a883-bc41-413c-af83-57815b8e3e41";
paths = (
{
closed = 1;
nodes = (
"127 340 OFFCURVE",
"491 -32 OFFCURVE",
"990 -32 CURVE SMOOTH",
"1197 -32 OFFCURVE",
"1383 31 OFFCURVE",
"1521 139 CURVE",
"1446 257 LINE",
"1329 163 OFFCURVE",
"1171 112 OFFCURVE",
"1000 112 CURVE SMOOTH",
"574 112 OFFCURVE",
"286 424 OFFCURVE",
"286 824 CURVE SMOOTH",
"286 1224 OFFCURVE",
"574 1536 OFFCURVE",
"1000 1536 CURVE SMOOTH",
"1171 1536 OFFCURVE",
"1329 1485 OFFCURVE",
"1446 1391 CURVE",
"1521 1509 LINE",
"1383 1617 OFFCURVE",
"1197 1680 OFFCURVE",
"990 1680 CURVE SMOOTH",
"491 1680 OFFCURVE",
"127 1308 OFFCURVE",
"127 824 CURVE SMOOTH"
);
}
);
width = 1611;
},
{
anchors = (
{
name = bottom;
position = "{941, 0}";
},
{
name = cedilla;
position = "{943, 0}";
},
{
name = left;
position = "{1041, 0}";
},
{
name = top;
position = "{941, 1650}";
}
);
hints = (
{
horizontal = 1;
place = "{-32, 105}";
type = Stem;
},
{
horizontal = 1;
place = "{1575, 105}";
type = Stem;
},
{
place = "{136, 116}";
type = Stem;
}
);
layerId = "89499a33-ee22-4529-a629-c9afa075ab0d";
paths = (
{
closed = 1;
nodes = (
"136 339 OFFCURVE",
"498 -32 OFFCURVE",
"995 -32 CURVE SMOOTH",
"1203 -32 OFFCURVE",
"1387 31 OFFCURVE",
"1528 142 CURVE",
"1471 227 LINE",
"1347 127 OFFCURVE",
"1182 73 OFFCURVE",
"1002 73 CURVE SMOOTH",
"557 73 OFFCURVE",
"252 403 OFFCURVE",
"252 824 CURVE SMOOTH",
"252 1245 OFFCURVE",
"557 1575 OFFCURVE",
"1002 1575 CURVE SMOOTH",
"1182 1575 OFFCURVE",
"1347 1521 OFFCURVE",
"1471 1421 CURVE",
"1528 1506 LINE",
"1387 1617 OFFCURVE",
"1203 1680 OFFCURVE",
"995 1680 CURVE SMOOTH",
"498 1680 OFFCURVE",
"136 1309 OFFCURVE",
"136 824 CURVE SMOOTH"
);
}
);
width = 1629;
},
{
anchors = (
{
name = bottom;
position = "{953, 0}";
},
{
name = cedilla;
position = "{950, 0}";
},
{
name = left;
position = "{1041, 0}";
},
{
name = top;
position = "{953, 1650}";
}
);
hints = (
{
horizontal = 1;
place = "{-32, 76}";
type = Stem;
},
{
horizontal = 1;
place = "{1604, 76}";
type = Stem;
},
{
place = "{143, 84}";
type = Stem;
}
);
layerId = "7b9d160b-1bc8-4aa8-aa2c-85d968a9ba41";
paths = (
{
closed = 1;
nodes = (
"143 338 OFFCURVE",
"503 -32 OFFCURVE",
"999 -32 CURVE SMOOTH",
"1207 -32 OFFCURVE",
"1390 31 OFFCURVE",
"1533 144 CURVE",
"1490 205 LINE",
"1361 100 OFFCURVE",
"1190 44 OFFCURVE",
"1004 44 CURVE SMOOTH",
"544 44 OFFCURVE",
"227 387 OFFCURVE",
"227 824 CURVE SMOOTH",
"227 1261 OFFCURVE",
"544 1604 OFFCURVE",
"1004 1604 CURVE SMOOTH",
"1190 1604 OFFCURVE",
"1361 1548 OFFCURVE",
"1490 1443 CURVE",
"1533 1504 LINE",
"1390 1617 OFFCURVE",
"1207 1680 OFFCURVE",
"999 1680 CURVE SMOOTH",
"503 1680 OFFCURVE",
"143 1310 OFFCURVE",
"143 824 CURVE SMOOTH"
);
}
);
width = 1643;
},
{
anchors = (
{
name = bottom;
position = "{961, 0}";
},
{
name = top;
position = "{961, 1650}";
},
{
name = left;
position = "{1041, 0}";
}
);
hints = (
{
horizontal = 1;
place = "{-32, 56}";
type = Stem;
},
{
horizontal = 1;
place = "{1624, 56}";
type = Stem;
},
{
place = "{148, 62}";
type = Stem;
}
);
layerId = "30428d78-2e09-4e0b-978b-a63d31127a95";
paths = (
{
closed = 1;
nodes = (
"148 337 OFFCURVE",
"507 -32 OFFCURVE",
"1001 -32 CURVE SMOOTH",
"1210 -32 OFFCURVE",
"1392 31 OFFCURVE",
"1536 146 CURVE",
"1502 190 LINE",
"1370 82 OFFCURVE",
"1196 24 OFFCURVE",
"1005 24 CURVE SMOOTH",
"536 24 OFFCURVE",
"210 376 OFFCURVE",
"210 824 CURVE SMOOTH",
"210 1272 OFFCURVE",
"536 1624 OFFCURVE",
"1005 1624 CURVE SMOOTH",
"1196 1624 OFFCURVE",
"1370 1566 OFFCURVE",
"1502 1458 CURVE",
"1536 1502 LINE",
"1392 1617 OFFCURVE",
"1210 1680 OFFCURVE",
"1001 1680 CURVE SMOOTH",
"507 1680 OFFCURVE",
"148 1311 OFFCURVE",
"148 824 CURVE SMOOTH"
);
}
);
width = 1652;
}
);
unicode = 0043;
},
{
glyphname = D;
layers = (
{
anchors = (
{
name = bottom;
position = "{797, 0}";
},
{
name = center;
position = "{797, 825}";
},
{
name = top;
position = "{797, 1650}";
}
);
hints = (
{
horizontal = 1;
place = "{0, 394}";
type = Stem;
},
{
horizontal = 1;
place = "{1256, 394}";
type = Stem;
},
{
place = "{1060, 476}";
type = Stem;
},
{
place = "{196, 440}";
type = Stem;
}
);
layerId = "6b09ce2e-afcf-4aca-aac2-7dbc8e1b58f4";
paths = (
{
closed = 1;
nodes = (
"704 0 LINE SMOOTH",
"1174 0 OFFCURVE",
"1536 360 OFFCURVE",
"1536 825 CURVE SMOOTH",
"1536 1290 OFFCURVE",
"1172 1650 OFFCURVE",
"704 1650 CURVE SMOOTH",
"196 1650 LINE",
"196 0 LINE"
);
},
{
closed = 1;
nodes = (
"636 1256 LINE",
"652 1256 LINE SMOOTH",
"891 1256 OFFCURVE",
"1060 1078 OFFCURVE",
"1060 825 CURVE SMOOTH",
"1060 572 OFFCURVE",
"891 394 OFFCURVE",
"652 394 CURVE SMOOTH",
"636 394 LINE"
);
}
);
width = 1594;
},
{
anchors = (
{
name = bottom;
position = "{801, 0}";
},
{
name = center;
position = "{801, 825}";
},
{
name = top;
position = "{801, 1650}";
}
);
hints = (
{
horizontal = 1;
place = "{0, 337}";
type = Stem;
},
{
horizontal = 1;
place = "{1313, 337}";
type = Stem;
},
{
place = "{1116, 406}";
type = Stem;
},
{
place = "{212, 376}";
type = Stem;
}
);
layerId = "165b9972-5639-46b0-8551-47f8199b5798";
paths = (
{
closed = 1;
nodes = (
"690 0 LINE SMOOTH",
"1160 0 OFFCURVE",
"1522 360 OFFCURVE",
"1522 825 CURVE SMOOTH",
"1522 1290 OFFCURVE",
"1158 1650 OFFCURVE",
"690 1650 CURVE SMOOTH",
"212 1650 LINE",
"212 0 LINE"
);
},
{
closed = 1;
nodes = (
"588 1313 LINE",
"647 1313 LINE SMOOTH",
"918 1313 OFFCURVE",
"1116 1108 OFFCURVE",
"1116 825 CURVE SMOOTH",
"1116 542 OFFCURVE",
"918 337 OFFCURVE",
"647 337 CURVE SMOOTH",
"588 337 LINE"
);
}
);
width = 1604;
},
{
anchors = (
{
name = bottom;
position = "{807, 0}";
},
{
name = center;
position = "{807, 825}";
},
{
name = top;
position = "{807, 1650}";
}
);
hints = (
{
horizontal = 1;
place = "{0, 276}";
type = Stem;
},
{
horizontal = 1;
place = "{1374, 276}";
type = Stem;
},
{
place = "{1176, 331}";
type = Stem;
},
{
place = "{229, 308}";
type = Stem;
}
);
layerId = "88dbb4cf-2a0e-4722-85a3-f94739c801e9";
paths = (
{
closed = 1;
nodes = (
"675 0 LINE SMOOTH",
"1145 0 OFFCURVE",
"1507 360 OFFCURVE",
"1507 825 CURVE SMOOTH",
"1507 1290 OFFCURVE",
"1143 1650 OFFCURVE",
"675 1650 CURVE SMOOTH",
"229 1650 LINE",
"229 0 LINE"
);
},
{
closed = 1;
nodes = (
"537 1374 LINE",
"641 1374 LINE SMOOTH",
"947 1374 OFFCURVE",
"1176 1140 OFFCURVE",
"1176 825 CURVE SMOOTH",
"1176 510 OFFCURVE",
"947 276 OFFCURVE",
"641 276 CURVE SMOOTH",
"537 276 LINE"
);
}
);
width = 1614;
},
{
anchors = (
{
name = bottom;
position = "{811, 0}";
},
{
name = center;
position = "{811, 825}";
},
{
name = top;
position = "{811, 1650}";
}
);
hints = (
{
horizontal = 1;
place = "{0, 224}";
type = Stem;
},
{
horizontal = 1;
place = "{1426, 224}";
type = Stem;
},
{
place = "{1227, 267}";
type = Stem;
},
{
place = "{244, 250}";
type = Stem;
}
);
layerId = "e8d1f046-7750-4839-b2c6-57e680534bd5";
paths = (
{
closed = 1;
nodes = (
"662 0 LINE SMOOTH",
"1132 0 OFFCURVE",
"1494 360 OFFCURVE",
"1494 825 CURVE SMOOTH",
"1494 1290 OFFCURVE",
"1131 1650 OFFCURVE",
"662 1650 CURVE SMOOTH",
"244 1650 LINE",
"244 0 LINE"
);
},
{
closed = 1;
nodes = (
"494 1426 LINE",
"636 1426 LINE SMOOTH",
"972 1426 OFFCURVE",
"1227 1168 OFFCURVE",
"1227 825 CURVE SMOOTH",
"1227 482 OFFCURVE",
"972 224 OFFCURVE",
"636 224 CURVE SMOOTH",
"494 224 LINE"
);
}
);
width = 1623;
},
{
anchors = (
{
name = bottom;
position = "{815, 0}";
},
{
name = center;
position = "{815, 825}";
},
{
name = top;
position = "{815, 1650}";
}
);
hints = (
{
horizontal = 1;
place = "{0, 183}";
type = Stem;
},
{
horizontal = 1;
place = "{1467, 183}";
type = Stem;
},
{
place = "{1267, 217}";
type = Stem;
},
{
place = "{256, 204}";
type = Stem;
}
);
layerId = "3e2ba9c9-8461-4c64-8143-df88a38fbe08";
paths = (
{
closed = 1;
nodes = (
"652 0 LINE SMOOTH",
"1122 0 OFFCURVE",
"1484 360 OFFCURVE",
"1484 825 CURVE SMOOTH",
"1484 1290 OFFCURVE",
"1121 1650 OFFCURVE",
"652 1650 CURVE SMOOTH",
"256 1650 LINE",
"256 0 LINE"
);
},
{
closed = 1;
nodes = (
"460 1467 LINE",
"632 1467 LINE SMOOTH",
"992 1467 OFFCURVE",
"1267 1190 OFFCURVE",
"1267 825 CURVE SMOOTH",
"1267 460 OFFCURVE",
"992 183 OFFCURVE",
"632 183 CURVE SMOOTH",
"460 183 LINE"
);
}
);
width = 1630;
},
{
anchors = (
{
name = bottom;
position = "{819, 0}";
},
{
name = center;
position = "{819, 825}";
},
{
name = top;
position = "{819, 1650}";
}
);
hints = (
{
horizontal = 1;
place = "{0, 131}";
type = Stem;
},
{
horizontal = 1;
place = "{1519, 131}";
type = Stem;
},
{
place = "{1318, 153}";
type = Stem;
},
{
place = "{271, 146}";
type = Stem;
}
);
layerId = "e702a883-bc41-413c-af83-57815b8e3e41";
paths = (
{
closed = 1;
nodes = (
"639 0 LINE SMOOTH",
"1109 0 OFFCURVE",
"1471 359 OFFCURVE",
"1471 825 CURVE SMOOTH",
"1471 1291 OFFCURVE",
"1109 1650 OFFCURVE",
"639 1650 CURVE SMOOTH",
"271 1650 LINE",
"271 0 LINE"
);
},
{
closed = 1;
nodes = (
"417 1519 LINE",
"627 1519 LINE SMOOTH",
"1017 1519 OFFCURVE",
"1318 1218 OFFCURVE",
"1318 825 CURVE SMOOTH",
"1318 432 OFFCURVE",
"1017 131 OFFCURVE",
"627 131 CURVE SMOOTH",
"417 131 LINE"
);
}
);
width = 1639;
},
{
anchors = (
{
name = bottom;
position = "{823, 0}";
},
{
name = center;
position = "{823, 825}";
},
{
name = top;
position = "{823, 1650}";
}
);
hints = (
{
horizontal = 1;
place = "{0, 95}";
type = Stem;
},
{
horizontal = 1;
place = "{1555, 95}";
type = Stem;
},
{
place = "{1353, 109}";
type = Stem;
},
{
place = "{281, 106}";
type = Stem;
}
);
layerId = "89499a33-ee22-4529-a629-c9afa075ab0d";
paths = (
{
closed = 1;
nodes = (
"630 0 LINE SMOOTH",
"1100 0 OFFCURVE",
"1462 359 OFFCURVE",
"1462 825 CURVE SMOOTH",
"1462 1291 OFFCURVE",
"1100 1650 OFFCURVE",
"630 1650 CURVE SMOOTH",
"281 1650 LINE",
"281 0 LINE"
);
},
{
closed = 1;
nodes = (
"387 1555 LINE",
"624 1555 LINE SMOOTH",
"1034 1555 OFFCURVE",
"1353 1237 OFFCURVE",
"1353 825 CURVE SMOOTH",
"1353 413 OFFCURVE",
"1034 95 OFFCURVE",
"624 95 CURVE SMOOTH",
"387 95 LINE"
);
}
);
width = 1645;
},
{
anchors = (
{
name = bottom;
position = "{825, 0}";
},
{
name = center;
position = "{825, 825}";
},
{
name = top;
position = "{825, 1650}";
}
);
hints = (
{
horizontal = 1;
place = "{0, 68}";
type = Stem;
},
{
horizontal = 1;
place = "{1582, 68}";
type = Stem;
},
{
place = "{1379, 76}";
type = Stem;
},
{
place = "{288, 76}";
type = Stem;
}
);
layerId = "7b9d160b-1bc8-4aa8-aa2c-85d968a9ba41";
paths = (
{
closed = 1;
nodes = (
"623 0 LINE SMOOTH",
"1093 0 OFFCURVE",
"1455 359 OFFCURVE",
"1455 825 CURVE SMOOTH",
"1455 1291 OFFCURVE",
"1093 1650 OFFCURVE",
"623 1650 CURVE SMOOTH",
"288 1650 LINE",
"288 0 LINE"
);
},
{
closed = 1;
nodes = (
"364 1582 LINE",
"621 1582 LINE SMOOTH",
"1046 1582 OFFCURVE",
"1379 1251 OFFCURVE",
"1379 825 CURVE SMOOTH",
"1379 399 OFFCURVE",
"1046 68 OFFCURVE",
"621 68 CURVE SMOOTH",
"364 68 LINE"
);
}
);
width = 1650;
},
{
anchors = (
{
name = bottom;
position = "{827, 0}";
},
{
name = center;
position = "{827, 825}";
},
{
name = top;
position = "{827, 1650}";
}
);
hints = (
{
horizontal = 1;
place = "{0, 50}";
type = Stem;
},
{
horizontal = 1;
place = "{1600, 50}";
type = Stem;
},
{
place = "{1397, 54}";
type = Stem;
},
{
place = "{293, 56}";
type = Stem;
}
);
layerId = "30428d78-2e09-4e0b-978b-a63d31127a95";
paths = (
{
closed = 1;
nodes = (
"619 0 LINE SMOOTH",
"1089 0 OFFCURVE",
"1451 359 OFFCURVE",
"1451 825 CURVE SMOOTH",
"1451 1291 OFFCURVE",
"1089 1650 OFFCURVE",
"619 1650 CURVE SMOOTH",
"293 1650 LINE",
"293 0 LINE"
);
},
{
closed = 1;
nodes = (
"349 1600 LINE",
"619 1600 LINE SMOOTH",
"1055 1600 OFFCURVE",
"1397 1260 OFFCURVE",
"1397 825 CURVE SMOOTH",
"1397 390 OFFCURVE",
"1055 50 OFFCURVE",
"619 50 CURVE SMOOTH",
"349 50 LINE"
);
}
);
width = 1653;
}
);
unicode = 0044;
},
{
glyphname = Eth;
layers = (
{
components = (
{
name = D;
transform = "{1, 0, 0, 1, 51, 0}";
alignment = -1;
}
);
hints = (
{
horizontal = 1;
place = "{646, 358}";
type = Stem;
}
);
layerId = "6b09ce2e-afcf-4aca-aac2-7dbc8e1b58f4";
paths = (
{
closed = 1;
nodes = (
"83 1004 LINE",
"83 646 LINE",
"841 646 LINE",
"841 1004 LINE"
);
}
);
width = 1645;
},
{
components = (
{
name = D;
transform = "{1, 0, 0, 1, 47.333, 0}";
alignment = -1;
}
);
hints = (
{
horizontal = 1;
place = "{672, 306}";
type = Stem;
}
);
layerId = "165b9972-5639-46b0-8551-47f8199b5798";
paths = (
{
closed = 1;
nodes = (
"96 978 LINE",
"96 672 LINE",
"854 672 LINE",
"854 978 LINE"
);
}
);
width = 1651;
},
{
components = (
{
name = D;
transform = "{1, 0, 0, 1, 43.438, 0}";
alignment = -1;
}
);
hints = (
{
horizontal = 1;
place = "{699, 250}";
type = Stem;
}
);
layerId = "88dbb4cf-2a0e-4722-85a3-f94739c801e9";
paths = (
{
closed = 1;
nodes = (
"109 949 LINE",
"109 699 LINE",
"867 699 LINE",
"867 949 LINE"
);
}
);
width = 1658;
},
{
components = (
{
name = D;
transform = "{1, 0, 0, 1, 40.115, 0}";
alignment = -1;
}
);
hints = (
{
horizontal = 1;
place = "{723, 203}";
type = Stem;
}
);
layerId = "e8d1f046-7750-4839-b2c6-57e680534bd5";
paths = (
{
closed = 1;
nodes = (
"120 926 LINE",
"120 723 LINE",
"878 723 LINE",
"878 926 LINE"
);
}
);
width = 1664;
},
{
components = (
{
name = D;
transform = "{1, 0, 0, 1, 37.479, 0}";
alignment = -1;
}
);
hints = (
{
horizontal = 1;
place = "{742, 166}";
type = Stem;
}
);
layerId = "3e2ba9c9-8461-4c64-8143-df88a38fbe08";
paths = (
{
closed = 1;
nodes = (
"129 908 LINE",
"129 742 LINE",
"887 742 LINE",
"887 908 LINE"
);
}
);
width = 1668;
},
{
components = (
{
name = D;
transform = "{1, 0, 0, 1, 34.156, 0}";
alignment = -1;
}
);
hints = (
{
horizontal = 1;
place = "{766, 119}";
type = Stem;
}
);
layerId = "e702a883-bc41-413c-af83-57815b8e3e41";
paths = (
{
closed = 1;
nodes = (
"140 885 LINE",
"140 766 LINE",
"898 766 LINE",
"898 885 LINE"
);
}
);
width = 1673;
},
{
components = (
{
name = D;
transform = "{1, 0, 0, 1, 31.865, 0}";
alignment = -1;
}
);
hints = (
{
horizontal = 1;
place = "{782, 86}";
type = Stem;
}
);
layerId = "89499a33-ee22-4529-a629-c9afa075ab0d";
paths = (
{
closed = 1;
nodes = (
"148 868 LINE",
"148 782 LINE",
"906 782 LINE",
"906 868 LINE"
);
}
);
width = 1677;
},
{
components = (
{
name = D;
transform = "{1, 0, 0, 1, 30.146, 0}";
alignment = -1;
}
);
hints = (
{
horizontal = 1;
place = "{794, 62}";
type = Stem;
}
);
layerId = "7b9d160b-1bc8-4aa8-aa2c-85d968a9ba41";
paths = (
{
closed = 1;
nodes = (
"154 856 LINE",
"154 794 LINE",
"912 794 LINE",
"912 856 LINE"
);
}
);
width = 1680;
},
{
components = (
{
name = D;
transform = "{1, 0, 0, 1, 29, 0}";
alignment = -1;
}
);
hints = (
{
horizontal = 1;
place = "{802, 46}";
type = Stem;
}
);
layerId = "30428d78-2e09-4e0b-978b-a63d31127a95";
paths = (
{
closed = 1;
nodes = (
"158 848 LINE",
"158 802 LINE",
"916 802 LINE",
"916 848 LINE"
);
}
);
width = 1682;
}
);
unicode = 00D0;
},
{
glyphname = E;
layers = (
{
anchors = (
{
name = bottom;
position = "{670, 0}";
},
{
name = ogonek;
position = "{1172, 0}";
},
{
name = top;
position = "{670, 1650}";
},
{
name = topleft;
position = "{196, 1650}";
}
);
hints = (
{
horizontal = 1;
place = "{1264, 386}";
type = Stem;
},
{
horizontal = 1;
place = "{634, 386}";
type = Stem;
},
{
horizontal = 1;
place = "{0, 386}";
type = Stem;
},
{
place = "{196, 440}";
type = Stem;
}
);
layerId = "6b09ce2e-afcf-4aca-aac2-7dbc8e1b58f4";
paths = (
{
closed = 1;
nodes = (
"1172 0 LINE",
"1172 386 LINE",
"636 386 LINE",
"636 634 LINE",
"1148 634 LINE",
"1148 1020 LINE",
"636 1020 LINE",
"636 1264 LINE",
"1172 1264 LINE",
"1172 1650 LINE",
"196 1650 LINE",
"196 0 LINE"
);
}
);
width = 1340;
},
{
anchors = (
{
name = bottom;
position = "{675, 0}";
},
{
name = ogonek;
position = "{1156, 0}";
},
{
name = top;
position = "{675, 1650}";
},
{
name = topleft;
position = "{196, 1650}";
}
);
hints = (
{
horizontal = 1;
place = "{1320, 330}";
type = Stem;
},
{
horizontal = 1;
place = "{662, 330}";
type = Stem;
},
{
horizontal = 1;
place = "{0, 330}";
type = Stem;
},
{
place = "{212, 376}";
type = Stem;
}
);
layerId = "165b9972-5639-46b0-8551-47f8199b5798";
paths = (
{
closed = 1;
nodes = (
"1156 0 LINE",
"1156 330 LINE",
"588 330 LINE",
"588 662 LINE",
"1132 662 LINE",
"1132 992 LINE",
"588 992 LINE",
"588 1320 LINE",
"1156 1320 LINE",
"1156 1650 LINE",
"212 1650 LINE",
"212 0 LINE"
);
}
);
width = 1325;
},
{
anchors = (
{
name = bottom;
position = "{682, 0}";
},
{
name = ogonek;
position = "{1139, 0}";
},
{
name = top;
position = "{682, 1650}";
},
{
name = topleft;
position = "{196, 1650}";
}
);
hints = (
{
horizontal = 1;
place = "{1379, 271}";
type = Stem;
},
{
horizontal = 1;
place = "{692, 271}";
type = Stem;
},
{
horizontal = 1;
place = "{0, 271}";
type = Stem;
},
{
place = "{229, 308}";
type = Stem;
}
);
layerId = "88dbb4cf-2a0e-4722-85a3-f94739c801e9";
paths = (
{
closed = 1;
nodes = (
"1139 0 LINE",
"1139 271 LINE",
"537 271 LINE",
"537 692 LINE",
"1115 692 LINE",
"1115 963 LINE",
"537 963 LINE",
"537 1379 LINE",
"1139 1379 LINE",
"1139 1650 LINE",
"229 1650 LINE",
"229 0 LINE"
);
}
);
width = 1310;
},
{
anchors = (
{
name = bottom;
position = "{688, 0}";
},
{
name = ogonek;
position = "{1125, 0}";
},
{
name = top;
position = "{688, 1650}";
},
{
name = topleft;
position = "{196, 1650}";
}
);
hints = (
{
horizontal = 1;
place = "{1430, 220}";
type = Stem;
},
{
horizontal = 1;
place = "{717, 220}";
type = Stem;
},
{
horizontal = 1;
place = "{0, 220}";
type = Stem;
},
{
place = "{244, 250}";
type = Stem;
}
);
layerId = "e8d1f046-7750-4839-b2c6-57e680534bd5";
paths = (
{
closed = 1;
nodes = (
"1125 0 LINE",
"1125 220 LINE",
"494 220 LINE",
"494 717 LINE",
"1101 717 LINE",
"1101 937 LINE",
"494 937 LINE",
"494 1430 LINE",
"1125 1430 LINE",
"1125 1650 LINE",
"244 1650 LINE",
"244 0 LINE"
);
}
);
width = 1297;
},
{
anchors = (
{
name = bottom;
position = "{692, 0}";
},
{
name = ogonek;
position = "{1114, 0}";
},
{
name = top;
position = "{692, 1650}";
}
);
hints = (
{
horizontal = 1;
place = "{1470, 180}";
type = Stem;
},
{
horizontal = 1;
place = "{737, 180}";
type = Stem;
},
{
horizontal = 1;
place = "{0, 180}";
type = Stem;
},
{
place = "{256, 204}";
type = Stem;
}
);
layerId = "3e2ba9c9-8461-4c64-8143-df88a38fbe08";
paths = (
{
closed = 1;
nodes = (
"1114 0 LINE",
"1114 180 LINE",
"460 180 LINE",
"460 737 LINE",
"1090 737 LINE",
"1090 917 LINE",
"460 917 LINE",
"460 1470 LINE",
"1114 1470 LINE",
"1114 1650 LINE",
"256 1650 LINE",
"256 0 LINE"
);
}
);
width = 1287;
},
{
anchors = (
{
name = bottom;
position = "{697, 0}";
},
{
name = ogonek;
position = "{1100, 0}";
},
{
name = top;
position = "{697, 1650}";
},
{
name = topleft;
position = "{196, 1650}";
}
);
hints = (
{
horizontal = 1;
place = "{1521, 129}";
type = Stem;
},
{
horizontal = 1;
place = "{762, 129}";
type = Stem;
},
{
horizontal = 1;
place = "{0, 129}";
type = Stem;
},
{
place = "{271, 146}";
type = Stem;
}
);
layerId = "e702a883-bc41-413c-af83-57815b8e3e41";
paths = (
{
closed = 1;
nodes = (
"1100 0 LINE",
"1100 129 LINE",
"417 129 LINE",
"417 762 LINE",
"1076 762 LINE",
"1076 891 LINE",
"417 891 LINE",
"417 1521 LINE",
"1100 1521 LINE",
"1100 1650 LINE",
"271 1650 LINE",
"271 0 LINE"
);
}
);
width = 1274;
},
{
anchors = (
{
name = bottom;
position = "{701, 0}";
},
{
name = ogonek;
position = "{1090, 0}";
},
{
name = top;
position = "{701, 1650}";
},
{
name = topleft;
position = "{196, 1650}";
}
);
hints = (
{
horizontal = 1;
place = "{1556, 94}";
type = Stem;
},
{
horizontal = 1;
place = "{780, 94}";
type = Stem;
},
{
horizontal = 1;
place = "{0, 94}";
type = Stem;
},
{
place = "{281, 106}";
type = Stem;
}
);
layerId = "89499a33-ee22-4529-a629-c9afa075ab0d";
paths = (
{
closed = 1;
nodes = (
"1090 0 LINE",
"1090 94 LINE",
"387 94 LINE",
"387 780 LINE",
"1066 780 LINE",
"1066 874 LINE",
"387 874 LINE",
"387 1556 LINE",
"1090 1556 LINE",
"1090 1650 LINE",
"281 1650 LINE",
"281 0 LINE"
);
}
);
width = 1265;
},
{
anchors = (
{
name = bottom;
position = "{704, 0}";
},
{
name = ogonek;
position = "{1082, 0}";
},
{
name = top;
position = "{704, 1650}";
},
{
name = topleft;
position = "{196, 1650}";
}
);
hints = (
{
horizontal = 1;
place = "{1582, 68}";
type = Stem;
},
{
horizontal = 1;
place = "{793, 68}";
type = Stem;
},
{
horizontal = 1;
place = "{0, 68}";
type = Stem;
},
{
place = "{288, 76}";
type = Stem;
}
);
layerId = "7b9d160b-1bc8-4aa8-aa2c-85d968a9ba41";
paths = (
{
closed = 1;
nodes = (
"1082 0 LINE",
"1082 68 LINE",
"364 68 LINE",
"364 793 LINE",
"1058 793 LINE",
"1058 861 LINE",
"364 861 LINE",
"364 1582 LINE",
"1082 1582 LINE",
"1082 1650 LINE",
"288 1650 LINE",
"288 0 LINE"
);
}
);
width = 1258;
},
{
anchors = (
{
name = bottom;
position = "{706, 0}";
},
{
name = ogonek;
position = "{1077, 0}";
},
{
name = top;
position = "{706, 1650}";
}
);
hints = (
{
horizontal = 1;
place = "{1600, 50}";
type = Stem;
},
{
horizontal = 1;
place = "{802, 50}";
type = Stem;
},
{
horizontal = 1;
place = "{0, 50}";
type = Stem;
},
{
place = "{293, 56}";
type = Stem;
}
);
layerId = "30428d78-2e09-4e0b-978b-a63d31127a95";
paths = (
{
closed = 1;
nodes = (
"1077 0 LINE",
"1077 50 LINE",
"349 50 LINE",
"349 802 LINE",
"1053 802 LINE",
"1053 852 LINE",
"349 852 LINE",
"349 1600 LINE",
"1077 1600 LINE",
"1077 1650 LINE",
"293 1650 LINE",
"293 0 LINE"
);
}
);
width = 1254;
}
);
unicode = 0045;
},
{
glyphname = F;
layers = (
{
anchors = (
{
name = bottom;
position = "{630, 0}";
},
{
name = top;
position = "{630, 1650}";
}
);
hints = (
{
horizontal = 1;
place = "{1264, 386}";
type = Stem;
},
{
place = "{196, 440}";
type = Stem;
},
{
horizontal = 1;
place = "{634, 386}";
type = Stem;
},
{
horizontal = 1;
place = "{0, 21}";
target = up;
type = BottomGhost;
}
);
layerId = "6b09ce2e-afcf-4aca-aac2-7dbc8e1b58f4";
paths = (
{
closed = 1;
nodes = (
"196 1650 LINE",
"196 0 LINE",
"636 0 LINE",
"636 634 LINE",
"1140 634 LINE",
"1140 1020 LINE",
"636 1020 LINE",
"636 1264 LINE",
"1184 1264 LINE",
"1184 1650 LINE"
);
}
);
width = 1260;
},
{
anchors = (
{
name = bottom;
position = "{628, 0}";
},
{
name = top;
position = "{628, 1650}";
}
);
hints = (
{
horizontal = 1;
place = "{1320, 330}";
type = Stem;
},
{
place = "{212, 376}";
type = Stem;
},
{
horizontal = 1;
place = "{662, 330}";
type = Stem;
},
{
horizontal = 1;
place = "{0, 21}";
target = up;
type = BottomGhost;
}
);
layerId = "165b9972-5639-46b0-8551-47f8199b5798";
paths = (
{
closed = 1;
nodes = (
"212 1650 LINE",
"212 0 LINE",
"588 0 LINE",
"588 662 LINE",
"1122 662 LINE",
"1122 992 LINE",
"588 992 LINE",
"588 1320 LINE",
"1166 1320 LINE",
"1166 1650 LINE"
);
}
);
width = 1257;
},
{
anchors = (
{
name = bottom;
position = "{626, 0}";
},
{
name = top;
position = "{626, 1650}";
}
);
hints = (
{
horizontal = 1;
place = "{1379, 271}";
type = Stem;
},
{
place = "{229, 308}";
type = Stem;
},
{
horizontal = 1;
place = "{691, 271}";
type = Stem;
},
{
horizontal = 1;
place = "{0, 21}";
target = up;
type = BottomGhost;
}
);
layerId = "88dbb4cf-2a0e-4722-85a3-f94739c801e9";
paths = (
{
closed = 1;
nodes = (
"229 1650 LINE",
"229 0 LINE",
"537 0 LINE",
"537 691 LINE",
"1102 691 LINE",
"1102 962 LINE",
"537 962 LINE",
"537 1379 LINE",
"1147 1379 LINE",
"1147 1650 LINE"
);
}
);
width = 1253;
},
{
anchors = (
{
name = bottom;
position = "{624, 0}";
},
{
name = top;
position = "{624, 1650}";
}
);
hints = (
{
horizontal = 1;
place = "{1430, 220}";
type = Stem;
},
{
place = "{244, 250}";
type = Stem;
},
{
horizontal = 1;
place = "{716, 220}";
type = Stem;
},
{
horizontal = 1;
place = "{0, 21}";
target = up;
type = BottomGhost;
}
);
layerId = "e8d1f046-7750-4839-b2c6-57e680534bd5";
paths = (
{
closed = 1;
nodes = (
"244 1650 LINE",
"244 0 LINE",
"494 0 LINE",
"494 716 LINE",
"1086 716 LINE",
"1086 936 LINE",
"494 936 LINE",
"494 1430 LINE",
"1131 1430 LINE",
"1131 1650 LINE"
);
}
);
width = 1250;
},
{
anchors = (
{
name = bottom;
position = "{624, 0}";
},
{
name = top;
position = "{624, 1650}";
}
);
hints = (
{
horizontal = 1;
place = "{1470, 180}";
type = Stem;
},
{
place = "{256, 204}";
type = Stem;
},
{
horizontal = 1;
place = "{736, 180}";
type = Stem;
},
{
horizontal = 1;
place = "{0, 21}";
target = up;
type = BottomGhost;
}
);
layerId = "3e2ba9c9-8461-4c64-8143-df88a38fbe08";
paths = (
{
closed = 1;
nodes = (
"256 1650 LINE",
"256 0 LINE",
"460 0 LINE",
"460 736 LINE",
"1073 736 LINE",
"1073 916 LINE",
"460 916 LINE",
"460 1470 LINE",
"1119 1470 LINE",
"1119 1650 LINE"
);
}
);
width = 1247;
},
{
anchors = (
{
name = bottom;
position = "{621, 0}";
},
{
name = top;
position = "{621, 1650}";
}
);
hints = (
{
horizontal = 1;
place = "{1521, 129}";
type = Stem;
},
{
place = "{271, 146}";
type = Stem;
},
{
horizontal = 1;
place = "{762, 129}";
type = Stem;
},
{
horizontal = 1;
place = "{0, 21}";
target = up;
type = BottomGhost;
}
);
layerId = "e702a883-bc41-413c-af83-57815b8e3e41";
paths = (
{
closed = 1;
nodes = (
"271 1650 LINE",
"271 0 LINE",
"417 0 LINE",
"417 762 LINE",
"1057 762 LINE",
"1057 891 LINE",
"417 891 LINE",
"417 1521 LINE",
"1103 1521 LINE",
"1103 1650 LINE"
);
}
);
width = 1244;
},
{
anchors = (
{
name = bottom;
position = "{621, 0}";
},
{
name = top;
position = "{621, 1650}";
}
);
hints = (
{
horizontal = 1;
place = "{1556, 94}";
type = Stem;
},
{
place = "{281, 106}";
type = Stem;
},
{
horizontal = 1;
place = "{780, 94}";
type = Stem;
},
{
horizontal = 1;
place = "{0, 21}";
target = up;
type = BottomGhost;
}
);
layerId = "89499a33-ee22-4529-a629-c9afa075ab0d";
paths = (
{
closed = 1;
nodes = (
"281 1650 LINE",
"281 0 LINE",
"387 0 LINE",
"387 780 LINE",
"1046 780 LINE",
"1046 874 LINE",
"387 874 LINE",
"387 1556 LINE",
"1092 1556 LINE",
"1092 1650 LINE"
);
}
);
width = 1242;
},
{
anchors = (
{
name = bottom;
position = "{620, 0}";
},
{
name = top;
position = "{620, 1650}";
}
);
hints = (
{
horizontal = 1;
place = "{1582, 68}";
type = Stem;
},
{
place = "{288, 76}";
type = Stem;
},
{
horizontal = 1;
place = "{793, 68}";
type = Stem;
},
{
horizontal = 1;
place = "{0, 21}";
target = up;
type = BottomGhost;
}
);
layerId = "7b9d160b-1bc8-4aa8-aa2c-85d968a9ba41";
paths = (
{
closed = 1;
nodes = (
"288 1650 LINE",
"288 0 LINE",
"364 0 LINE",
"364 793 LINE",
"1037 793 LINE",
"1037 861 LINE",
"364 861 LINE",
"364 1582 LINE",
"1083 1582 LINE",
"1083 1650 LINE"
);
}
);
width = 1240;
},
{
anchors = (
{
name = bottom;
position = "{620, 0}";
},
{
name = top;
position = "{620, 1650}";
}
);
hints = (
{
horizontal = 1;
place = "{1600, 50}";
type = Stem;
},
{
place = "{293, 56}";
type = Stem;
},
{
horizontal = 1;
place = "{802, 50}";
type = Stem;
},
{
horizontal = 1;
place = "{0, 21}";
target = up;
type = BottomGhost;
}
);
layerId = "30428d78-2e09-4e0b-978b-a63d31127a95";
paths = (
{
closed = 1;
nodes = (
"293 1650 LINE",
"293 0 LINE",
"349 0 LINE",
"349 802 LINE",
"1031 802 LINE",
"1031 852 LINE",
"349 852 LINE",
"349 1600 LINE",
"1077 1600 LINE",
"1077 1650 LINE"
);
}
);
width = 1239;
}
);
unicode = 0046;
},
{
glyphname = G;
layers = (
{
anchors = (
{
name = bottom;
position = "{842, 0}";
},
{
name = top;
position = "{842, 1650}";
}
);
hints = (
{
horizontal = 1;
place = "{-32, 406}";
type = Stem;
},
{
horizontal = 1;
place = "{614, 338}";
type = Stem;
},
{
horizontal = 1;
place = "{1282, 398}";
type = Stem;
},
{
place = "{64, 476}";
type = Stem;
},
{
place = "{1183, 448}";
type = Stem;
}
);
layerId = "6b09ce2e-afcf-4aca-aac2-7dbc8e1b58f4";
paths = (
{
closed = 1;
nodes = (
"1279 -32 OFFCURVE",
"1631 225 OFFCURVE",
"1631 699 CURVE SMOOTH",
"1631 952 LINE",
"869 952 LINE",
"869 614 LINE",
"1183 614 LINE",
"1183 612 LINE SMOOTH",
"1183 481 OFFCURVE",
"1057 374 OFFCURVE",
"902 374 CURVE SMOOTH",
"682 374 OFFCURVE",
"540 581 OFFCURVE",
"540 825 CURVE SMOOTH",
"540 1067 OFFCURVE",
"672 1282 OFFCURVE",
"932 1282 CURVE SMOOTH",
"1054 1282 OFFCURVE",
"1173 1234 OFFCURVE",
"1239 1158 CURVE",
"1499 1421 LINE",
"1327 1582 OFFCURVE",
"1143 1680 OFFCURVE",
"898 1680 CURVE SMOOTH",
"413 1680 OFFCURVE",
"64 1297 OFFCURVE",
"64 824 CURVE SMOOTH",
"64 351 OFFCURVE",
"409 -32 OFFCURVE",
"888 -32 CURVE SMOOTH"
);
}
);
width = 1697;
},
{
anchors = (
{
name = bottom;
position = "{871, 0}";
},
{
name = top;
position = "{871, 1650}";
}
);
hints = (
{
horizontal = 1;
place = "{-32, 347}";
type = Stem;
},
{
horizontal = 1;
place = "{632, 290}";
type = Stem;
},
{
horizontal = 1;
place = "{1340, 340}";
type = Stem;
},
{
place = "{88, 406}";
type = Stem;
},
{
place = "{1272, 383}";
type = Stem;
}
);
layerId = "165b9972-5639-46b0-8551-47f8199b5798";
paths = (
{
closed = 1;
nodes = (
"1293 -32 OFFCURVE",
"1655 218 OFFCURVE",
"1655 697 CURVE SMOOTH",
"1655 922 LINE",
"892 922 LINE",
"892 632 LINE",
"1272 632 LINE",
"1272 618 LINE SMOOTH",
"1272 444 OFFCURVE",
"1108 315 OFFCURVE",
"921 315 CURVE SMOOTH",
"668 315 OFFCURVE",
"494 547 OFFCURVE",
"494 825 CURVE SMOOTH",
"494 1095 OFFCURVE",
"651 1340 OFFCURVE",
"947 1340 CURVE SMOOTH",
"1090 1340 OFFCURVE",
"1223 1283 OFFCURVE",
"1299 1193 CURVE",
"1524 1417 LINE",
"1358 1579 OFFCURVE",
"1170 1680 OFFCURVE",
"920 1680 CURVE SMOOTH",
"427 1680 OFFCURVE",
"88 1290 OFFCURVE",
"88 824 CURVE SMOOTH",
"88 351 OFFCURVE",
"434 -32 OFFCURVE",
"910 -32 CURVE SMOOTH"
);
}
);
width = 1741;
},
{
anchors = (
{
name = bottom;
position = "{902, 0}";
},
{
name = top;
position = "{902, 1650}";
}
);
hints = (
{
horizontal = 1;
place = "{-32, 284}";
type = Stem;
},
{
horizontal = 1;
place = "{651, 239}";
type = Stem;
},
{
horizontal = 1;
place = "{1401, 279}";
type = Stem;
},
{
place = "{113, 332}";
type = Stem;
},
{
place = "{1366, 314}";
type = Stem;
}
);
layerId = "88dbb4cf-2a0e-4722-85a3-f94739c801e9";
paths = (
{
closed = 1;
nodes = (
"1308 -32 OFFCURVE",
"1680 211 OFFCURVE",
"1680 694 CURVE SMOOTH",
"1680 890 LINE",
"917 890 LINE",
"917 651 LINE",
"1366 651 LINE",
"1366 624 LINE SMOOTH",
"1366 404 OFFCURVE",
"1161 252 OFFCURVE",
"941 252 CURVE SMOOTH",
"652 252 OFFCURVE",
"445 511 OFFCURVE",
"445 824 CURVE SMOOTH",
"445 1124 OFFCURVE",
"628 1401 OFFCURVE",
"962 1401 CURVE SMOOTH",
"1127 1401 OFFCURVE",
"1275 1334 OFFCURVE",
"1363 1230 CURVE",
"1550 1412 LINE",
"1391 1575 OFFCURVE",
"1198 1680 OFFCURVE",
"942 1680 CURVE SMOOTH",
"442 1680 OFFCURVE",
"113 1281 OFFCURVE",
"113 823 CURVE SMOOTH",
"113 351 OFFCURVE",
"461 -32 OFFCURVE",
"933 -32 CURVE SMOOTH"
);
}
);
width = 1787;
},
{
anchors = (
{
name = bottom;
position = "{929, 0}";
},
{
name = top;
position = "{929, 1650}";
}
);
hints = (
{
horizontal = 1;
place = "{-32, 230}";
type = Stem;
},
{
horizontal = 1;
place = "{667, 196}";
type = Stem;
},
{
horizontal = 1;
place = "{1454, 226}";
type = Stem;
},
{
place = "{134, 269}";
type = Stem;
},
{
place = "{1446, 255}";
type = Stem;
}
);
layerId = "e8d1f046-7750-4839-b2c6-57e680534bd5";
paths = (
{
closed = 1;
nodes = (
"1321 -32 OFFCURVE",
"1701 204 OFFCURVE",
"1701 691 CURVE SMOOTH",
"1701 863 LINE",
"938 863 LINE",
"938 667 LINE",
"1446 667 LINE",
"1446 629 LINE SMOOTH",
"1446 370 OFFCURVE",
"1207 198 OFFCURVE",
"958 198 CURVE SMOOTH",
"638 198 OFFCURVE",
"403 480 OFFCURVE",
"403 824 CURVE SMOOTH",
"403 1150 OFFCURVE",
"609 1454 OFFCURVE",
"975 1454 CURVE SMOOTH",
"1158 1454 OFFCURVE",
"1319 1378 OFFCURVE",
"1417 1262 CURVE",
"1572 1409 LINE",
"1419 1572 OFFCURVE",
"1222 1680 OFFCURVE",
"961 1680 CURVE SMOOTH",
"454 1680 OFFCURVE",
"134 1274 OFFCURVE",
"134 823 CURVE SMOOTH",
"134 350 OFFCURVE",
"483 -32 OFFCURVE",
"953 -32 CURVE SMOOTH"
);
}
);
width = 1826;
},
{
anchors = (
{
name = bottom;
position = "{950, 0}";
},
{
name = top;
position = "{950, 1650}";
}
);
hints = (
{
horizontal = 1;
place = "{-32, 187}";
type = Stem;
},
{
horizontal = 1;
place = "{680, 162}";
type = Stem;
},
{
horizontal = 1;
place = "{1496, 184}";
type = Stem;
},
{
place = "{151, 219}";
type = Stem;
},
{
place = "{1510, 208}";
type = Stem;
}
);
layerId = "3e2ba9c9-8461-4c64-8143-df88a38fbe08";
paths = (
{
closed = 1;
nodes = (
"1332 -32 OFFCURVE",
"1718 198 OFFCURVE",
"1718 689 CURVE SMOOTH",
"1718 842 LINE",
"955 842 LINE",
"955 680 LINE",
"1510 680 LINE",
"1510 633 LINE SMOOTH",
"1510 343 OFFCURVE",
"1243 155 OFFCURVE",
"972 155 CURVE SMOOTH",
"627 155 OFFCURVE",
"370 456 OFFCURVE",
"370 824 CURVE SMOOTH",
"370 1171 OFFCURVE",
"594 1496 OFFCURVE",
"986 1496 CURVE SMOOTH",
"1183 1496 OFFCURVE",
"1355 1413 OFFCURVE",
"1461 1288 CURVE",
"1590 1407 LINE",
"1442 1570 OFFCURVE",
"1241 1680 OFFCURVE",
"976 1680 CURVE SMOOTH",
"464 1680 OFFCURVE",
"151 1269 OFFCURVE",
"151 823 CURVE SMOOTH",
"151 350 OFFCURVE",
"501 -32 OFFCURVE",
"969 -32 CURVE SMOOTH"
);
}
);
width = 1857;
},
{
anchors = (
{
name = bottom;
position = "{969, 0}";
},
{
name = top;
position = "{969, 1650}";
}
);
hints = (
{
horizontal = 1;
place = "{-32, 134}";
type = Stem;
},
{
horizontal = 1;
place = "{697, 119}";
type = Stem;
},
{
horizontal = 1;
place = "{1549, 131}";
type = Stem;
},
{
place = "{172, 156}";
type = Stem;
},
{
place = "{1590, 149}";
type = Stem;
}
);
layerId = "e702a883-bc41-413c-af83-57815b8e3e41";
paths = (
{
closed = 1;
nodes = (
"1345 -32 OFFCURVE",
"1739 192 OFFCURVE",
"1739 688 CURVE SMOOTH",
"1739 816 LINE",
"976 816 LINE",
"976 697 LINE",
"1590 697 LINE",
"1590 639 LINE SMOOTH",
"1590 310 OFFCURVE",
"1288 102 OFFCURVE",
"989 102 CURVE SMOOTH",
"613 102 OFFCURVE",
"328 426 OFFCURVE",
"328 825 CURVE SMOOTH",
"328 1197 OFFCURVE",
"575 1549 OFFCURVE",
"999 1549 CURVE SMOOTH",
"1214 1549 OFFCURVE",
"1399 1458 OFFCURVE",
"1515 1320 CURVE",
"1612 1404 LINE",
"1470 1567 OFFCURVE",
"1265 1680 OFFCURVE",
"995 1680 CURVE SMOOTH",
"476 1680 OFFCURVE",
"172 1263 OFFCURVE",
"172 824 CURVE SMOOTH",
"172 350 OFFCURVE",
"524 -32 OFFCURVE",
"989 -32 CURVE SMOOTH"
);
}
);
width = 1897;
},
{
anchors = (
{
name = bottom;
position = "{983, 0}";
},
{
name = top;
position = "{983, 1650}";
}
);
hints = (
{
horizontal = 1;
place = "{-32, 97}";
type = Stem;
},
{
horizontal = 1;
place = "{708, 89}";
type = Stem;
},
{
horizontal = 1;
place = "{1585, 95}";
type = Stem;
},
{
place = "{187, 113}";
type = Stem;
},
{
place = "{1646, 108}";
type = Stem;
}
);
layerId = "89499a33-ee22-4529-a629-c9afa075ab0d";
paths = (
{
closed = 1;
nodes = (
"1354 -32 OFFCURVE",
"1754 188 OFFCURVE",
"1754 686 CURVE SMOOTH",
"1754 797 LINE",
"991 797 LINE",
"991 708 LINE",
"1646 708 LINE",
"1646 642 LINE SMOOTH",
"1646 287 OFFCURVE",
"1320 65 OFFCURVE",
"1001 65 CURVE SMOOTH",
"605 65 OFFCURVE",
"300 405 OFFCURVE",
"300 824 CURVE SMOOTH",
"300 1214 OFFCURVE",
"562 1585 OFFCURVE",
"1009 1585 CURVE SMOOTH",
"1236 1585 OFFCURVE",
"1431 1488 OFFCURVE",
"1553 1342 CURVE",
"1628 1401 LINE",
"1490 1565 OFFCURVE",
"1282 1680 OFFCURVE",
"1009 1680 CURVE SMOOTH",
"486 1680 OFFCURVE",
"187 1258 OFFCURVE",
"187 823 CURVE SMOOTH",
"187 350 OFFCURVE",
"540 -32 OFFCURVE",
"1003 -32 CURVE SMOOTH"
);
}
);
width = 1924;
},
{
anchors = (
{
name = bottom;
position = "{993, 0}";
},
{
name = top;
position = "{993, 1650}";
}
);
hints = (
{
horizontal = 1;
place = "{-32, 69}";
type = Stem;
},
{
horizontal = 1;
place = "{716, 67}";
type = Stem;
},
{
horizontal = 1;
place = "{1612, 68}";
type = Stem;
},
{
place = "{198, 80}";
type = Stem;
},
{
place = "{1687, 78}";
type = Stem;
}
);
layerId = "7b9d160b-1bc8-4aa8-aa2c-85d968a9ba41";
paths = (
{
closed = 1;
nodes = (
"1360 -32 OFFCURVE",
"1765 184 OFFCURVE",
"1765 684 CURVE SMOOTH",
"1765 783 LINE",
"1002 783 LINE",
"1002 716 LINE",
"1687 716 LINE",
"1687 644 LINE SMOOTH",
"1687 269 OFFCURVE",
"1343 37 OFFCURVE",
"1009 37 CURVE SMOOTH",
"598 37 OFFCURVE",
"278 389 OFFCURVE",
"278 824 CURVE SMOOTH",
"278 1227 OFFCURVE",
"552 1612 OFFCURVE",
"1015 1612 CURVE SMOOTH",
"1252 1612 OFFCURVE",
"1453 1511 OFFCURVE",
"1581 1358 CURVE",
"1639 1399 LINE",
"1504 1563 OFFCURVE",
"1294 1680 OFFCURVE",
"1018 1680 CURVE SMOOTH",
"492 1680 OFFCURVE",
"198 1254 OFFCURVE",
"198 823 CURVE SMOOTH",
"198 350 OFFCURVE",
"552 -32 OFFCURVE",
"1013 -32 CURVE SMOOTH"
);
}
);
width = 1944;
},
{
anchors = (
{
name = bottom;
position = "{1000, 0}";
},
{
name = top;
position = "{1000, 1650}";
}
);
hints = (
{
horizontal = 1;
place = "{-32, 50}";
type = Stem;
},
{
horizontal = 1;
place = "{722, 52}";
type = Stem;
},
{
horizontal = 1;
place = "{1630, 50}";
type = Stem;
},
{
place = "{205, 58}";
type = Stem;
},
{
place = "{1715, 58}";
type = Stem;
}
);
layerId = "30428d78-2e09-4e0b-978b-a63d31127a95";
paths = (
{
closed = 1;
nodes = (
"1365 -32 OFFCURVE",
"1773 181 OFFCURVE",
"1773 684 CURVE SMOOTH",
"1773 774 LINE",
"1009 774 LINE",
"1009 722 LINE",
"1715 722 LINE",
"1715 646 LINE SMOOTH",
"1715 257 OFFCURVE",
"1359 18 OFFCURVE",
"1015 18 CURVE SMOOTH",
"593 18 OFFCURVE",
"263 378 OFFCURVE",
"263 824 CURVE SMOOTH",
"263 1236 OFFCURVE",
"545 1630 OFFCURVE",
"1019 1630 CURVE SMOOTH",
"1263 1630 OFFCURVE",
"1469 1526 OFFCURVE",
"1600 1369 CURVE",
"1647 1398 LINE",
"1514 1562 OFFCURVE",
"1302 1680 OFFCURVE",
"1024 1680 CURVE SMOOTH",
"496 1680 OFFCURVE",
"205 1252 OFFCURVE",
"205 823 CURVE SMOOTH",
"205 350 OFFCURVE",
"559 -32 OFFCURVE",
"1020 -32 CURVE SMOOTH"
);
}
);
width = 1958;
}
);
unicode = 0047;
},
{
glyphname = H;
layers = (
{
anchors = (
{
name = bottom;
position = "{848, 0}";
},
{
name = center;
position = "{848, 825}";
},
{
name = top;
position = "{848, 1650}";
}
);
hints = (
{
horizontal = 1;
place = "{634, 386}";
type = Stem;
},
{
place = "{196, 440}";
type = Stem;
},
{
place = "{1060, 440}";
type = Stem;
},
{
horizontal = 1;
place = "{1650, -20}";
target = down;
type = TopGhost;
},
{
horizontal = 1;
place = "{0, 21}";
target = up;
type = BottomGhost;
}
);
layerId = "6b09ce2e-afcf-4aca-aac2-7dbc8e1b58f4";
paths = (
{
closed = 1;
nodes = (
"636 0 LINE",
"636 634 LINE",
"1060 634 LINE",
"1060 0 LINE",
"1500 0 LINE",
"1500 1650 LINE",
"1060 1650 LINE",
"1060 1020 LINE",
"636 1020 LINE",
"636 1650 LINE",
"196 1650 LINE",
"196 0 LINE"
);
}
);
width = 1696;
},
{
anchors = (
{
name = bottom;
position = "{853, 0}";
},
{
name = center;
position = "{853, 825}";
},
{
name = top;
position = "{853, 1650}";
}
);
hints = (
{
horizontal = 1;
place = "{662, 330}";
type = Stem;
},
{
place = "{212, 376}";
type = Stem;
},
{
place = "{1118, 376}";
type = Stem;
},
{
horizontal = 1;
place = "{1650, -20}";
target = down;
type = TopGhost;
},
{
horizontal = 1;
place = "{0, 21}";
target = up;
type = BottomGhost;
}
);
layerId = "165b9972-5639-46b0-8551-47f8199b5798";
paths = (
{
closed = 1;
nodes = (
"588 0 LINE",
"588 662 LINE",
"1118 662 LINE",
"1118 0 LINE",
"1494 0 LINE",
"1494 1650 LINE",
"1118 1650 LINE",
"1118 992 LINE",
"588 992 LINE",
"588 1650 LINE",
"212 1650 LINE",
"212 0 LINE"
);
}
);
width = 1707;
},
{
anchors = (
{
name = bottom;
position = "{858, 0}";
},
{
name = center;
position = "{858, 825}";
},
{
name = top;
position = "{858, 1650}";
}
);
hints = (
{
horizontal = 1;
place = "{692, 271}";
type = Stem;
},
{
place = "{229, 308}";
type = Stem;
},
{
place = "{1179, 308}";
type = Stem;
},
{
horizontal = 1;
place = "{1651, -20}";
target = down;
type = TopGhost;
},
{
horizontal = 1;
place = "{0, 21}";
target = up;
type = BottomGhost;
}
);
layerId = "88dbb4cf-2a0e-4722-85a3-f94739c801e9";
paths = (
{
closed = 1;
nodes = (
"537 0 LINE",
"537 692 LINE",
"1179 692 LINE",
"1179 0 LINE",
"1487 0 LINE",
"1487 1651 LINE",
"1179 1651 LINE",
"1179 963 LINE",
"537 963 LINE",
"537 1651 LINE",
"229 1651 LINE",
"229 0 LINE"
);
}
);
width = 1718;
},
{
anchors = (
{
name = bottom;
position = "{863, 0}";
},
{
name = center;
position = "{863, 825}";
},
{
name = top;
position = "{863, 1650}";
}
);
hints = (
{
horizontal = 1;
place = "{717, 220}";
type = Stem;
},
{
place = "{244, 250}";
type = Stem;
},
{
place = "{1232, 250}";
type = Stem;
},
{
horizontal = 1;
place = "{1650, -20}";
target = down;
type = TopGhost;
},
{
horizontal = 1;
place = "{0, 21}";
target = up;
type = BottomGhost;
}
);
layerId = "e8d1f046-7750-4839-b2c6-57e680534bd5";
paths = (
{
closed = 1;
nodes = (
"494 0 LINE",
"494 717 LINE",
"1232 717 LINE",
"1232 0 LINE",
"1482 0 LINE",
"1482 1650 LINE",
"1232 1650 LINE",
"1232 937 LINE",
"494 937 LINE",
"494 1650 LINE",
"244 1650 LINE",
"244 0 LINE"
);
}
);
width = 1727;
},
{
anchors = (
{
name = bottom;
position = "{867, 0}";
},
{
name = center;
position = "{867, 825}";
},
{
name = top;
position = "{867, 1650}";
}
);
hints = (
{
horizontal = 1;
place = "{737, 180}";
type = Stem;
},
{
place = "{256, 204}";
type = Stem;
},
{
place = "{1274, 204}";
type = Stem;
},
{
horizontal = 1;
place = "{1650, -20}";
target = down;
type = TopGhost;
},
{
horizontal = 1;
place = "{0, 21}";
target = up;
type = BottomGhost;
}
);
layerId = "3e2ba9c9-8461-4c64-8143-df88a38fbe08";
paths = (
{
closed = 1;
nodes = (
"460 0 LINE",
"460 737 LINE",
"1274 737 LINE",
"1274 0 LINE",
"1478 0 LINE",
"1478 1650 LINE",
"1274 1650 LINE",
"1274 917 LINE",
"460 917 LINE",
"460 1650 LINE",
"256 1650 LINE",
"256 0 LINE"
);
}
);
width = 1734;
},
{
anchors = (
{
name = bottom;
position = "{872, 0}";
},
{
name = center;
position = "{872, 825}";
},
{
name = top;
position = "{872, 1650}";
}
);
hints = (
{
horizontal = 1;
place = "{762, 129}";
type = Stem;
},
{
place = "{271, 146}";
type = Stem;
},
{
place = "{1327, 146}";
type = Stem;
},
{
horizontal = 1;
place = "{1650, -20}";
target = down;
type = TopGhost;
},
{
horizontal = 1;
place = "{0, 21}";
target = up;
type = BottomGhost;
}
);
layerId = "e702a883-bc41-413c-af83-57815b8e3e41";
paths = (
{
closed = 1;
nodes = (
"417 0 LINE",
"417 762 LINE",
"1327 762 LINE",
"1327 0 LINE",
"1473 0 LINE",
"1473 1650 LINE",
"1327 1650 LINE",
"1327 891 LINE",
"417 891 LINE",
"417 1650 LINE",
"271 1650 LINE",
"271 0 LINE"
);
}
);
width = 1743;
},
{
anchors = (
{
name = bottom;
position = "{875, 0}";
},
{
name = center;
position = "{875, 825}";
},
{
name = top;
position = "{875, 1650}";
}
);
hints = (
{
horizontal = 1;
place = "{780, 94}";
type = Stem;
},
{
place = "{281, 106}";
type = Stem;
},
{
place = "{1363, 106}";
type = Stem;
},
{
horizontal = 1;
place = "{1650, -20}";
target = down;
type = TopGhost;
},
{
horizontal = 1;
place = "{0, 21}";
target = up;
type = BottomGhost;
}
);
layerId = "89499a33-ee22-4529-a629-c9afa075ab0d";
paths = (
{
closed = 1;
nodes = (
"387 0 LINE",
"387 780 LINE",
"1363 780 LINE",
"1363 0 LINE",
"1469 0 LINE",
"1469 1650 LINE",
"1363 1650 LINE",
"1363 874 LINE",
"387 874 LINE",
"387 1650 LINE",
"281 1650 LINE",
"281 0 LINE"
);
}
);
width = 1750;
},
{
anchors = (
{
name = bottom;
position = "{877, 0}";
},
{
name = center;
position = "{877, 825}";
},
{
name = top;
position = "{877, 1650}";
}
);
hints = (
{
horizontal = 1;
place = "{793, 68}";
type = Stem;
},
{
place = "{288, 76}";
type = Stem;
},
{
place = "{1390, 76}";
type = Stem;
},
{
horizontal = 1;
place = "{1650, -20}";
target = down;
type = TopGhost;
},
{
horizontal = 1;
place = "{0, 21}";
target = up;
type = BottomGhost;
}
);
layerId = "7b9d160b-1bc8-4aa8-aa2c-85d968a9ba41";
paths = (
{
closed = 1;
nodes = (
"364 0 LINE",
"364 793 LINE",
"1390 793 LINE",
"1390 0 LINE",
"1466 0 LINE",
"1466 1650 LINE",
"1390 1650 LINE",
"1390 861 LINE",
"364 861 LINE",
"364 1650 LINE",
"288 1650 LINE",
"288 0 LINE"
);
}
);
width = 1754;
},
{
anchors = (
{
name = bottom;
position = "{879, 0}";
},
{
name = center;
position = "{879, 825}";
},
{
name = top;
position = "{879, 1650}";
}
);
hints = (
{
horizontal = 1;
place = "{802, 50}";
type = Stem;
},
{
place = "{293, 56}";
type = Stem;
},
{
place = "{1409, 56}";
type = Stem;
},
{
horizontal = 1;
place = "{1650, -20}";
target = down;
type = TopGhost;
},
{
horizontal = 1;
place = "{0, 21}";
target = up;
type = BottomGhost;
}
);
layerId = "30428d78-2e09-4e0b-978b-a63d31127a95";
paths = (
{
closed = 1;
nodes = (
"349 0 LINE",
"349 802 LINE",
"1409 802 LINE",
"1409 0 LINE",
"1465 0 LINE",
"1465 1650 LINE",
"1409 1650 LINE",
"1409 852 LINE",
"349 852 LINE",
"349 1650 LINE",
"293 1650 LINE",
"293 0 LINE"
);
}
);
width = 1758;
}
);
unicode = 0048;
},
{
glyphname = Hbar;
layers = (
{
hints = (
{
horizontal = 1;
place = "{580, 294}";
type = Stem;
},
{
horizontal = 1;
place = "{1064, 294}";
type = Stem;
},
{
place = "{196, 440}";
type = Stem;
},
{
place = "{1060, 440}";
type = Stem;
},
{
horizontal = 1;
place = "{0, 21}";
target = up;
type = BottomGhost;
},
{
horizontal = 1;
place = "{1650, -20}";
target = down;
type = TopGhost;
}
);
layerId = "6b09ce2e-afcf-4aca-aac2-7dbc8e1b58f4";
paths = (
{
closed = 1;
nodes = (
"636 0 LINE",
"636 580 LINE",
"1060 580 LINE",
"1060 0 LINE",
"1500 0 LINE",
"1500 1650 LINE",
"1060 1650 LINE",
"1060 874 LINE",
"636 874 LINE",
"636 1650 LINE",
"196 1650 LINE",
"196 0 LINE"
);
},
{
closed = 1;
nodes = (
"1630 1064 LINE",
"1630 1358 LINE",
"66 1358 LINE",
"66 1064 LINE"
);
}
);
width = 1696;
},
{
hints = (
{
horizontal = 1;
place = "{612, 253}";
type = Stem;
},
{
horizontal = 1;
place = "{1065, 253}";
type = Stem;
},
{
place = "{212, 376}";
type = Stem;
},
{
place = "{1118, 376}";
type = Stem;
},
{
horizontal = 1;
place = "{0, 21}";
target = up;
type = BottomGhost;
},
{
horizontal = 1;
place = "{1650, -20}";
target = down;
type = TopGhost;
}
);
layerId = "165b9972-5639-46b0-8551-47f8199b5798";
paths = (
{
closed = 1;
nodes = (
"588 0 LINE",
"588 612 LINE",
"1118 612 LINE",
"1118 0 LINE",
"1494 0 LINE",
"1494 1650 LINE",
"1118 1650 LINE",
"1118 865 LINE",
"588 865 LINE",
"588 1650 LINE",
"212 1650 LINE",
"212 0 LINE"
);
},
{
closed = 1;
nodes = (
"1624 1065 LINE",
"1624 1318 LINE",
"82 1318 LINE",
"82 1065 LINE"
);
}
);
width = 1706;
},
{
hints = (
{
horizontal = 1;
place = "{646, 210}";
type = Stem;
},
{
horizontal = 1;
place = "{1066, 210}";
type = Stem;
},
{
place = "{229, 308}";
type = Stem;
},
{
place = "{1179, 308}";
type = Stem;
},
{
horizontal = 1;
place = "{0, 21}";
target = up;
type = BottomGhost;
},
{
horizontal = 1;
place = "{1650, -20}";
target = down;
type = TopGhost;
}
);
layerId = "88dbb4cf-2a0e-4722-85a3-f94739c801e9";
paths = (
{
closed = 1;
nodes = (
"537 0 LINE",
"537 646 LINE",
"1179 646 LINE",
"1179 0 LINE",
"1487 0 LINE",
"1487 1650 LINE",
"1179 1650 LINE",
"1179 856 LINE",
"537 856 LINE",
"537 1650 LINE",
"229 1650 LINE",
"229 0 LINE"
);
},
{
closed = 1;
nodes = (
"1618 1066 LINE",
"1618 1276 LINE",
"98 1276 LINE",
"98 1066 LINE"
);
}
);
width = 1716;
},
{
hints = (
{
horizontal = 1;
place = "{675, 173}";
type = Stem;
},
{
horizontal = 1;
place = "{1067, 173}";
type = Stem;
},
{
place = "{244, 250}";
type = Stem;
},
{
place = "{1232, 250}";
type = Stem;
},
{
horizontal = 1;
place = "{0, 21}";
target = up;
type = BottomGhost;
},
{
horizontal = 1;
place = "{1650, -20}";
target = down;
type = TopGhost;
}
);
layerId = "e8d1f046-7750-4839-b2c6-57e680534bd5";
paths = (
{
closed = 1;
nodes = (
"494 0 LINE",
"494 675 LINE",
"1232 675 LINE",
"1232 0 LINE",
"1482 0 LINE",
"1482 1650 LINE",
"1232 1650 LINE",
"1232 848 LINE",
"494 848 LINE",
"494 1650 LINE",
"244 1650 LINE",
"244 0 LINE"
);
},
{
closed = 1;
nodes = (
"1614 1067 LINE",
"1614 1240 LINE",
"112 1240 LINE",
"112 1067 LINE"
);
}
);
width = 1726;
},
{
hints = (
{
horizontal = 1;
place = "{698, 144}";
type = Stem;
},
{
horizontal = 1;
place = "{1068, 144}";
type = Stem;
},
{
place = "{256, 204}";
type = Stem;
},
{
place = "{1274, 204}";
type = Stem;
},
{
horizontal = 1;
place = "{0, 21}";
target = up;
type = BottomGhost;
},
{
horizontal = 1;
place = "{1650, -20}";
target = down;
type = TopGhost;
}
);
layerId = "3e2ba9c9-8461-4c64-8143-df88a38fbe08";
paths = (
{
closed = 1;
nodes = (
"460 0 LINE",
"460 698 LINE",
"1274 698 LINE",
"1274 0 LINE",
"1478 0 LINE",
"1478 1650 LINE",
"1274 1650 LINE",
"1274 842 LINE",
"460 842 LINE",
"460 1650 LINE",
"256 1650 LINE",
"256 0 LINE"
);
},
{
closed = 1;
nodes = (
"1611 1068 LINE",
"1611 1212 LINE",
"123 1212 LINE",
"123 1068 LINE"
);
}
);
width = 1733;
},
{
hints = (
{
horizontal = 1;
place = "{727, 107}";
type = Stem;
},
{
horizontal = 1;
place = "{1069, 107}";
type = Stem;
},
{
place = "{271, 146}";
type = Stem;
},
{
place = "{1327, 146}";
type = Stem;
},
{
horizontal = 1;
place = "{0, 21}";
target = up;
type = BottomGhost;
},
{
horizontal = 1;
place = "{1650, -20}";
target = down;
type = TopGhost;
}
);
layerId = "e702a883-bc41-413c-af83-57815b8e3e41";
paths = (
{
closed = 1;
nodes = (
"417 0 LINE",
"417 727 LINE",
"1327 727 LINE",
"1327 0 LINE",
"1473 0 LINE",
"1473 1650 LINE",
"1327 1650 LINE",
"1327 834 LINE",
"417 834 LINE",
"417 1650 LINE",
"271 1650 LINE",
"271 0 LINE"
);
},
{
closed = 1;
nodes = (
"1607 1069 LINE",
"1607 1176 LINE",
"137 1176 LINE",
"137 1069 LINE"
);
}
);
width = 1744;
},
{
hints = (
{
horizontal = 1;
place = "{747, 82}";
type = Stem;
},
{
horizontal = 1;
place = "{1070, 82}";
type = Stem;
},
{
place = "{281, 106}";
type = Stem;
},
{
place = "{1364, 106}";
type = Stem;
},
{
horizontal = 1;
place = "{0, 21}";
target = up;
type = BottomGhost;
},
{
horizontal = 1;
place = "{1651, -20}";
target = down;
type = TopGhost;
}
);
layerId = "89499a33-ee22-4529-a629-c9afa075ab0d";
paths = (
{
closed = 1;
nodes = (
"387 0 LINE",
"387 747 LINE",
"1364 747 LINE",
"1364 0 LINE",
"1470 0 LINE",
"1470 1651 LINE",
"1364 1651 LINE",
"1364 829 LINE",
"387 829 LINE",
"387 1651 LINE",
"281 1651 LINE",
"281 0 LINE"
);
},
{
closed = 1;
nodes = (
"1605 1070 LINE",
"1605 1152 LINE",
"146 1152 LINE",
"146 1070 LINE"
);
}
);
width = 1751;
},
{
hints = (
{
horizontal = 1;
place = "{762, 63}";
type = Stem;
},
{
horizontal = 1;
place = "{1070, 63}";
type = Stem;
},
{
place = "{288, 76}";
type = Stem;
},
{
place = "{1391, 76}";
type = Stem;
},
{
horizontal = 1;
place = "{0, 21}";
target = up;
type = BottomGhost;
},
{
horizontal = 1;
place = "{1651, -20}";
target = down;
type = TopGhost;
}
);
layerId = "7b9d160b-1bc8-4aa8-aa2c-85d968a9ba41";
paths = (
{
closed = 1;
nodes = (
"364 0 LINE",
"364 762 LINE",
"1391 762 LINE",
"1391 0 LINE",
"1467 0 LINE",
"1467 1651 LINE",
"1391 1651 LINE",
"1391 825 LINE",
"364 825 LINE",
"364 1651 LINE",
"288 1651 LINE",
"288 0 LINE"
);
},
{
closed = 1;
nodes = (
"1602 1070 LINE",
"1602 1133 LINE",
"153 1133 LINE",
"153 1070 LINE"
);
}
);
width = 1755;
},
{
hints = (
{
horizontal = 1;
place = "{772, 50}";
type = Stem;
},
{
horizontal = 1;
place = "{1070, 50}";
type = Stem;
},
{
place = "{293, 56}";
type = Stem;
},
{
place = "{1409, 56}";
type = Stem;
},
{
horizontal = 1;
place = "{0, 21}";
target = up;
type = BottomGhost;
},
{
horizontal = 1;
place = "{1650, -20}";
target = down;
type = TopGhost;
}
);
layerId = "30428d78-2e09-4e0b-978b-a63d31127a95";
paths = (
{
closed = 1;
nodes = (
"349 0 LINE",
"349 772 LINE",
"1409 772 LINE",
"1409 0 LINE",
"1465 0 LINE",
"1465 1650 LINE",
"1409 1650 LINE",
"1409 822 LINE",
"349 822 LINE",
"349 1650 LINE",
"293 1650 LINE",
"293 0 LINE"
);
},
{
closed = 1;
nodes = (
"1600 1070 LINE",
"1600 1120 LINE",
"158 1120 LINE",
"158 1070 LINE"
);
}
);
width = 1758;
}
);
unicode = 0126;
},
{
glyphname = I;
layers = (
{
anchors = (
{
name = bottom;
position = "{416, 0}";
},
{
name = ogonek;
position = "{636, 0}";
},
{
name = top;
position = "{416, 1650}";
}
);
hints = (
{
place = "{196, 440}";
type = Stem;
},
{
horizontal = 1;
place = "{0, 21}";
target = up;
type = BottomGhost;
},
{
horizontal = 1;
place = "{1650, -20}";
target = down;
type = TopGhost;
}
);
layerId = "6b09ce2e-afcf-4aca-aac2-7dbc8e1b58f4";
paths = (
{
closed = 1;
nodes = (
"636 0 LINE",
"636 1650 LINE",
"196 1650 LINE",
"196 0 LINE"
);
}
);
width = 832;
},
{
anchors = (
{
name = bottom;
position = "{400, 0}";
},
{
name = ogonek;
position = "{588, 0}";
},
{
name = top;
position = "{400, 1650}";
}
);
hints = (
{
place = "{212, 376}";
type = Stem;
},
{
horizontal = 1;
place = "{0, 21}";
target = up;
type = BottomGhost;
},
{
horizontal = 1;
place = "{1650, -20}";
target = down;
type = TopGhost;
}
);
layerId = "165b9972-5639-46b0-8551-47f8199b5798";
paths = (
{
closed = 1;
nodes = (
"588 0 LINE",
"588 1650 LINE",
"212 1650 LINE",
"212 0 LINE"
);
}
);
width = 800;
},
{
anchors = (
{
name = bottom;
position = "{383, 0}";
},
{
name = ogonek;
position = "{537, 0}";
},
{
name = top;
position = "{383, 1650}";
}
);
hints = (
{
place = "{229, 308}";
type = Stem;
},
{
horizontal = 1;
place = "{0, 21}";
target = up;
type = BottomGhost;
},
{
horizontal = 1;
place = "{1650, -20}";
target = down;
type = TopGhost;
}
);
layerId = "88dbb4cf-2a0e-4722-85a3-f94739c801e9";
paths = (
{
closed = 1;
nodes = (
"537 0 LINE",
"537 1650 LINE",
"229 1650 LINE",
"229 0 LINE"
);
}
);
width = 766;
},
{
anchors = (
{
name = bottom;
position = "{369, 0}";
},
{
name = ogonek;
position = "{494, 0}";
},
{
name = top;
position = "{369, 1650}";
}
);
hints = (
{
place = "{244, 250}";
type = Stem;
},
{
horizontal = 1;
place = "{0, 21}";
target = up;
type = BottomGhost;
},
{
horizontal = 1;
place = "{1650, -20}";
target = down;
type = TopGhost;
}
);
layerId = "e8d1f046-7750-4839-b2c6-57e680534bd5";
paths = (
{
closed = 1;
nodes = (
"494 0 LINE",
"494 1650 LINE",
"244 1650 LINE",
"244 0 LINE"
);
}
);
width = 737;
},
{
anchors = (
{
name = bottom;
position = "{357, 0}";
},
{
name = ogonek;
position = "{459, 0}";
},
{
name = top;
position = "{357, 1650}";
}
);
hints = (
{
place = "{255, 204}";
type = Stem;
},
{
horizontal = 1;
place = "{0, 21}";
target = up;
type = BottomGhost;
},
{
horizontal = 1;
place = "{1650, -20}";
target = down;
type = TopGhost;
}
);
layerId = "3e2ba9c9-8461-4c64-8143-df88a38fbe08";
paths = (
{
closed = 1;
nodes = (
"459 0 LINE",
"459 1650 LINE",
"255 1650 LINE",
"255 0 LINE"
);
}
);
width = 714;
},
{
anchors = (
{
name = bottom;
position = "{343, 0}";
},
{
name = ogonek;
position = "{416, 0}";
},
{
name = top;
position = "{343, 1650}";
}
);
hints = (
{
place = "{270, 146}";
type = Stem;
},
{
horizontal = 1;
place = "{0, 21}";
target = up;
type = BottomGhost;
},
{
horizontal = 1;
place = "{1650, -20}";
target = down;
type = TopGhost;
}
);
layerId = "e702a883-bc41-413c-af83-57815b8e3e41";
paths = (
{
closed = 1;
nodes = (
"416 0 LINE",
"416 1650 LINE",
"270 1650 LINE",
"270 0 LINE"
);
}
);
width = 686;
},
{
anchors = (
{
name = bottom;
position = "{333, 0}";
},
{
name = ogonek;
position = "{386, 0}";
},
{
name = top;
position = "{333, 1650}";
}
);
hints = (
{
place = "{280, 106}";
type = Stem;
},
{
horizontal = 1;
place = "{0, 21}";
target = up;
type = BottomGhost;
},
{
horizontal = 1;
place = "{1650, -20}";
target = down;
type = TopGhost;
}
);
layerId = "89499a33-ee22-4529-a629-c9afa075ab0d";
paths = (
{
closed = 1;
nodes = (
"386 0 LINE",
"386 1650 LINE",
"280 1650 LINE",
"280 0 LINE"
);
}
);
width = 667;
},
{
anchors = (
{
name = bottom;
position = "{326, 0}";
},
{
name = ogonek;
position = "{364, 0}";
},
{
name = top;
position = "{326, 1650}";
}
);
hints = (
{
place = "{288, 76}";
type = Stem;
},
{
horizontal = 1;
place = "{0, 21}";
target = up;
type = BottomGhost;
},
{
horizontal = 1;
place = "{1650, -20}";
target = down;
type = TopGhost;
}
);
layerId = "7b9d160b-1bc8-4aa8-aa2c-85d968a9ba41";
paths = (
{
closed = 1;
nodes = (
"364 0 LINE",
"364 1650 LINE",
"288 1650 LINE",
"288 0 LINE"
);
}
);
width = 652;
},
{
anchors = (
{
name = bottom;
position = "{321, 0}";
},
{
name = ogonek;
position = "{349, 0}";
},
{
name = top;
position = "{321, 1650}";
}
);
hints = (
{
place = "{293, 56}";
type = Stem;
},
{
horizontal = 1;
place = "{0, 21}";
target = up;
type = BottomGhost;
},
{
horizontal = 1;
place = "{1650, -20}";
target = down;
type = TopGhost;
}
);
layerId = "30428d78-2e09-4e0b-978b-a63d31127a95";
paths = (
{
closed = 1;
nodes = (
"349 0 LINE",
"349 1650 LINE",
"293 1650 LINE",
"293 0 LINE"
);
}
);
width = 642;
}
);
unicode = 0049;
},
{
glyphname = J;
layers = (
{
anchors = (
{
name = bottom;
position = "{422, -32}";
},
{
name = top;
position = "{699, 1650}";
}
);
layerId = "6b09ce2e-afcf-4aca-aac2-7dbc8e1b58f4";
paths = (
{
closed = 1;
nodes = (
"722 -32 OFFCURVE",
"908 148 OFFCURVE",
"908 464 CURVE SMOOTH",
"908 1650 LINE",
"468 1650 LINE",
"468 574 LINE SMOOTH",
"468 462 OFFCURVE",
"417 390 OFFCURVE",
"338 390 CURVE SMOOTH",
"293 390 OFFCURVE",
"230 413 OFFCURVE",
"170 472 CURVE",
"-70 208 LINE",
"71 41 OFFCURVE",
"218 -32 OFFCURVE",
"415 -32 CURVE SMOOTH"
);
}
);
width = 1085;
},
{
anchors = (
{
name = bottom;
position = "{447, -26}";
},
{
name = top;
position = "{690, 1650}";
}
);
layerId = "165b9972-5639-46b0-8551-47f8199b5798";
paths = (
{
closed = 1;
nodes = (
"747 -32 OFFCURVE",
"933 148 OFFCURVE",
"933 464 CURVE SMOOTH",
"933 1650 LINE",
"557 1650 LINE",
"557 559 LINE SMOOTH",
"557 416 OFFCURVE",
"489 328 OFFCURVE",
"377 328 CURVE SMOOTH",
"317 328 OFFCURVE",
"246 355 OFFCURVE",
"180 421 CURVE",
"-26 193 LINE",
"110 37 OFFCURVE",
"251 -32 OFFCURVE",
"440 -32 CURVE SMOOTH"
);
}
);
width = 1127;
},
{
anchors = (
{
name = bottom;
position = "{473, -20}";
},
{
name = top;
position = "{681, 1650}";
}
);
layerId = "88dbb4cf-2a0e-4722-85a3-f94739c801e9";
paths = (
{
closed = 1;
nodes = (
"775 -32 OFFCURVE",
"960 149 OFFCURVE",
"960 464 CURVE SMOOTH",
"960 1650 LINE",
"652 1650 LINE",
"652 544 LINE SMOOTH",
"652 368 OFFCURVE",
"565 263 OFFCURVE",
"418 263 CURVE SMOOTH",
"342 263 OFFCURVE",
"263 294 OFFCURVE",
"191 367 CURVE",
"22 178 LINE",
"151 32 OFFCURVE",
"287 -32 OFFCURVE",
"467 -32 CURVE SMOOTH"
);
}
);
width = 1171;
},
{
anchors = (
{
name = bottom;
position = "{496, -16}";
},
{
name = top;
position = "{673, 1650}";
}
);
layerId = "e8d1f046-7750-4839-b2c6-57e680534bd5";
paths = (
{
closed = 1;
nodes = (
"799 -32 OFFCURVE",
"983 150 OFFCURVE",
"983 464 CURVE SMOOTH",
"983 1650 LINE",
"733 1650 LINE",
"733 531 LINE SMOOTH",
"733 327 OFFCURVE",
"630 207 OFFCURVE",
"454 207 CURVE SMOOTH",
"363 207 OFFCURVE",
"277 242 OFFCURVE",
"200 321 CURVE",
"62 164 LINE",
"186 28 OFFCURVE",
"318 -32 OFFCURVE",
"490 -32 CURVE SMOOTH"
);
}
);
width = 1209;
},
{
anchors = (
{
name = bottom;
position = "{515, -12}";
},
{
name = top;
position = "{668, 1650}";
}
);
layerId = "3e2ba9c9-8461-4c64-8143-df88a38fbe08";
paths = (
{
closed = 1;
nodes = (
"817 -32 OFFCURVE",
"1001 151 OFFCURVE",
"1001 464 CURVE SMOOTH",
"1001 1650 LINE",
"797 1650 LINE",
"797 521 LINE SMOOTH",
"797 295 OFFCURVE",
"681 163 OFFCURVE",
"482 163 CURVE SMOOTH",
"380 163 OFFCURVE",
"288 201 OFFCURVE",
"207 285 CURVE",
"94 154 LINE",
"214 25 OFFCURVE",
"342 -32 OFFCURVE",
"508 -32 CURVE SMOOTH"
);
}
);
width = 1239;
},
{
anchors = (
{
name = bottom;
position = "{537, -7}";
},
{
name = top;
position = "{659, 1650}";
}
);
layerId = "e702a883-bc41-413c-af83-57815b8e3e41";
paths = (
{
closed = 1;
nodes = (
"840 -32 OFFCURVE",
"1023 152 OFFCURVE",
"1023 464 CURVE SMOOTH",
"1023 1650 LINE",
"877 1650 LINE",
"877 508 LINE SMOOTH",
"877 254 OFFCURVE",
"745 107 OFFCURVE",
"517 107 CURVE SMOOTH",
"401 107 OFFCURVE",
"301 149 OFFCURVE",
"216 239 CURVE",
"134 141 LINE",
"248 21 OFFCURVE",
"371 -32 OFFCURVE",
"531 -32 CURVE SMOOTH"
);
}
);
width = 1277;
},
{
anchors = (
{
name = bottom;
position = "{553, -4}";
},
{
name = top;
position = "{654, 1650}";
}
);
layerId = "89499a33-ee22-4529-a629-c9afa075ab0d";
paths = (
{
closed = 1;
nodes = (
"856 -32 OFFCURVE",
"1039 152 OFFCURVE",
"1039 464 CURVE SMOOTH",
"1039 1650 LINE",
"933 1650 LINE",
"933 499 LINE SMOOTH",
"933 225 OFFCURVE",
"790 68 OFFCURVE",
"542 68 CURVE SMOOTH",
"416 68 OFFCURVE",
"311 113 OFFCURVE",
"223 207 CURVE",
"162 131 LINE",
"273 18 OFFCURVE",
"392 -32 OFFCURVE",
"547 -32 CURVE SMOOTH"
);
}
);
width = 1303;
},
{
anchors = (
{
name = bottom;
position = "{565, -2}";
},
{
name = top;
position = "{651, 1650}";
}
);
layerId = "7b9d160b-1bc8-4aa8-aa2c-85d968a9ba41";
paths = (
{
closed = 1;
nodes = (
"868 -32 OFFCURVE",
"1051 152 OFFCURVE",
"1051 464 CURVE SMOOTH",
"1051 1650 LINE",
"975 1650 LINE",
"975 492 LINE SMOOTH",
"975 204 OFFCURVE",
"824 39 OFFCURVE",
"561 39 CURVE SMOOTH",
"427 39 OFFCURVE",
"319 86 OFFCURVE",
"228 183 CURVE",
"183 124 LINE",
"292 16 OFFCURVE",
"408 -32 OFFCURVE",
"559 -32 CURVE SMOOTH"
);
}
);
width = 1322;
},
{
anchors = (
{
name = bottom;
position = "{573, 0}";
},
{
name = top;
position = "{648, 1650}";
}
);
layerId = "30428d78-2e09-4e0b-978b-a63d31127a95";
paths = (
{
closed = 1;
nodes = (
"876 -32 OFFCURVE",
"1059 153 OFFCURVE",
"1059 464 CURVE SMOOTH",
"1059 1650 LINE",
"1003 1650 LINE",
"1003 488 LINE SMOOTH",
"1003 190 OFFCURVE",
"847 20 OFFCURVE",
"573 20 CURVE SMOOTH",
"435 20 OFFCURVE",
"324 68 OFFCURVE",
"231 167 CURVE",
"197 120 LINE",
"304 15 OFFCURVE",
"419 -32 OFFCURVE",
"567 -32 CURVE SMOOTH"
);
}
);
width = 1335;
}
);
unicode = 004A;
},
{
glyphname = K;
layers = (
{
anchors = (
{
name = bottom;
position = "{865, 0}";
},
{
name = top;
position = "{865, 1650}";
}
);
hints = (
{
place = "{196, 440}";
type = Stem;
},
{
horizontal = 1;
place = "{1650, -20}";
target = down;
type = TopGhost;
},
{
horizontal = 1;
place = "{0, 21}";
target = up;
type = BottomGhost;
}
);
layerId = "6b09ce2e-afcf-4aca-aac2-7dbc8e1b58f4";
paths = (
{
closed = 1;
nodes = (
"636 0 LINE",
"636 662 LINE",
"1188 0 LINE",
"1794 0 LINE",
"1044 872 LINE",
"1684 1650 LINE",
"1150 1650 LINE",
"636 1008 LINE",
"636 1650 LINE",
"196 1650 LINE",
"196 0 LINE"
);
}
);
width = 1740;
},
{
anchors = (
{
name = bottom;
position = "{842, 0}";
},
{
name = top;
position = "{842, 1650}";
}
);
hints = (
{
place = "{212, 376}";
type = Stem;
},
{
horizontal = 1;
place = "{1650, -20}";
target = down;
type = TopGhost;
},
{
horizontal = 1;
place = "{0, 21}";
target = up;
type = BottomGhost;
}
);
layerId = "165b9972-5639-46b0-8551-47f8199b5798";
paths = (
{
closed = 1;
nodes = (
"588 0 LINE",
"588 681 LINE",
"1196 0 LINE",
"1714 0 LINE",
"934 863 LINE",
"1610 1650 LINE",
"1152 1650 LINE",
"588 983 LINE",
"588 1650 LINE",
"212 1650 LINE",
"212 0 LINE"
);
}
);
width = 1688;
},
{
anchors = (
{
name = bottom;
position = "{818, 0}";
},
{
name = top;
position = "{818, 1650}";
}
);
hints = (
{
place = "{229, 308}";
type = Stem;
},
{
horizontal = 1;
place = "{1650, -20}";
target = down;
type = TopGhost;
},
{
horizontal = 1;
place = "{0, 21}";
target = up;
type = BottomGhost;
}
);
layerId = "88dbb4cf-2a0e-4722-85a3-f94739c801e9";
paths = (
{
closed = 1;
nodes = (
"537 0 LINE",
"537 702 LINE",
"1204 0 LINE",
"1630 0 LINE",
"818 854 LINE",
"1532 1650 LINE",
"1155 1650 LINE",
"537 956 LINE",
"537 1650 LINE",
"229 1650 LINE",
"229 0 LINE"
);
}
);
width = 1633;
},
{
anchors = (
{
name = bottom;
position = "{797, 0}";
},
{
name = top;
position = "{798, 1650}";
}
);
hints = (
{
place = "{244, 250}";
type = Stem;
},
{
horizontal = 1;
place = "{1650, -20}";
target = down;
type = TopGhost;
},
{
horizontal = 1;
place = "{0, 21}";
target = up;
type = BottomGhost;
}
);
layerId = "e8d1f046-7750-4839-b2c6-57e680534bd5";
paths = (
{
closed = 1;
nodes = (
"494 0 LINE",
"494 719 LINE",
"1211 0 LINE",
"1558 0 LINE",
"719 846 LINE",
"1466 1650 LINE",
"1157 1650 LINE",
"494 933 LINE",
"494 1650 LINE",
"244 1650 LINE",
"244 0 LINE"
);
}
);
width = 1586;
},
{
anchors = (
{
name = bottom;
position = "{781, 0}";
},
{
name = top;
position = "{782, 1650}";
}
);
hints = (
{
place = "{256, 204}";
type = Stem;
},
{
horizontal = 1;
place = "{1650, -20}";
target = down;
type = TopGhost;
},
{
horizontal = 1;
place = "{0, 21}";
target = up;
type = BottomGhost;
}
);
layerId = "3e2ba9c9-8461-4c64-8143-df88a38fbe08";
paths = (
{
closed = 1;
nodes = (
"460 0 LINE",
"460 733 LINE",
"1217 0 LINE",
"1501 0 LINE",
"641 840 LINE",
"1413 1650 LINE",
"1159 1650 LINE",
"460 915 LINE",
"460 1650 LINE",
"256 1650 LINE",
"256 0 LINE"
);
}
);
width = 1549;
},
{
anchors = (
{
name = bottom;
position = "{761, 0}";
},
{
name = top;
position = "{761, 1650}";
}
);
hints = (
{
place = "{271, 146}";
type = Stem;
},
{
horizontal = 1;
place = "{1650, -20}";
target = down;
type = TopGhost;
},
{
horizontal = 1;
place = "{0, 21}";
target = up;
type = BottomGhost;
}
);
layerId = "e702a883-bc41-413c-af83-57815b8e3e41";
paths = (
{
closed = 1;
nodes = (
"417 0 LINE",
"417 751 LINE",
"1225 0 LINE",
"1430 0 LINE",
"543 832 LINE",
"1347 1650 LINE",
"1162 1650 LINE",
"417 892 LINE",
"417 1650 LINE",
"271 1650 LINE",
"271 0 LINE"
);
}
);
width = 1502;
},
{
anchors = (
{
name = bottom;
position = "{747, 0}";
},
{
name = top;
position = "{748, 1650}";
}
);
hints = (
{
place = "{281, 106}";
type = Stem;
},
{
horizontal = 1;
place = "{1650, -20}";
target = down;
type = TopGhost;
},
{
horizontal = 1;
place = "{0, 21}";
target = up;
type = BottomGhost;
}
);
layerId = "89499a33-ee22-4529-a629-c9afa075ab0d";
paths = (
{
closed = 1;
nodes = (
"387 0 LINE",
"387 763 LINE",
"1230 0 LINE",
"1381 0 LINE",
"475 827 LINE",
"1301 1650 LINE",
"1163 1650 LINE",
"387 876 LINE",
"387 1650 LINE",
"281 1650 LINE",
"281 0 LINE"
);
}
);
width = 1469;
},
{
anchors = (
{
name = bottom;
position = "{738, 0}";
},
{
name = top;
position = "{738, 1650}";
}
);
hints = (
{
place = "{288, 76}";
type = Stem;
},
{
horizontal = 1;
place = "{1650, -20}";
target = down;
type = TopGhost;
},
{
horizontal = 1;
place = "{0, 21}";
target = up;
type = BottomGhost;
}
);
layerId = "7b9d160b-1bc8-4aa8-aa2c-85d968a9ba41";
paths = (
{
closed = 1;
nodes = (
"364 0 LINE",
"364 772 LINE",
"1233 0 LINE",
"1343 0 LINE",
"423 823 LINE",
"1266 1650 LINE",
"1164 1650 LINE",
"364 864 LINE",
"364 1650 LINE",
"288 1650 LINE",
"288 0 LINE"
);
}
);
width = 1445;
},
{
anchors = (
{
name = bottom;
position = "{731, 0}";
},
{
name = top;
position = "{731, 1650}";
}
);
hints = (
{
place = "{293, 56}";
type = Stem;
},
{
horizontal = 1;
place = "{1650, -20}";
target = down;
type = TopGhost;
},
{
horizontal = 1;
place = "{0, 21}";
target = up;
type = BottomGhost;
}
);
layerId = "30428d78-2e09-4e0b-978b-a63d31127a95";
paths = (
{
closed = 1;
nodes = (
"349 0 LINE",
"349 778 LINE",
"1235 0 LINE",
"1318 0 LINE",
"389 820 LINE",
"1243 1650 LINE",
"1165 1650 LINE",
"349 856 LINE",
"349 1650 LINE",
"293 1650 LINE",
"293 0 LINE"
);
}
);
width = 1429;
}
);
unicode = 004B;
},
{
glyphname = L;
layers = (
{
anchors = (
{
name = bottom;
position = "{722, 0}";
},
{
name = center;
position = "{579, 825}";
},
{
name = top;
position = "{591, 1650}";
},
{
name = topright;
position = "{1137, 1650}";
}
);
hints = (
{
horizontal = 1;
place = "{0, 386}";
type = Stem;
},
{
place = "{196, 440}";
type = Stem;
},
{
horizontal = 1;
place = "{1650, -20}";
target = down;
type = TopGhost;
}
);
layerId = "6b09ce2e-afcf-4aca-aac2-7dbc8e1b58f4";
paths = (
{
closed = 1;
nodes = (
"1168 0 LINE",
"1168 386 LINE",
"636 386 LINE",
"636 1650 LINE",
"196 1650 LINE",
"196 0 LINE"
);
}
);
width = 1157;
},
{
anchors = (
{
name = bottom;
position = "{705, 0}";
},
{
name = center;
position = "{586, 825}";
},
{
name = top;
position = "{593, 1650}";
},
{
name = topright;
position = "{1151, 1650}";
}
);
hints = (
{
horizontal = 1;
place = "{0, 330}";
type = Stem;
},
{
place = "{212, 376}";
type = Stem;
},
{
horizontal = 1;
place = "{1650, -20}";
target = down;
type = TopGhost;
}
);
layerId = "165b9972-5639-46b0-8551-47f8199b5798";
paths = (
{
closed = 1;
nodes = (
"1155 0 LINE",
"1155 330 LINE",
"588 330 LINE",
"588 1650 LINE",
"212 1650 LINE",
"212 0 LINE"
);
}
);
width = 1172;
},
{
anchors = (
{
name = bottom;
position = "{687, 0}";
},
{
name = center;
position = "{594, 825}";
},
{
name = top;
position = "{597, 1650}";
},
{
name = topright;
position = "{1167, 1650}";
}
);
hints = (
{
horizontal = 1;
place = "{0, 271}";
type = Stem;
},
{
place = "{229, 308}";
type = Stem;
},
{
horizontal = 1;
place = "{1650, -20}";
target = down;
type = TopGhost;
}
);
layerId = "88dbb4cf-2a0e-4722-85a3-f94739c801e9";
paths = (
{
closed = 1;
nodes = (
"1142 0 LINE",
"1142 271 LINE",
"537 271 LINE",
"537 1650 LINE",
"229 1650 LINE",
"229 0 LINE"
);
}
);
width = 1187;
},
{
anchors = (
{
name = bottom;
position = "{673, 0}";
},
{
name = center;
position = "{601, 825}";
},
{
name = top;
position = "{600, 1650}";
},
{
name = topright;
position = "{1180, 1650}";
}
);
hints = (
{
horizontal = 1;
place = "{0, 220}";
type = Stem;
},
{
place = "{244, 250}";
type = Stem;
},
{
horizontal = 1;
place = "{1650, -20}";
target = down;
type = TopGhost;
}
);
layerId = "e8d1f046-7750-4839-b2c6-57e680534bd5";
paths = (
{
closed = 1;
nodes = (
"1131 0 LINE",
"1131 220 LINE",
"494 220 LINE",
"494 1650 LINE",
"244 1650 LINE",
"244 0 LINE"
);
}
);
width = 1200;
},
{
anchors = (
{
name = bottom;
position = "{661, 0}";
},
{
name = center;
position = "{606, 825}";
},
{
name = top;
position = "{602, 1650}";
},
{
name = topright;
position = "{1191, 1650}";
}
);
hints = (
{
horizontal = 1;
place = "{0, 180}";
type = Stem;
},
{
place = "{256, 204}";
type = Stem;
},
{
horizontal = 1;
place = "{1650, -20}";
target = down;
type = TopGhost;
}
);
layerId = "3e2ba9c9-8461-4c64-8143-df88a38fbe08";
paths = (
{
closed = 1;
nodes = (
"1122 0 LINE",
"1122 180 LINE",
"460 180 LINE",
"460 1650 LINE",
"256 1650 LINE",
"256 0 LINE"
);
}
);
width = 1211;
},
{
anchors = (
{
name = bottom;
position = "{646, 0}";
},
{
name = center;
position = "{612, 825}";
},
{
name = top;
position = "{578, 1650}";
},
{
name = topright;
position = "{1204, 1650}";
}
);
hints = (
{
horizontal = 1;
place = "{0, 129}";
type = Stem;
},
{
place = "{271, 146}";
type = Stem;
},
{
horizontal = 1;
place = "{1650, -20}";
target = down;
type = TopGhost;
}
);
layerId = "e702a883-bc41-413c-af83-57815b8e3e41";
paths = (
{
closed = 1;
nodes = (
"1111 0 LINE",
"1111 129 LINE",
"417 129 LINE",
"417 1650 LINE",
"271 1650 LINE",
"271 0 LINE"
);
}
);
width = 1224;
},
{
anchors = (
{
name = bottom;
position = "{636, 0}";
},
{
name = center;
position = "{617, 825}";
},
{
name = top;
position = "{562, 1650}";
},
{
name = topright;
position = "{1213, 1650}";
}
);
hints = (
{
horizontal = 1;
place = "{0, 94}";
type = Stem;
},
{
place = "{281, 106}";
type = Stem;
},
{
horizontal = 1;
place = "{1650, -20}";
target = down;
type = TopGhost;
}
);
layerId = "89499a33-ee22-4529-a629-c9afa075ab0d";
paths = (
{
closed = 1;
nodes = (
"1103 0 LINE",
"1103 94 LINE",
"387 94 LINE",
"387 1650 LINE",
"281 1650 LINE",
"281 0 LINE"
);
}
);
width = 1233;
},
{
anchors = (
{
name = bottom;
position = "{628, 0}";
},
{
name = center;
position = "{621, 825}";
},
{
name = top;
position = "{551, 1650}";
},
{
name = topright;
position = "{1220, 1650}";
}
);
hints = (
{
horizontal = 1;
place = "{0, 68}";
type = Stem;
},
{
place = "{288, 76}";
type = Stem;
},
{
horizontal = 1;
place = "{1650, -20}";
target = down;
type = TopGhost;
}
);
layerId = "7b9d160b-1bc8-4aa8-aa2c-85d968a9ba41";
paths = (
{
closed = 1;
nodes = (
"1097 0 LINE",
"1097 68 LINE",
"364 68 LINE",
"364 1650 LINE",
"288 1650 LINE",
"288 0 LINE"
);
}
);
width = 1240;
},
{
anchors = (
{
name = bottom;
position = "{623, 0}";
},
{
name = center;
position = "{623, 825}";
},
{
name = top;
position = "{543, 1650}";
},
{
name = topright;
position = "{1225, 1650}";
}
);
hints = (
{
horizontal = 1;
place = "{0, 50}";
type = Stem;
},
{
place = "{293, 56}";
type = Stem;
},
{
horizontal = 1;
place = "{1650, -20}";
target = down;
type = TopGhost;
}
);
layerId = "30428d78-2e09-4e0b-978b-a63d31127a95";
paths = (
{
closed = 1;
nodes = (
"1093 0 LINE",
"1093 50 LINE",
"349 50 LINE",
"349 1650 LINE",
"293 1650 LINE",
"293 0 LINE"
);
}
);
width = 1245;
}
);
unicode = 004C;
},
{
glyphname = Lslash;
layers = (
{
components = (
{
name = L;
transform = "{1, 0, 0, 1, 45, 0}";
alignment = -1;
}
);
layerId = "6b09ce2e-afcf-4aca-aac2-7dbc8e1b58f4";
paths = (
{
closed = 1;
nodes = (
"889 1104 LINE",
"889 1462 LINE",
"93 836 LINE",
"93 478 LINE"
);
}
);
width = 1202;
},
{
components = (
{
name = L;
transform = "{1, 0, 0, 1, 43, 0}";
alignment = -1;
}
);
layerId = "165b9972-5639-46b0-8551-47f8199b5798";
paths = (
{
closed = 1;
nodes = (
"841 1079 LINE",
"841 1385 LINE",
"104 806 LINE",
"104 500 LINE"
);
}
);
width = 1214;
},
{
components = (
{
name = L;
transform = "{1, 0, 0, 1, 41, 0}";
alignment = -1;
}
);
layerId = "88dbb4cf-2a0e-4722-85a3-f94739c801e9";
paths = (
{
closed = 1;
nodes = (
"789 1053 LINE",
"789 1304 LINE",
"115 774 LINE",
"115 523 LINE"
);
}
);
width = 1227;
},
{
components = (
{
name = L;
transform = "{1, 0, 0, 1, 39, 0}";
alignment = -1;
}
);
layerId = "e8d1f046-7750-4839-b2c6-57e680534bd5";
paths = (
{
closed = 1;
nodes = (
"745 1031 LINE",
"745 1234 LINE",
"125 747 LINE",
"125 543 LINE"
);
}
);
width = 1238;
},
{
components = (
{
name = L;
transform = "{1, 0, 0, 1, 37, 0}";
alignment = -1;
}
);
layerId = "3e2ba9c9-8461-4c64-8143-df88a38fbe08";
paths = (
{
closed = 1;
nodes = (
"710 1013 LINE",
"710 1179 LINE",
"133 725 LINE",
"133 559 LINE"
);
}
);
width = 1247;
},
{
components = (
{
name = L;
transform = "{1, 0, 0, 1, 35, 0}";
alignment = -1;
}
);
layerId = "e702a883-bc41-413c-af83-57815b8e3e41";
paths = (
{
closed = 1;
nodes = (
"666 991 LINE",
"666 1110 LINE",
"143 698 LINE",
"143 579 LINE"
);
}
);
width = 1258;
},
{
components = (
{
name = L;
transform = "{1, 0, 0, 1, 34, 0}";
alignment = -1;
}
);
layerId = "89499a33-ee22-4529-a629-c9afa075ab0d";
paths = (
{
closed = 1;
nodes = (
"636 975 LINE",
"636 1062 LINE",
"150 679 LINE",
"150 593 LINE"
);
}
);
width = 1266;
},
{
components = (
{
name = L;
transform = "{1, 0, 0, 1, 34, 0}";
alignment = -1;
}
);
layerId = "7b9d160b-1bc8-4aa8-aa2c-85d968a9ba41";
paths = (
{
closed = 1;
nodes = (
"613 964 LINE",
"613 1026 LINE",
"155 665 LINE",
"155 603 LINE"
);
}
);
width = 1272;
},
{
components = (
{
name = L;
transform = "{1, 0, 0, 1, 33, 0}";
alignment = -1;
}
);
layerId = "30428d78-2e09-4e0b-978b-a63d31127a95";
paths = (
{
closed = 1;
nodes = (
"598 956 LINE",
"598 1002 LINE",
"158 656 LINE",
"158 610 LINE"
);
}
);
width = 1276;
}
);
unicode = 0141;
},
{
glyphname = M;
layers = (
{
anchors = (
{
name = bottom;
position = "{1061, 0}";
},
{
name = top;
position = "{1061, 1650}";
}
);
hints = (
{
horizontal = 1;
place = "{0, 21}";
target = up;
type = BottomGhost;
},
{
horizontal = 1;
place = "{1650, -20}";
target = down;
type = TopGhost;
}
);
layerId = "6b09ce2e-afcf-4aca-aac2-7dbc8e1b58f4";
paths = (
{
closed = 1;
nodes = (
"571 0 LINE",
"619 866 LINE",
"931 0 LINE",
"1191 0 LINE",
"1503 866 LINE",
"1551 0 LINE",
"1991 0 LINE",
"1861 1650 LINE",
"1393 1650 LINE",
"1061 794 LINE",
"729 1650 LINE",
"261 1650 LINE",
"131 0 LINE"
);
}
);
width = 2122;
},
{
anchors = (
{
name = bottom;
position = "{1055, 22}";
},
{
name = top;
position = "{1055, 1650}";
}
);
hints = (
{
horizontal = 1;
place = "{0, 21}";
target = up;
type = BottomGhost;
},
{
horizontal = 1;
place = "{1650, -20}";
target = down;
type = TopGhost;
}
);
layerId = "165b9972-5639-46b0-8551-47f8199b5798";
paths = (
{
closed = 1;
nodes = (
"516 0 LINE",
"594 978 LINE",
"942 22 LINE",
"1168 22 LINE",
"1516 978 LINE",
"1594 0 LINE",
"1970 0 LINE",
"1821 1650 LINE",
"1421 1650 LINE",
"1055 698 LINE",
"689 1650 LINE",
"289 1650 LINE",
"140 0 LINE"
);
}
);
width = 2110;
},
{
anchors = (
{
name = bottom;
position = "{1048, 46}";
},
{
name = top;
position = "{1048, 1650}";
}
);
hints = (
{
horizontal = 1;
place = "{0, 21}";
target = up;
type = BottomGhost;
},
{
horizontal = 1;
place = "{1650, -20}";
target = down;
type = TopGhost;
}
);
layerId = "88dbb4cf-2a0e-4722-85a3-f94739c801e9";
paths = (
{
closed = 1;
nodes = (
"458 0 LINE",
"568 1096 LINE",
"953 46 LINE",
"1144 46 LINE",
"1529 1096 LINE",
"1639 0 LINE",
"1947 0 LINE",
"1779 1650 LINE",
"1451 1650 LINE",
"1048 595 LINE",
"647 1650 LINE",
"319 1650 LINE",
"150 0 LINE"
);
}
);
width = 2098;
},
{
anchors = (
{
name = bottom;
position = "{1043, 66}";
},
{
name = top;
position = "{1043, 1650}";
}
);
hints = (
{
horizontal = 1;
place = "{0, 21}";
target = up;
type = BottomGhost;
},
{
horizontal = 1;
place = "{1650, -20}";
target = down;
type = TopGhost;
}
);
layerId = "e8d1f046-7750-4839-b2c6-57e680534bd5";
paths = (
{
closed = 1;
nodes = (
"409 0 LINE",
"546 1197 LINE",
"963 66 LINE",
"1124 66 LINE",
"1541 1197 LINE",
"1678 0 LINE",
"1928 0 LINE",
"1743 1650 LINE",
"1476 1650 LINE",
"1043 507 LINE",
"611 1650 LINE",
"344 1650 LINE",
"159 0 LINE"
);
}
);
width = 2087;
},
{
anchors = (
{
name = bottom;
position = "{1039, 82}";
},
{
name = top;
position = "{1039, 1650}";
}
);
hints = (
{
horizontal = 1;
place = "{0, 21}";
target = up;
type = BottomGhost;
},
{
horizontal = 1;
place = "{1650, -20}";
target = down;
type = TopGhost;
}
);
layerId = "3e2ba9c9-8461-4c64-8143-df88a38fbe08";
paths = (
{
closed = 1;
nodes = (
"370 0 LINE",
"528 1277 LINE",
"971 82 LINE",
"1108 82 LINE",
"1550 1277 LINE",
"1709 0 LINE",
"1913 0 LINE",
"1714 1650 LINE",
"1496 1650 LINE",
"1039 438 LINE",
"582 1650 LINE",
"364 1650 LINE",
"166 0 LINE"
);
}
);
width = 2079;
},
{
anchors = (
{
name = bottom;
position = "{1034, 102}";
},
{
name = top;
position = "{1034, 1650}";
}
);
hints = (
{
horizontal = 1;
place = "{0, 21}";
target = up;
type = BottomGhost;
},
{
horizontal = 1;
place = "{1650, -20}";
target = down;
type = TopGhost;
}
);
layerId = "e702a883-bc41-413c-af83-57815b8e3e41";
paths = (
{
closed = 1;
nodes = (
"321 0 LINE",
"506 1378 LINE",
"981 102 LINE",
"1088 102 LINE",
"1562 1378 LINE",
"1748 0 LINE",
"1894 0 LINE",
"1678 1650 LINE",
"1522 1650 LINE",
"1034 350 LINE",
"546 1650 LINE",
"390 1650 LINE",
"175 0 LINE"
);
}
);
width = 2069;
},
{
anchors = (
{
name = bottom;
position = "{1031, 116}";
},
{
name = top;
position = "{1031, 1650}";
}
);
hints = (
{
horizontal = 1;
place = "{0, 21}";
target = up;
type = BottomGhost;
},
{
horizontal = 1;
place = "{1650, -20}";
target = down;
type = TopGhost;
}
);
layerId = "89499a33-ee22-4529-a629-c9afa075ab0d";
paths = (
{
closed = 1;
nodes = (
"287 0 LINE",
"491 1447 LINE",
"988 116 LINE",
"1074 116 LINE",
"1571 1447 LINE",
"1775 0 LINE",
"1881 0 LINE",
"1654 1650 LINE",
"1540 1650 LINE",
"1031 289 LINE",
"522 1650 LINE",
"408 1650 LINE",
"181 0 LINE"
);
}
);
width = 2062;
},
{
anchors = (
{
name = bottom;
position = "{1029, 127}";
},
{
name = top;
position = "{1029, 1650}";
}
);
hints = (
{
horizontal = 1;
place = "{0, 21}";
type = Stem;
},
{
horizontal = 1;
place = "{1650, -20}";
target = down;
type = TopGhost;
}
);
layerId = "7b9d160b-1bc8-4aa8-aa2c-85d968a9ba41";
paths = (
{
closed = 1;
nodes = (
"262 0 LINE",
"480 1499 LINE",
"993 127 LINE",
"1065 127 LINE",
"1578 1499 LINE",
"1796 0 LINE",
"1872 0 LINE",
"1636 1650 LINE",
"1555 1650 LINE",
"1029 244 LINE",
"503 1650 LINE",
"422 1650 LINE",
"186 0 LINE"
);
}
);
width = 2058;
},
{
anchors = (
{
name = bottom;
position = "{1027, 134}";
},
{
name = top;
position = "{1027, 1650}";
}
);
hints = (
{
horizontal = 1;
place = "{0, 21}";
target = up;
type = BottomGhost;
},
{
horizontal = 1;
place = "{1650, -20}";
target = down;
type = TopGhost;
}
);
layerId = "30428d78-2e09-4e0b-978b-a63d31127a95";
paths = (
{
closed = 1;
nodes = (
"245 0 LINE",
"473 1534 LINE",
"997 134 LINE",
"1057 134 LINE",
"1581 1534 LINE",
"1809 0 LINE",
"1865 0 LINE",
"1623 1650 LINE",
"1563 1650 LINE",
"1027 214 LINE",
"491 1650 LINE",
"431 1650 LINE",
"189 0 LINE"
);
}
);
width = 2054;
}
);
unicode = 004D;
},
{
glyphname = N;
layers = (
{
anchors = (
{
name = bottom;
position = "{932, 0}";
},
{
name = top;
position = "{932, 1650}";
}
);
hints = (
{
place = "{196, 440}";
type = Stem;
},
{
place = "{1228, 440}";
type = Stem;
},
{
horizontal = 1;
place = "{0, 21}";
target = up;
type = BottomGhost;
},
{
horizontal = 1;
place = "{1650, -20}";
target = down;
type = TopGhost;
}
);
layerId = "6b09ce2e-afcf-4aca-aac2-7dbc8e1b58f4";
paths = (
{
closed = 1;
nodes = (
"636 0 LINE",
"636 920 LINE",
"1228 0 LINE",
"1668 0 LINE",
"1668 1650 LINE",
"1228 1650 LINE",
"1228 730 LINE",
"636 1650 LINE",
"196 1650 LINE",
"196 0 LINE"
);
}
);
width = 1864;
},
{
anchors = (
{
name = bottom;
position = "{917, 0}";
},
{
name = top;
position = "{917, 1650}";
}
);
hints = (
{
place = "{212, 376}";
type = Stem;
},
{
place = "{1246, 376}";
type = Stem;
},
{
horizontal = 1;
place = "{0, 21}";
target = up;
type = BottomGhost;
},
{
horizontal = 1;
place = "{1650, -20}";
target = down;
type = TopGhost;
}
);
layerId = "165b9972-5639-46b0-8551-47f8199b5798";
paths = (
{
closed = 1;
nodes = (
"588 0 LINE",
"588 1024 LINE",
"1246 0 LINE",
"1622 0 LINE",
"1622 1650 LINE",
"1246 1650 LINE",
"1246 625 LINE",
"588 1650 LINE",
"212 1650 LINE",
"212 0 LINE"
);
}
);
width = 1833;
},
{
anchors = (
{
name = bottom;
position = "{900, 0}";
},
{
name = top;
position = "{900, 1650}";
}
);
hints = (
{
place = "{229, 308}";
type = Stem;
},
{
place = "{1263, 308}";
type = Stem;
},
{
horizontal = 1;
place = "{0, 21}";
target = up;
type = BottomGhost;
},
{
horizontal = 1;
place = "{1650, -20}";
target = down;
type = TopGhost;
}
);
layerId = "88dbb4cf-2a0e-4722-85a3-f94739c801e9";
paths = (
{
closed = 1;
nodes = (
"537 0 LINE",
"537 1135 LINE",
"1263 0 LINE",
"1571 0 LINE",
"1571 1650 LINE",
"1263 1650 LINE",
"1263 514 LINE",
"537 1650 LINE",
"229 1650 LINE",
"229 0 LINE"
);
}
);
width = 1800;
},
{
anchors = (
{
name = bottom;
position = "{887, 0}";
},
{
name = top;
position = "{887, 1650}";
}
);
hints = (
{
place = "{244, 250}";
type = Stem;
},
{
place = "{1280, 250}";
type = Stem;
},
{
horizontal = 1;
place = "{0, 21}";
target = up;
type = BottomGhost;
},
{
horizontal = 1;
place = "{1650, -20}";
target = down;
type = TopGhost;
}
);
layerId = "e8d1f046-7750-4839-b2c6-57e680534bd5";
paths = (
{
closed = 1;
nodes = (
"494 0 LINE",
"494 1230 LINE",
"1280 0 LINE",
"1530 0 LINE",
"1530 1650 LINE",
"1280 1650 LINE",
"1280 419 LINE",
"494 1650 LINE",
"244 1650 LINE",
"244 0 LINE"
);
}
);
width = 1774;
},
{
anchors = (
{
name = bottom;
position = "{876, 0}";
},
{
name = top;
position = "{876, 1650}";
}
);
hints = (
{
place = "{255, 204}";
type = Stem;
},
{
place = "{1293, 204}";
type = Stem;
},
{
horizontal = 1;
place = "{0, 21}";
target = up;
type = BottomGhost;
},
{
horizontal = 1;
place = "{1650, -20}";
target = down;
type = TopGhost;
}
);
layerId = "3e2ba9c9-8461-4c64-8143-df88a38fbe08";
paths = (
{
closed = 1;
nodes = (
"459 0 LINE",
"459 1305 LINE",
"1293 0 LINE",
"1497 0 LINE",
"1497 1650 LINE",
"1293 1650 LINE",
"1293 344 LINE",
"459 1650 LINE",
"255 1650 LINE",
"255 0 LINE"
);
}
);
width = 1752;
},
{
anchors = (
{
name = bottom;
position = "{862, 0}";
},
{
name = top;
position = "{862, 1650}";
}
);
hints = (
{
place = "{270, 146}";
type = Stem;
},
{
place = "{1308, 146}";
type = Stem;
},
{
horizontal = 1;
place = "{0, 21}";
target = up;
type = BottomGhost;
},
{
horizontal = 1;
place = "{1650, -20}";
target = down;
type = TopGhost;
}
);
layerId = "e702a883-bc41-413c-af83-57815b8e3e41";
paths = (
{
closed = 1;
nodes = (
"416 0 LINE",
"416 1399 LINE",
"1308 0 LINE",
"1454 0 LINE",
"1454 1650 LINE",
"1308 1650 LINE",
"1308 249 LINE",
"416 1650 LINE",
"270 1650 LINE",
"270 0 LINE"
);
}
);
width = 1724;
},
{
anchors = (
{
name = bottom;
position = "{853, 0}";
},
{
name = top;
position = "{853, 1650}";
}
);
hints = (
{
place = "{280, 106}";
type = Stem;
},
{
place = "{1320, 106}";
type = Stem;
},
{
horizontal = 1;
place = "{0, 21}";
target = up;
type = BottomGhost;
},
{
horizontal = 1;
place = "{1650, -20}";
target = down;
type = TopGhost;
}
);
layerId = "89499a33-ee22-4529-a629-c9afa075ab0d";
paths = (
{
closed = 1;
nodes = (
"386 0 LINE",
"386 1464 LINE",
"1320 0 LINE",
"1426 0 LINE",
"1426 1650 LINE",
"1320 1650 LINE",
"1320 184 LINE",
"386 1650 LINE",
"280 1650 LINE",
"280 0 LINE"
);
}
);
width = 1705;
},
{
anchors = (
{
name = bottom;
position = "{846, 0}";
},
{
name = top;
position = "{846, 1650}";
}
);
hints = (
{
place = "{288, 76}";
type = Stem;
},
{
place = "{1328, 76}";
type = Stem;
},
{
horizontal = 1;
place = "{0, 21}";
target = up;
type = BottomGhost;
},
{
horizontal = 1;
place = "{1650, -20}";
target = down;
type = TopGhost;
}
);
layerId = "7b9d160b-1bc8-4aa8-aa2c-85d968a9ba41";
paths = (
{
closed = 1;
nodes = (
"364 0 LINE",
"364 1513 LINE",
"1328 0 LINE",
"1404 0 LINE",
"1404 1650 LINE",
"1328 1650 LINE",
"1328 135 LINE",
"364 1650 LINE",
"288 1650 LINE",
"288 0 LINE"
);
}
);
width = 1691;
},
{
anchors = (
{
name = bottom;
position = "{841, 0}";
},
{
name = top;
position = "{841, 1650}";
}
);
hints = (
{
place = "{293, 56}";
type = Stem;
},
{
place = "{1333, 56}";
type = Stem;
},
{
horizontal = 1;
place = "{0, 21}";
target = up;
type = BottomGhost;
},
{
horizontal = 1;
place = "{1650, -20}";
target = down;
type = TopGhost;
}
);
layerId = "30428d78-2e09-4e0b-978b-a63d31127a95";
paths = (
{
closed = 1;
nodes = (
"349 0 LINE",
"349 1546 LINE",
"1333 0 LINE",
"1389 0 LINE",
"1389 1650 LINE",
"1333 1650 LINE",
"1333 102 LINE",
"349 1650 LINE",
"293 1650 LINE",
"293 0 LINE"
);
}
);
width = 1682;
}
);
unicode = 004E;
},
{
glyphname = Eng;
leftMetricsKey = N;
rightMetricsKey = J;
layers = (
{
layerId = "6b09ce2e-afcf-4aca-aac2-7dbc8e1b58f4";
paths = (
{
closed = 1;
nodes = (
"196 1650 LINE",
"196 0 LINE",
"636 0 LINE",
"636 920 LINE",
"1228 0 LINE",
"1228 -1 LINE",
"1228 -57 OFFCURVE",
"1177 -129 OFFCURVE",
"1098 -129 CURVE SMOOTH",
"1053 -129 OFFCURVE",
"990 -106 OFFCURVE",
"930 -47 CURVE",
"690 -311 LINE",
"831 -478 OFFCURVE",
"978 -551 OFFCURVE",
"1175 -551 CURVE SMOOTH",
"1482 -551 OFFCURVE",
"1668 -371 OFFCURVE",
"1668 -55 CURVE SMOOTH",
"1668 1650 LINE",
"1228 1650 LINE",
"1228 730 LINE",
"636 1650 LINE"
);
}
);
width = 1845;
},
{
layerId = "165b9972-5639-46b0-8551-47f8199b5798";
paths = (
{
closed = 1;
nodes = (
"212 1650 LINE",
"212 0 LINE",
"588 0 LINE",
"588 1024 LINE",
"1246 0 LINE",
"1246 -6 LINE SMOOTH",
"1246 -101 OFFCURVE",
"1179 -191 OFFCURVE",
"1066 -191 CURVE SMOOTH",
"1007 -191 OFFCURVE",
"935 -165 OFFCURVE",
"869 -98 CURVE",
"663 -326 LINE",
"798 -483 OFFCURVE",
"939 -551 OFFCURVE",
"1129 -551 CURVE SMOOTH",
"1436 -551 OFFCURVE",
"1622 -371 OFFCURVE",
"1622 -55 CURVE SMOOTH",
"1622 1650 LINE",
"1246 1650 LINE",
"1246 625 LINE",
"588 1650 LINE"
);
}
);
width = 1816;
},
{
layerId = "88dbb4cf-2a0e-4722-85a3-f94739c801e9";
paths = (
{
closed = 1;
nodes = (
"229 1650 LINE",
"229 0 LINE",
"537 0 LINE",
"537 1135 LINE",
"1264 0 LINE",
"1264 -11 LINE SMOOTH",
"1264 -148 OFFCURVE",
"1179 -256 OFFCURVE",
"1030 -256 CURVE SMOOTH",
"957 -256 OFFCURVE",
"876 -227 OFFCURVE",
"803 -152 CURVE",
"633 -341 LINE",
"761 -488 OFFCURVE",
"896 -551 OFFCURVE",
"1079 -551 CURVE SMOOTH",
"1387 -551 OFFCURVE",
"1572 -370 OFFCURVE",
"1572 -55 CURVE SMOOTH",
"1572 1650 LINE",
"1264 1650 LINE",
"1264 514 LINE",
"537 1650 LINE"
);
}
);
width = 1783;
},
{
layerId = "e8d1f046-7750-4839-b2c6-57e680534bd5";
paths = (
{
closed = 1;
nodes = (
"244 1650 LINE",
"244 0 LINE",
"494 0 LINE",
"494 1230 LINE",
"1280 0 LINE",
"1280 -15 LINE SMOOTH",
"1280 -188 OFFCURVE",
"1180 -312 OFFCURVE",
"1001 -312 CURVE SMOOTH",
"915 -312 OFFCURVE",
"826 -280 OFFCURVE",
"747 -198 CURVE",
"609 -354 LINE",
"731 -492 OFFCURVE",
"861 -551 OFFCURVE",
"1037 -551 CURVE SMOOTH",
"1345 -551 OFFCURVE",
"1530 -369 OFFCURVE",
"1530 -55 CURVE SMOOTH",
"1530 1650 LINE",
"1280 1650 LINE",
"1280 419 LINE",
"494 1650 LINE"
);
}
);
width = 1756;
},
{
layerId = "3e2ba9c9-8461-4c64-8143-df88a38fbe08";
paths = (
{
closed = 1;
nodes = (
"255 1650 LINE",
"255 0 LINE",
"459 0 LINE",
"459 1305 LINE",
"1292 0 LINE",
"1292 -19 LINE SMOOTH",
"1292 -220 OFFCURVE",
"1180 -356 OFFCURVE",
"977 -356 CURVE SMOOTH",
"881 -356 OFFCURVE",
"786 -322 OFFCURVE",
"702 -234 CURVE",
"589 -365 LINE",
"706 -495 OFFCURVE",
"832 -551 OFFCURVE",
"1003 -551 CURVE SMOOTH",
"1311 -551 OFFCURVE",
"1496 -368 OFFCURVE",
"1496 -55 CURVE SMOOTH",
"1496 1650 LINE",
"1292 1650 LINE",
"1292 344 LINE",
"459 1650 LINE"
);
}
);
width = 1734;
},
{
layerId = "e702a883-bc41-413c-af83-57815b8e3e41";
paths = (
{
closed = 1;
nodes = (
"270 1650 LINE",
"270 0 LINE",
"416 0 LINE",
"416 1399 LINE",
"1308 0 LINE",
"1308 -24 LINE SMOOTH",
"1308 -260 OFFCURVE",
"1181 -412 OFFCURVE",
"948 -412 CURVE SMOOTH",
"839 -412 OFFCURVE",
"736 -375 OFFCURVE",
"647 -280 CURVE",
"564 -378 LINE",
"676 -499 OFFCURVE",
"797 -551 OFFCURVE",
"962 -551 CURVE SMOOTH",
"1270 -551 OFFCURVE",
"1454 -367 OFFCURVE",
"1454 -55 CURVE SMOOTH",
"1454 1650 LINE",
"1308 1650 LINE",
"1308 249 LINE",
"416 1650 LINE"
);
}
);
width = 1708;
},
{
layerId = "89499a33-ee22-4529-a629-c9afa075ab0d";
paths = (
{
closed = 1;
nodes = (
"280 1650 LINE",
"280 0 LINE",
"386 0 LINE",
"386 1464 LINE",
"1319 0 LINE",
"1319 -27 LINE SMOOTH",
"1319 -287 OFFCURVE",
"1182 -451 OFFCURVE",
"928 -451 CURVE SMOOTH",
"810 -451 OFFCURVE",
"702 -412 OFFCURVE",
"608 -312 CURVE",
"547 -387 LINE",
"655 -502 OFFCURVE",
"772 -551 OFFCURVE",
"933 -551 CURVE SMOOTH",
"1241 -551 OFFCURVE",
"1425 -366 OFFCURVE",
"1425 -55 CURVE SMOOTH",
"1425 1650 LINE",
"1319 1650 LINE",
"1319 184 LINE",
"386 1650 LINE"
);
}
);
width = 1689;
},
{
layerId = "7b9d160b-1bc8-4aa8-aa2c-85d968a9ba41";
paths = (
{
closed = 1;
nodes = (
"288 1650 LINE",
"288 0 LINE",
"364 0 LINE",
"364 1513 LINE",
"1327 0 LINE",
"1327 -29 LINE SMOOTH",
"1327 -308 OFFCURVE",
"1183 -480 OFFCURVE",
"913 -480 CURVE SMOOTH",
"788 -480 OFFCURVE",
"677 -440 OFFCURVE",
"580 -336 CURVE",
"535 -394 LINE",
"639 -504 OFFCURVE",
"754 -551 OFFCURVE",
"911 -551 CURVE SMOOTH",
"1220 -551 OFFCURVE",
"1403 -366 OFFCURVE",
"1403 -55 CURVE SMOOTH",
"1403 1650 LINE",
"1327 1650 LINE",
"1327 135 LINE",
"364 1650 LINE"
);
}
);
width = 1674;
},
{
layerId = "30428d78-2e09-4e0b-978b-a63d31127a95";
paths = (
{
closed = 1;
nodes = (
"293 1650 LINE",
"293 0 LINE",
"349 0 LINE",
"349 1546 LINE",
"1333 0 LINE",
"1333 -31 LINE SMOOTH",
"1333 -322 OFFCURVE",
"1184 -499 OFFCURVE",
"903 -499 CURVE SMOOTH",
"774 -499 OFFCURVE",
"660 -458 OFFCURVE",
"561 -352 CURVE",
"527 -399 LINE",
"629 -505 OFFCURVE",
"742 -551 OFFCURVE",
"897 -551 CURVE SMOOTH",
"1206 -551 OFFCURVE",
"1389 -366 OFFCURVE",
"1389 -55 CURVE SMOOTH",
"1389 1650 LINE",
"1333 1650 LINE",
"1333 102 LINE",
"349 1650 LINE"
);
}
);
width = 1665;
}
);
unicode = 014A;
},
{
glyphname = O;
layers = (
{
anchors = (
{
name = bottom;
position = "{894, 0}";
},
{
name = center;
position = "{894, 824}";
},
{
name = ogonek;
position = "{1006, 0}";
},
{
name = top;
position = "{894, 1650}";
},
{
name = topleft;
position = "{20, 1650}";
},
{
name = topright;
position = "{1768, 1650}";
}
);
hints = (
{
horizontal = 1;
place = "{-32, 424}";
type = Stem;
},
{
horizontal = 1;
place = "{1256, 424}";
type = Stem;
},
{
place = "{62, 474}";
type = Stem;
},
{
place = "{1252, 474}";
type = Stem;
}
);
layerId = "6b09ce2e-afcf-4aca-aac2-7dbc8e1b58f4";
paths = (
{
closed = 1;
nodes = (
"1355 -32 OFFCURVE",
"1726 349 OFFCURVE",
"1726 824 CURVE SMOOTH",
"1726 1299 OFFCURVE",
"1355 1680 OFFCURVE",
"894 1680 CURVE SMOOTH",
"433 1680 OFFCURVE",
"62 1299 OFFCURVE",
"62 824 CURVE SMOOTH",
"62 349 OFFCURVE",
"433 -32 OFFCURVE",
"894 -32 CURVE SMOOTH"
);
},
{
closed = 1;
nodes = (
"677 392 OFFCURVE",
"536 563 OFFCURVE",
"536 824 CURVE SMOOTH",
"536 1085 OFFCURVE",
"677 1256 OFFCURVE",
"894 1256 CURVE SMOOTH",
"1111 1256 OFFCURVE",
"1252 1085 OFFCURVE",
"1252 824 CURVE SMOOTH",
"1252 563 OFFCURVE",
"1111 392 OFFCURVE",
"894 392 CURVE SMOOTH"
);
}
);
width = 1788;
},
{
anchors = (
{
name = bottom;
position = "{918, 0}";
},
{
name = center;
position = "{918, 824}";
},
{
name = ogonek;
position = "{1005, 0}";
},
{
name = top;
position = "{918, 1650}";
},
{
name = topleft;
position = "{20, 1650}";
},
{
name = topright;
position = "{1814, 1650}";
}
);
hints = (
{
horizontal = 1;
place = "{-32, 362}";
type = Stem;
},
{
horizontal = 1;
place = "{1318, 362}";
type = Stem;
},
{
place = "{86, 405}";
type = Stem;
},
{
place = "{1345, 405}";
type = Stem;
}
);
layerId = "165b9972-5639-46b0-8551-47f8199b5798";
paths = (
{
closed = 1;
nodes = (
"1380 -32 OFFCURVE",
"1750 349 OFFCURVE",
"1750 824 CURVE SMOOTH",
"1750 1299 OFFCURVE",
"1380 1680 OFFCURVE",
"918 1680 CURVE SMOOTH",
"456 1680 OFFCURVE",
"86 1299 OFFCURVE",
"86 824 CURVE SMOOTH",
"86 349 OFFCURVE",
"456 -32 OFFCURVE",
"918 -32 CURVE SMOOTH"
);
},
{
closed = 1;
nodes = (
"665 330 OFFCURVE",
"491 532 OFFCURVE",
"491 824 CURVE SMOOTH",
"491 1116 OFFCURVE",
"665 1318 OFFCURVE",
"918 1318 CURVE SMOOTH",
"1171 1318 OFFCURVE",
"1345 1116 OFFCURVE",
"1345 824 CURVE SMOOTH",
"1345 532 OFFCURVE",
"1171 330 OFFCURVE",
"918 330 CURVE SMOOTH"
);
}
);
width = 1835;
},
{
anchors = (
{
name = bottom;
position = "{942, 0}";
},
{
name = center;
position = "{942, 824}";
},
{
name = ogonek;
position = "{1003, 0}";
},
{
name = top;
position = "{942, 1650}";
},
{
name = topleft;
position = "{19, 1650}";
},
{
name = topright;
position = "{1864, 1650}";
}
);
hints = (
{
horizontal = 1;
place = "{-32, 297}";
type = Stem;
},
{
horizontal = 1;
place = "{1383, 297}";
type = Stem;
},
{
place = "{110, 332}";
type = Stem;
},
{
place = "{1442, 332}";
type = Stem;
}
);
layerId = "88dbb4cf-2a0e-4722-85a3-f94739c801e9";
paths = (
{
closed = 1;
nodes = (
"1404 -32 OFFCURVE",
"1774 348 OFFCURVE",
"1774 824 CURVE SMOOTH",
"1774 1300 OFFCURVE",
"1404 1680 OFFCURVE",
"942 1680 CURVE SMOOTH",
"480 1680 OFFCURVE",
"110 1300 OFFCURVE",
"110 824 CURVE SMOOTH",
"110 348 OFFCURVE",
"480 -32 OFFCURVE",
"942 -32 CURVE SMOOTH"
);
},
{
closed = 1;
nodes = (
"652 265 OFFCURVE",
"442 500 OFFCURVE",
"442 824 CURVE SMOOTH",
"442 1148 OFFCURVE",
"652 1383 OFFCURVE",
"942 1383 CURVE SMOOTH",
"1232 1383 OFFCURVE",
"1442 1148 OFFCURVE",
"1442 824 CURVE SMOOTH",
"1442 500 OFFCURVE",
"1232 265 OFFCURVE",
"942 265 CURVE SMOOTH"
);
}
);
width = 1884;
},
{
anchors = (
{
name = bottom;
position = "{963, 0}";
},
{
name = center;
position = "{963, 824}";
},
{
name = ogonek;
position = "{1001, 0}";
},
{
name = top;
position = "{963, 1650}";
},
{
name = topleft;
position = "{19, 1650}";
},
{
name = topright;
position = "{1906, 1650}";
}
);
hints = (
{
horizontal = 1;
place = "{-32, 241}";
type = Stem;
},
{
horizontal = 1;
place = "{1439, 241}";
type = Stem;
},
{
place = "{131, 270}";
type = Stem;
},
{
place = "{1526, 269}";
type = Stem;
}
);
layerId = "e8d1f046-7750-4839-b2c6-57e680534bd5";
paths = (
{
closed = 1;
nodes = (
"1425 -32 OFFCURVE",
"1795 348 OFFCURVE",
"1795 824 CURVE SMOOTH",
"1795 1300 OFFCURVE",
"1425 1680 OFFCURVE",
"963 1680 CURVE SMOOTH",
"501 1680 OFFCURVE",
"131 1300 OFFCURVE",
"131 824 CURVE SMOOTH",
"131 348 OFFCURVE",
"501 -32 OFFCURVE",
"963 -32 CURVE SMOOTH"
);
},
{
closed = 1;
nodes = (
"641 209 OFFCURVE",
"401 473 OFFCURVE",
"401 824 CURVE SMOOTH",
"401 1175 OFFCURVE",
"641 1439 OFFCURVE",
"963 1439 CURVE SMOOTH",
"1285 1439 OFFCURVE",
"1526 1175 OFFCURVE",
"1526 824 CURVE SMOOTH",
"1526 473 OFFCURVE",
"1285 209 OFFCURVE",
"963 209 CURVE SMOOTH"
);
}
);
width = 1926;
},
{
anchors = (
{
name = bottom;
position = "{980, 0}";
},
{
name = center;
position = "{980, 824}";
},
{
name = ogonek;
position = "{1000, 0}";
},
{
name = top;
position = "{980, 1650}";
},
{
name = topleft;
position = "{19, 1650}";
},
{
name = topright;
position = "{1940, 1650}";
}
);
hints = (
{
horizontal = 1;
place = "{-32, 197}";
type = Stem;
},
{
horizontal = 1;
place = "{1483, 197}";
type = Stem;
},
{
place = "{148, 220}";
type = Stem;
},
{
place = "{1592, 220}";
type = Stem;
}
);
layerId = "3e2ba9c9-8461-4c64-8143-df88a38fbe08";
paths = (
{
closed = 1;
nodes = (
"1442 -32 OFFCURVE",
"1812 348 OFFCURVE",
"1812 824 CURVE SMOOTH",
"1812 1300 OFFCURVE",
"1442 1680 OFFCURVE",
"980 1680 CURVE SMOOTH",
"518 1680 OFFCURVE",
"148 1300 OFFCURVE",
"148 824 CURVE SMOOTH",
"148 348 OFFCURVE",
"518 -32 OFFCURVE",
"980 -32 CURVE SMOOTH"
);
},
{
closed = 1;
nodes = (
"633 165 OFFCURVE",
"368 451 OFFCURVE",
"368 824 CURVE SMOOTH",
"368 1197 OFFCURVE",
"633 1483 OFFCURVE",
"980 1483 CURVE SMOOTH",
"1327 1483 OFFCURVE",
"1592 1197 OFFCURVE",
"1592 824 CURVE SMOOTH",
"1592 451 OFFCURVE",
"1327 165 OFFCURVE",
"980 165 CURVE SMOOTH"
);
}
);
width = 1960;
},
{
anchors = (
{
name = bottom;
position = "{1001, 0}";
},
{
name = center;
position = "{1001, 824}";
},
{
name = ogonek;
position = "{1026, 0}";
},
{
name = top;
position = "{1001, 1650}";
},
{
name = topleft;
position = "{19, 1650}";
},
{
name = topright;
position = "{1983, 1650}";
}
);
hints = (
{
horizontal = 1;
place = "{-32, 141}";
type = Stem;
},
{
horizontal = 1;
place = "{1539, 141}";
type = Stem;
},
{
place = "{169, 158}";
type = Stem;
},
{
place = "{1676, 157}";
type = Stem;
}
);
layerId = "e702a883-bc41-413c-af83-57815b8e3e41";
paths = (
{
closed = 1;
nodes = (
"1463 -32 OFFCURVE",
"1833 348 OFFCURVE",
"1833 824 CURVE SMOOTH",
"1833 1300 OFFCURVE",
"1463 1680 OFFCURVE",
"1001 1680 CURVE SMOOTH",
"539 1680 OFFCURVE",
"169 1300 OFFCURVE",
"169 824 CURVE SMOOTH",
"169 348 OFFCURVE",
"539 -32 OFFCURVE",
"1001 -32 CURVE SMOOTH"
);
},
{
closed = 1;
nodes = (
"622 109 OFFCURVE",
"327 423 OFFCURVE",
"327 824 CURVE SMOOTH",
"327 1225 OFFCURVE",
"622 1539 OFFCURVE",
"1001 1539 CURVE SMOOTH",
"1380 1539 OFFCURVE",
"1676 1225 OFFCURVE",
"1676 824 CURVE SMOOTH",
"1676 423 OFFCURVE",
"1380 109 OFFCURVE",
"1001 109 CURVE SMOOTH"
);
}
);
width = 2003;
},
{
anchors = (
{
name = bottom;
position = "{1017, 0}";
},
{
name = center;
position = "{1017, 824}";
},
{
name = ogonek;
position = "{1045, 0}";
},
{
name = top;
position = "{1017, 1650}";
},
{
name = topleft;
position = "{19, 1650}";
},
{
name = topright;
position = "{2013, 1650}";
}
);
hints = (
{
horizontal = 1;
place = "{-32, 102}";
type = Stem;
},
{
horizontal = 1;
place = "{1578, 102}";
type = Stem;
},
{
place = "{185, 114}";
type = Stem;
},
{
place = "{1735, 114}";
type = Stem;
}
);
layerId = "89499a33-ee22-4529-a629-c9afa075ab0d";
paths = (
{
closed = 1;
nodes = (
"1479 -32 OFFCURVE",
"1849 348 OFFCURVE",
"1849 824 CURVE SMOOTH",
"1849 1300 OFFCURVE",
"1479 1680 OFFCURVE",
"1017 1680 CURVE SMOOTH",
"555 1680 OFFCURVE",
"185 1300 OFFCURVE",
"185 824 CURVE SMOOTH",
"185 348 OFFCURVE",
"555 -32 OFFCURVE",
"1017 -32 CURVE SMOOTH"
);
},
{
closed = 1;
nodes = (
"616 70 OFFCURVE",
"299 404 OFFCURVE",
"299 824 CURVE SMOOTH",
"299 1244 OFFCURVE",
"616 1578 OFFCURVE",
"1017 1578 CURVE SMOOTH",
"1418 1578 OFFCURVE",
"1735 1244 OFFCURVE",
"1735 824 CURVE SMOOTH",
"1735 404 OFFCURVE",
"1418 70 OFFCURVE",
"1017 70 CURVE SMOOTH"
);
}
);
width = 2033;
},
{
anchors = (
{
name = bottom;
position = "{1028, 0}";
},
{
name = center;
position = "{1028, 825}";
},
{
name = ogonek;
position = "{1058, 0}";
},
{
name = top;
position = "{1028, 1650}";
},
{
name = topleft;
position = "{20, 1650}";
},
{
name = topright;
position = "{2035, 1650}";
}
);
hints = (
{
horizontal = 1;
place = "{-32, 73}";
type = Stem;
},
{
horizontal = 1;
place = "{1607, 73}";
type = Stem;
},
{
place = "{196, 81}";
type = Stem;
},
{
place = "{1778, 82}";
type = Stem;
}
);
layerId = "7b9d160b-1bc8-4aa8-aa2c-85d968a9ba41";
paths = (
{
closed = 1;
nodes = (
"1490 -32 OFFCURVE",
"1860 348 OFFCURVE",
"1860 824 CURVE SMOOTH",
"1860 1300 OFFCURVE",
"1490 1680 OFFCURVE",
"1028 1680 CURVE SMOOTH",
"566 1680 OFFCURVE",
"196 1300 OFFCURVE",
"196 824 CURVE SMOOTH",
"196 348 OFFCURVE",
"566 -32 OFFCURVE",
"1028 -32 CURVE SMOOTH"
);
},
{
closed = 1;
nodes = (
"611 41 OFFCURVE",
"277 390 OFFCURVE",
"277 824 CURVE SMOOTH",
"277 1258 OFFCURVE",
"611 1607 OFFCURVE",
"1028 1607 CURVE SMOOTH",
"1445 1607 OFFCURVE",
"1778 1258 OFFCURVE",
"1778 824 CURVE SMOOTH",
"1778 390 OFFCURVE",
"1445 41 OFFCURVE",
"1028 41 CURVE SMOOTH"
);
}
);
width = 2055;
},
{
anchors = (
{
name = bottom;
position = "{1035, 0}";
},
{
name = center;
position = "{1035, 825}";
},
{
name = ogonek;
position = "{1067, 0}";
},
{
name = top;
position = "{1035, 1650}";
},
{
name = topleft;
position = "{20, 1650}";
},
{
name = topright;
position = "{2050, 1650}";
}
);
hints = (
{
horizontal = 1;
place = "{-32, 54}";
type = Stem;
},
{
horizontal = 1;
place = "{1626, 54}";
type = Stem;
},
{
place = "{203, 60}";
type = Stem;
},
{
place = "{1807, 60}";
type = Stem;
}
);
layerId = "30428d78-2e09-4e0b-978b-a63d31127a95";
paths = (
{
closed = 1;
nodes = (
"1497 -32 OFFCURVE",
"1867 348 OFFCURVE",
"1867 824 CURVE SMOOTH",
"1867 1300 OFFCURVE",
"1497 1680 OFFCURVE",
"1035 1680 CURVE SMOOTH",
"573 1680 OFFCURVE",
"203 1300 OFFCURVE",
"203 824 CURVE SMOOTH",
"203 348 OFFCURVE",
"573 -32 OFFCURVE",
"1035 -32 CURVE SMOOTH"
);
},
{
closed = 1;
nodes = (
"607 22 OFFCURVE",
"263 380 OFFCURVE",
"263 824 CURVE SMOOTH",
"263 1268 OFFCURVE",
"607 1626 OFFCURVE",
"1035 1626 CURVE SMOOTH",
"1463 1626 OFFCURVE",
"1807 1268 OFFCURVE",
"1807 824 CURVE SMOOTH",
"1807 380 OFFCURVE",
"1463 22 OFFCURVE",
"1035 22 CURVE SMOOTH"
);
}
);
width = 2070;
}
);
unicode = 004F;
},
{
glyphname = Oslash;
leftMetricsKey = O;
rightMetricsKey = O;
layers = (
{
anchors = (
{
name = bottom;
position = "{924, 0}";
},
{
name = center;
position = "{894, 825}";
},
{
name = ogonek;
position = "{1006, 10}";
},
{
name = top;
position = "{894, 1680}";
},
{
name = topleft;
position = "{20, 1650}";
},
{
name = topright;
position = "{1768, 1650}";
}
);
components = (
{
name = O;
alignment = -1;
}
);
layerId = "6b09ce2e-afcf-4aca-aac2-7dbc8e1b58f4";
paths = (
{
closed = 1;
nodes = (
"1658 1518 LINE",
"1398 1718 LINE",
"144 155 LINE",
"404 -35 LINE"
);
}
);
width = 1788;
},
{
anchors = (
{
name = bottom;
position = "{890, 0}";
},
{
name = center;
position = "{865, 825}";
},
{
name = ogonek;
position = "{964, 9}";
},
{
name = top;
position = "{865, 1675}";
},
{
name = topleft;
position = "{-33, 1650}";
},
{
name = topright;
position = "{1762, 1650}";
}
);
components = (
{
name = O;
alignment = -1;
}
);
layerId = "165b9972-5639-46b0-8551-47f8199b5798";
paths = (
{
closed = 1;
nodes = (
"1663 1534 LINE",
"1438 1706 LINE",
"186 136 LINE",
"410 -28 LINE"
);
}
);
width = 1835;
},
{
anchors = (
{
name = bottom;
position = "{853, 0}";
},
{
name = center;
position = "{834, 825}";
},
{
name = ogonek;
position = "{918, 7}";
},
{
name = top;
position = "{834, 1670}";
},
{
name = topleft;
position = "{-89, 1650}";
},
{
name = topright;
position = "{1756, 1650}";
}
);
components = (
{
name = O;
alignment = -1;
}
);
layerId = "88dbb4cf-2a0e-4722-85a3-f94739c801e9";
paths = (
{
closed = 1;
nodes = (
"1667 1550 LINE",
"1480 1693 LINE",
"229 116 LINE",
"415 -20 LINE"
);
}
);
width = 1884;
},
{
anchors = (
{
name = bottom;
position = "{823, 0}";
},
{
name = center;
position = "{808, 825}";
},
{
name = ogonek;
position = "{880, 5}";
},
{
name = top;
position = "{808, 1665}";
},
{
name = topleft;
position = "{-136, 1650}";
},
{
name = topright;
position = "{1751, 1650}";
}
);
components = (
{
name = O;
alignment = -1;
}
);
layerId = "e8d1f046-7750-4839-b2c6-57e680534bd5";
paths = (
{
closed = 1;
nodes = (
"1671 1564 LINE",
"1517 1682 LINE",
"267 99 LINE",
"420 -14 LINE"
);
}
);
width = 1926;
},
{
components = (
{
name = O;
alignment = -1;
}
);
layerId = "3e2ba9c9-8461-4c64-8143-df88a38fbe08";
paths = (
{
closed = 1;
nodes = (
"1674 1575 LINE",
"1546 1673 LINE",
"297 86 LINE",
"424 -9 LINE"
);
}
);
width = 1960;
},
{
anchors = (
{
name = bottom;
position = "{934, 0}";
},
{
name = center;
position = "{927, 825}";
},
{
name = ogonek;
position = "{977, 3}";
},
{
name = top;
position = "{927, 1657}";
},
{
name = topleft;
position = "{-56, 1650}";
},
{
name = topright;
position = "{1908, 1650}";
}
);
components = (
{
name = O;
alignment = -1;
}
);
layerId = "e702a883-bc41-413c-af83-57815b8e3e41";
paths = (
{
closed = 1;
nodes = (
"1679 1589 LINE",
"1582 1662 LINE",
"335 69 LINE",
"429 -2 LINE"
);
}
);
width = 2003;
},
{
anchors = (
{
name = bottom;
position = "{993, 0}";
},
{
name = center;
position = "{989, 825}";
},
{
name = ogonek;
position = "{1031, 2}";
},
{
name = top;
position = "{989, 1654}";
},
{
name = topleft;
position = "{-8, 1650}";
},
{
name = topright;
position = "{1985, 1650}";
}
);
components = (
{
name = O;
alignment = -1;
}
);
layerId = "89499a33-ee22-4529-a629-c9afa075ab0d";
paths = (
{
closed = 1;
nodes = (
"1682 1598 LINE",
"1607 1654 LINE",
"361 57 LINE",
"433 2 LINE"
);
}
);
width = 2033;
},
{
anchors = (
{
name = bottom;
position = "{1029, 0}";
},
{
name = center;
position = "{1028, 825}";
},
{
name = ogonek;
position = "{1064, 1}";
},
{
name = top;
position = "{1028, 1652}";
},
{
name = topleft;
position = "{20, 1650}";
},
{
name = topright;
position = "{2035, 1650}";
}
);
components = (
{
name = O;
alignment = -1;
}
);
layerId = "7b9d160b-1bc8-4aa8-aa2c-85d968a9ba41";
paths = (
{
closed = 1;
nodes = (
"1684 1605 LINE",
"1626 1648 LINE",
"380 48 LINE",
"435 6 LINE"
);
}
);
width = 2055;
},
{
anchors = (
{
name = bottom;
position = "{1035, 0}";
},
{
name = center;
position = "{1035, 825}";
},
{
name = ogonek;
position = "{1067, 0}";
},
{
name = top;
position = "{1035, 1650}";
},
{
name = topleft;
position = "{20, 1650}";
},
{
name = topright;
position = "{2050, 1650}";
}
);
components = (
{
name = O;
alignment = -1;
}
);
layerId = "30428d78-2e09-4e0b-978b-a63d31127a95";
paths = (
{
closed = 1;
nodes = (
"1685 1610 LINE",
"1639 1644 LINE",
"393 42 LINE",
"437 8 LINE"
);
}
);
width = 2070;
}
);
unicode = 00D8;
},
{
glyphname = OE;
leftMetricsKey = O;
rightMetricsKey = E;
layers = (
{
anchors = (
{
name = bottom;
position = "{1082, 0}";
},
{
name = top;
position = "{1082, 1650}";
}
);
hints = (
{
horizontal = 1;
place = "{1258, 392}";
type = Stem;
},
{
horizontal = 1;
place = "{0, 392}";
type = Stem;
},
{
horizontal = 1;
place = "{634, 386}";
type = Stem;
},
{
place = "{1018, 440}";
type = Stem;
},
{
place = "{62, 474}";
type = Stem;
}
);
layerId = "6b09ce2e-afcf-4aca-aac2-7dbc8e1b58f4";
paths = (
{
closed = 1;
nodes = (
"1994 0 LINE",
"1994 386 LINE",
"1458 386 LINE",
"1458 634 LINE",
"1970 634 LINE",
"1970 1020 LINE",
"1458 1020 LINE",
"1458 1264 LINE",
"1994 1264 LINE",
"1994 1650 LINE",
"1104 1650 LINE SMOOTH",
"401 1650 OFFCURVE",
"62 1312 OFFCURVE",
"62 825 CURVE SMOOTH",
"62 338 OFFCURVE",
"401 0 OFFCURVE",
"1104 0 CURVE SMOOTH"
);
},
{
closed = 1;
nodes = (
"1018 392 LINE",
"715 392 OFFCURVE",
"536 550 OFFCURVE",
"536 825 CURVE SMOOTH",
"536 1100 OFFCURVE",
"715 1258 OFFCURVE",
"1018 1258 CURVE"
);
}
);
width = 2162;
},
{
anchors = (
{
name = bottom;
position = "{1068, 0}";
},
{
name = top;
position = "{1068, 1650}";
}
);
hints = (
{
horizontal = 1;
place = "{1314, 336}";
type = Stem;
},
{
horizontal = 1;
place = "{0, 336}";
type = Stem;
},
{
horizontal = 1;
place = "{662, 330}";
type = Stem;
},
{
place = "{1020, 376}";
type = Stem;
},
{
place = "{86, 405}";
type = Stem;
}
);
layerId = "165b9972-5639-46b0-8551-47f8199b5798";
paths = (
{
closed = 1;
nodes = (
"1964 0 LINE",
"1964 330 LINE",
"1396 330 LINE",
"1396 662 LINE",
"1940 662 LINE",
"1940 992 LINE",
"1396 992 LINE",
"1396 1320 LINE",
"1964 1320 LINE",
"1964 1650 LINE",
"1092 1650 LINE SMOOTH",
"429 1650 OFFCURVE",
"86 1308 OFFCURVE",
"86 825 CURVE SMOOTH",
"86 341 OFFCURVE",
"429 0 OFFCURVE",
"1092 0 CURVE SMOOTH"
);
},
{
closed = 1;
nodes = (
"1020 336 LINE",
"694 336 OFFCURVE",
"491 523 OFFCURVE",
"491 825 CURVE SMOOTH",
"491 1127 OFFCURVE",
"697 1314 OFFCURVE",
"1020 1314 CURVE"
);
}
);
width = 2133;
},
{
anchors = (
{
name = bottom;
position = "{1051, 0}";
},
{
name = top;
position = "{1051, 1650}";
}
);
hints = (
{
horizontal = 1;
place = "{1375, 275}";
type = Stem;
},
{
horizontal = 1;
place = "{0, 276}";
type = Stem;
},
{
horizontal = 1;
place = "{692, 271}";
type = Stem;
},
{
place = "{1021, 308}";
type = Stem;
},
{
place = "{110, 332}";
type = Stem;
}
);
layerId = "88dbb4cf-2a0e-4722-85a3-f94739c801e9";
paths = (
{
closed = 1;
nodes = (
"1931 0 LINE",
"1931 271 LINE",
"1329 271 LINE",
"1329 692 LINE",
"1907 692 LINE",
"1907 963 LINE",
"1329 963 LINE",
"1329 1380 LINE",
"1931 1380 LINE",
"1931 1650 LINE",
"1078 1650 LINE SMOOTH",
"458 1650 OFFCURVE",
"110 1305 OFFCURVE",
"110 825 CURVE SMOOTH",
"110 345 OFFCURVE",
"458 0 OFFCURVE",
"1078 0 CURVE SMOOTH"
);
},
{
closed = 1;
nodes = (
"1021 276 LINE",
"670 276 OFFCURVE",
"442 495 OFFCURVE",
"442 825 CURVE SMOOTH",
"442 1156 OFFCURVE",
"676 1375 OFFCURVE",
"1021 1375 CURVE"
);
}
);
width = 2102;
},
{
anchors = (
{
name = bottom;
position = "{1038, 0}";
},
{
name = top;
position = "{1038, 1650}";
}
);
hints = (
{
horizontal = 1;
place = "{1427, 223}";
type = Stem;
},
{
horizontal = 1;
place = "{0, 224}";
type = Stem;
},
{
horizontal = 1;
place = "{717, 220}";
type = Stem;
},
{
place = "{1023, 250}";
type = Stem;
},
{
place = "{131, 270}";
type = Stem;
}
);
layerId = "e8d1f046-7750-4839-b2c6-57e680534bd5";
paths = (
{
closed = 1;
nodes = (
"1904 0 LINE",
"1904 220 LINE",
"1273 220 LINE",
"1273 717 LINE",
"1880 717 LINE",
"1880 937 LINE",
"1273 937 LINE",
"1273 1431 LINE",
"1904 1431 LINE",
"1904 1650 LINE",
"1067 1650 LINE SMOOTH",
"483 1650 OFFCURVE",
"131 1302 OFFCURVE",
"131 825 CURVE SMOOTH",
"131 348 OFFCURVE",
"483 0 OFFCURVE",
"1067 0 CURVE SMOOTH"
);
},
{
closed = 1;
nodes = (
"1023 224 LINE",
"651 224 OFFCURVE",
"401 470 OFFCURVE",
"401 825 CURVE SMOOTH",
"401 1180 OFFCURVE",
"659 1427 OFFCURVE",
"1023 1427 CURVE"
);
}
);
width = 2076;
},
{
hints = (
{
horizontal = 1;
place = "{1467, 183}";
type = Stem;
},
{
horizontal = 1;
place = "{0, 183}";
type = Stem;
},
{
horizontal = 1;
place = "{737, 180}";
type = Stem;
},
{
place = "{1024, 204}";
type = Stem;
},
{
place = "{148, 220}";
type = Stem;
}
);
layerId = "3e2ba9c9-8461-4c64-8143-df88a38fbe08";
paths = (
{
closed = 1;
nodes = (
"1882 0 LINE",
"1882 180 LINE",
"1228 180 LINE",
"1228 737 LINE",
"1858 737 LINE",
"1858 917 LINE",
"1228 917 LINE",
"1228 1471 LINE",
"1882 1471 LINE",
"1882 1650 LINE",
"1058 1650 LINE SMOOTH",
"503 1650 OFFCURVE",
"148 1299 OFFCURVE",
"148 825 CURVE SMOOTH",
"148 351 OFFCURVE",
"503 0 OFFCURVE",
"1058 0 CURVE SMOOTH"
);
},
{
closed = 1;
nodes = (
"1024 183 LINE",
"635 183 OFFCURVE",
"368 451 OFFCURVE",
"368 825 CURVE SMOOTH",
"368 1199 OFFCURVE",
"645 1467 OFFCURVE",
"1024 1467 CURVE"
);
}
);
width = 2055;
},
{
anchors = (
{
name = bottom;
position = "{1014, 0}";
},
{
name = top;
position = "{1014, 1650}";
}
);
hints = (
{
horizontal = 1;
place = "{1519, 131}";
type = Stem;
},
{
horizontal = 1;
place = "{0, 131}";
type = Stem;
},
{
horizontal = 1;
place = "{762, 129}";
type = Stem;
},
{
place = "{1025, 146}";
type = Stem;
},
{
place = "{169, 157}";
type = Stem;
}
);
layerId = "e702a883-bc41-413c-af83-57815b8e3e41";
paths = (
{
closed = 1;
nodes = (
"1854 0 LINE",
"1854 129 LINE",
"1171 129 LINE",
"1171 762 LINE",
"1830 762 LINE",
"1830 891 LINE",
"1171 891 LINE",
"1171 1522 LINE",
"1854 1522 LINE",
"1854 1650 LINE",
"1046 1650 LINE SMOOTH",
"523 1650 OFFCURVE",
"169 1296 OFFCURVE",
"169 825 CURVE SMOOTH",
"169 354 OFFCURVE",
"523 0 OFFCURVE",
"1046 0 CURVE SMOOTH"
);
},
{
closed = 1;
nodes = (
"1025 131 LINE",
"617 131 OFFCURVE",
"326 426 OFFCURVE",
"326 825 CURVE SMOOTH",
"326 1224 OFFCURVE",
"623 1519 OFFCURVE",
"1025 1519 CURVE"
);
}
);
width = 2028;
},
{
anchors = (
{
name = bottom;
position = "{1007, 0}";
},
{
name = top;
position = "{1007, 1650}";
}
);
hints = (
{
horizontal = 1;
place = "{1555, 95}";
type = Stem;
},
{
horizontal = 1;
place = "{0, 96}";
type = Stem;
},
{
horizontal = 1;
place = "{780, 94}";
type = Stem;
},
{
place = "{1027, 106}";
type = Stem;
},
{
place = "{185, 114}";
type = Stem;
}
);
layerId = "89499a33-ee22-4529-a629-c9afa075ab0d";
paths = (
{
closed = 1;
nodes = (
"1836 0 LINE",
"1836 94 LINE",
"1133 94 LINE",
"1133 780 LINE",
"1812 780 LINE",
"1812 874 LINE",
"1133 874 LINE",
"1133 1557 LINE",
"1836 1557 LINE",
"1836 1650 LINE",
"1039 1650 LINE SMOOTH",
"539 1650 OFFCURVE",
"185 1294 OFFCURVE",
"185 825 CURVE SMOOTH",
"185 356 OFFCURVE",
"539 0 OFFCURVE",
"1039 0 CURVE SMOOTH"
);
},
{
closed = 1;
nodes = (
"1027 96 LINE",
"607 96 OFFCURVE",
"299 410 OFFCURVE",
"299 825 CURVE SMOOTH",
"299 1241 OFFCURVE",
"610 1555 OFFCURVE",
"1027 1555 CURVE"
);
}
);
width = 2011;
},
{
anchors = (
{
name = bottom;
position = "{1000, 0}";
},
{
name = top;
position = "{1000, 1650}";
}
);
hints = (
{
horizontal = 1;
place = "{1581, 69}";
type = Stem;
},
{
horizontal = 1;
place = "{0, 70}";
type = Stem;
},
{
horizontal = 1;
place = "{793, 68}";
type = Stem;
},
{
place = "{1028, 76}";
type = Stem;
},
{
place = "{196, 82}";
type = Stem;
}
);
layerId = "7b9d160b-1bc8-4aa8-aa2c-85d968a9ba41";
paths = (
{
closed = 1;
nodes = (
"1822 0 LINE",
"1822 68 LINE",
"1104 68 LINE",
"1104 793 LINE",
"1798 793 LINE",
"1798 861 LINE",
"1104 861 LINE",
"1104 1583 LINE",
"1822 1583 LINE",
"1822 1650 LINE",
"1033 1650 LINE SMOOTH",
"550 1650 OFFCURVE",
"196 1292 OFFCURVE",
"196 825 CURVE SMOOTH",
"196 358 OFFCURVE",
"550 0 OFFCURVE",
"1033 0 CURVE SMOOTH"
);
},
{
closed = 1;
nodes = (
"1028 70 LINE",
"598 70 OFFCURVE",
"278 397 OFFCURVE",
"278 825 CURVE SMOOTH",
"278 1254 OFFCURVE",
"599 1581 OFFCURVE",
"1028 1581 CURVE"
);
}
);
width = 1998;
},
{
anchors = (
{
name = bottom;
position = "{996, 0}";
},
{
name = top;
position = "{996, 1650}";
}
);
hints = (
{
horizontal = 1;
place = "{1598, 52}";
type = Stem;
},
{
horizontal = 1;
place = "{0, 52}";
type = Stem;
},
{
horizontal = 1;
place = "{802, 50}";
type = Stem;
},
{
place = "{1029, 56}";
type = Stem;
},
{
place = "{203, 60}";
type = Stem;
}
);
layerId = "30428d78-2e09-4e0b-978b-a63d31127a95";
paths = (
{
closed = 1;
nodes = (
"1813 0 LINE",
"1813 50 LINE",
"1085 50 LINE",
"1085 802 LINE",
"1789 802 LINE",
"1789 852 LINE",
"1085 852 LINE",
"1085 1600 LINE",
"1813 1600 LINE",
"1813 1650 LINE",
"1029 1650 LINE SMOOTH",
"557 1650 OFFCURVE",
"203 1291 OFFCURVE",
"203 825 CURVE SMOOTH",
"203 359 OFFCURVE",
"557 0 OFFCURVE",
"1029 0 CURVE SMOOTH"
);
},
{
closed = 1;
nodes = (
"1029 52 LINE",
"592 52 OFFCURVE",
"263 388 OFFCURVE",
"263 825 CURVE SMOOTH",
"263 1262 OFFCURVE",
"592 1598 OFFCURVE",
"1029 1598 CURVE"
);
}
);
width = 1990;
}
);
unicode = 0152;
},
{
glyphname = P;
layers = (
{
hints = (
{
horizontal = 1;
place = "{588, 350}";
type = Stem;
},
{
horizontal = 1;
place = "{1300, 350}";
type = Stem;
},
{
place = "{958, 464}";
type = Stem;
},
{
horizontal = 1;
place = "{0, 21}";
target = up;
type = BottomGhost;
},
{
place = "{196, 440}";
type = Stem;
}
);
layerId = "6b09ce2e-afcf-4aca-aac2-7dbc8e1b58f4";
paths = (
{
closed = 1;
nodes = (
"636 0 LINE",
"636 588 LINE",
"848 588 LINE SMOOTH",
"1168 588 OFFCURVE",
"1422 764 OFFCURVE",
"1422 1119 CURVE SMOOTH",
"1422 1474 OFFCURVE",
"1168 1650 OFFCURVE",
"848 1650 CURVE SMOOTH",
"196 1650 LINE",
"196 0 LINE"
);
},
{
closed = 1;
nodes = (
"636 1300 LINE",
"704 1300 LINE SMOOTH",
"822 1300 OFFCURVE",
"958 1275 OFFCURVE",
"958 1119 CURVE SMOOTH",
"958 965 OFFCURVE",
"822 938 OFFCURVE",
"704 938 CURVE SMOOTH",
"636 938 LINE"
);
}
);
width = 1448;
},
{
anchors = (
{
name = bottom;
position = "{716, 0}";
},
{
name = top;
position = "{716, 1650}";
}
);
hints = (
{
horizontal = 1;
place = "{612, 300}";
type = Stem;
},
{
horizontal = 1;
place = "{1350, 300}";
type = Stem;
},
{
place = "{982, 395}";
type = Stem;
},
{
horizontal = 1;
place = "{0, 21}";
target = up;
type = BottomGhost;
},
{
place = "{212, 376}";
type = Stem;
}
);
layerId = "165b9972-5639-46b0-8551-47f8199b5798";
paths = (
{
closed = 1;
nodes = (
"588 0 LINE",
"588 612 LINE",
"814 612 LINE SMOOTH",
"1135 612 OFFCURVE",
"1377 790 OFFCURVE",
"1377 1131 CURVE SMOOTH",
"1377 1472 OFFCURVE",
"1135 1650 OFFCURVE",
"814 1650 CURVE SMOOTH",
"212 1650 LINE",
"212 0 LINE"
);
},
{
closed = 1;
nodes = (
"588 1350 LINE",
"694 1350 LINE SMOOTH",
"841 1350 OFFCURVE",
"982 1300 OFFCURVE",
"982 1131 CURVE SMOOTH",
"982 963 OFFCURVE",
"841 912 OFFCURVE",
"694 912 CURVE SMOOTH",
"588 912 LINE"
);
}
);
width = 1431;
},
{
anchors = (
{
name = bottom;
position = "{708, 0}";
},
{
name = top;
position = "{708, 1650}";
}
);
hints = (
{
horizontal = 1;
place = "{638, 246}";
type = Stem;
},
{
horizontal = 1;
place = "{1404, 246}";
type = Stem;
},
{
place = "{1008, 322}";
type = Stem;
},
{
horizontal = 1;
place = "{0, 21}";
target = up;
type = BottomGhost;
},
{
place = "{229, 308}";
type = Stem;
}
);
layerId = "88dbb4cf-2a0e-4722-85a3-f94739c801e9";
paths = (
{
closed = 1;
nodes = (
"537 0 LINE",
"537 638 LINE",
"778 638 LINE SMOOTH",
"1100 638 OFFCURVE",
"1330 818 OFFCURVE",
"1330 1144 CURVE SMOOTH",
"1330 1470 OFFCURVE",
"1100 1650 OFFCURVE",
"778 1650 CURVE SMOOTH",
"229 1650 LINE",
"229 0 LINE"
);
},
{
closed = 1;
nodes = (
"537 1404 LINE",
"684 1404 LINE SMOOTH",
"861 1404 OFFCURVE",
"1008 1328 OFFCURVE",
"1008 1144 CURVE SMOOTH",
"1008 960 OFFCURVE",
"861 884 OFFCURVE",
"684 884 CURVE SMOOTH",
"537 884 LINE"
);
}
);
width = 1412;
},
{
anchors = (
{
name = bottom;
position = "{699, 0}";
},
{
name = top;
position = "{699, 1650}";
}
);
hints = (
{
horizontal = 1;
place = "{660, 200}";
type = Stem;
},
{
horizontal = 1;
place = "{1450, 200}";
type = Stem;
},
{
place = "{1030, 260}";
type = Stem;
},
{
horizontal = 1;
place = "{0, 21}";
target = up;
type = BottomGhost;
},
{
place = "{244, 250}";
type = Stem;
}
);
layerId = "e8d1f046-7750-4839-b2c6-57e680534bd5";
paths = (
{
closed = 1;
nodes = (
"494 0 LINE",
"494 660 LINE",
"748 660 LINE SMOOTH",
"1070 660 OFFCURVE",
"1290 842 OFFCURVE",
"1290 1155 CURVE SMOOTH",
"1290 1468 OFFCURVE",
"1070 1650 OFFCURVE",
"748 1650 CURVE SMOOTH",
"244 1650 LINE",
"244 0 LINE"
);
},
{
closed = 1;
nodes = (
"494 1450 LINE",
"675 1450 LINE SMOOTH",
"879 1450 OFFCURVE",
"1030 1352 OFFCURVE",
"1030 1155 CURVE SMOOTH",
"1030 958 OFFCURVE",
"879 860 OFFCURVE",
"675 860 CURVE SMOOTH",
"494 860 LINE"
);
}
);
width = 1396;
},
{
anchors = (
{
name = bottom;
position = "{692, 0}";
},
{
name = top;
position = "{692, 1650}";
}
);
hints = (
{
horizontal = 1;
place = "{678, 164}";
type = Stem;
},
{
horizontal = 1;
place = "{1486, 164}";
type = Stem;
},
{
place = "{1048, 211}";
type = Stem;
},
{
horizontal = 1;
place = "{0, 21}";
target = up;
type = BottomGhost;
},
{
place = "{256, 204}";
type = Stem;
}
);
layerId = "3e2ba9c9-8461-4c64-8143-df88a38fbe08";
paths = (
{
closed = 1;
nodes = (
"460 0 LINE",
"460 678 LINE",
"724 678 LINE SMOOTH",
"1047 678 OFFCURVE",
"1259 862 OFFCURVE",
"1259 1164 CURVE SMOOTH",
"1259 1466 OFFCURVE",
"1047 1650 OFFCURVE",
"724 1650 CURVE SMOOTH",
"256 1650 LINE",
"256 0 LINE"
);
},
{
closed = 1;
nodes = (
"460 1486 LINE",
"669 1486 LINE SMOOTH",
"893 1486 OFFCURVE",
"1048 1371 OFFCURVE",
"1048 1164 CURVE SMOOTH",
"1048 957 OFFCURVE",
"893 842 OFFCURVE",
"669 842 CURVE SMOOTH",
"460 842 LINE"
);
}
);
width = 1383;
},
{
anchors = (
{
name = bottom;
position = "{684, 0}";
},
{
name = top;
position = "{684, 1650}";
}
);
hints = (
{
horizontal = 1;
place = "{700, 119}";
type = Stem;
},
{
horizontal = 1;
place = "{1531, 119}";
type = Stem;
},
{
place = "{1070, 148}";
type = Stem;
},
{
horizontal = 1;
place = "{0, 21}";
target = up;
type = BottomGhost;
},
{
place = "{271, 146}";
type = Stem;
}
);
layerId = "e702a883-bc41-413c-af83-57815b8e3e41";
paths = (
{
closed = 1;
nodes = (
"417 0 LINE",
"417 700 LINE",
"694 700 LINE SMOOTH",
"1017 700 OFFCURVE",
"1218 885 OFFCURVE",
"1218 1175 CURVE SMOOTH",
"1218 1465 OFFCURVE",
"1017 1650 OFFCURVE",
"694 1650 CURVE SMOOTH",
"271 1650 LINE",
"271 0 LINE"
);
},
{
closed = 1;
nodes = (
"417 1531 LINE",
"661 1531 LINE SMOOTH",
"910 1531 OFFCURVE",
"1070 1395 OFFCURVE",
"1070 1175 CURVE SMOOTH",
"1070 955 OFFCURVE",
"910 819 OFFCURVE",
"661 819 CURVE SMOOTH",
"417 819 LINE"
);
}
);
width = 1367;
},
{
anchors = (
{
name = bottom;
position = "{678, 0}";
},
{
name = top;
position = "{678, 1650}";
}
);
hints = (
{
horizontal = 1;
place = "{716, 88}";
type = Stem;
},
{
horizontal = 1;
place = "{1562, 88}";
type = Stem;
},
{
place = "{1086, 105}";
type = Stem;
},
{
horizontal = 1;
place = "{0, 21}";
target = up;
type = BottomGhost;
},
{
place = "{281, 106}";
type = Stem;
}
);
layerId = "89499a33-ee22-4529-a629-c9afa075ab0d";
paths = (
{
closed = 1;
nodes = (
"387 0 LINE",
"387 716 LINE",
"673 716 LINE SMOOTH",
"997 716 OFFCURVE",
"1191 902 OFFCURVE",
"1191 1183 CURVE SMOOTH",
"1191 1464 OFFCURVE",
"997 1650 OFFCURVE",
"673 1650 CURVE SMOOTH",
"281 1650 LINE",
"281 0 LINE"
);
},
{
closed = 1;
nodes = (
"387 1562 LINE",
"655 1562 LINE SMOOTH",
"923 1562 OFFCURVE",
"1086 1412 OFFCURVE",
"1086 1183 CURVE SMOOTH",
"1086 954 OFFCURVE",
"923 804 OFFCURVE",
"655 804 CURVE SMOOTH",
"387 804 LINE"
);
}
);
width = 1356;
},
{
anchors = (
{
name = bottom;
position = "{675, 0}";
},
{
name = top;
position = "{675, 1650}";
}
);
hints = (
{
horizontal = 1;
place = "{728, 65}";
type = Stem;
},
{
horizontal = 1;
place = "{1585, 65}";
type = Stem;
},
{
place = "{1097, 73}";
type = Stem;
},
{
horizontal = 1;
place = "{0, 21}";
target = up;
type = BottomGhost;
},
{
place = "{288, 76}";
type = Stem;
}
);
layerId = "7b9d160b-1bc8-4aa8-aa2c-85d968a9ba41";
paths = (
{
closed = 1;
nodes = (
"364 0 LINE",
"364 728 LINE",
"657 728 LINE SMOOTH",
"981 728 OFFCURVE",
"1170 915 OFFCURVE",
"1170 1189 CURVE SMOOTH",
"1170 1463 OFFCURVE",
"981 1650 OFFCURVE",
"657 1650 CURVE SMOOTH",
"288 1650 LINE",
"288 0 LINE"
);
},
{
closed = 1;
nodes = (
"364 1585 LINE",
"650 1585 LINE SMOOTH",
"931 1585 OFFCURVE",
"1097 1424 OFFCURVE",
"1097 1189 CURVE SMOOTH",
"1097 954 OFFCURVE",
"931 793 OFFCURVE",
"650 793 CURVE SMOOTH",
"364 793 LINE"
);
}
);
width = 1348;
},
{
anchors = (
{
name = bottom;
position = "{672, 0}";
},
{
name = top;
position = "{672, 1650}";
}
);
hints = (
{
horizontal = 1;
place = "{736, 50}";
type = Stem;
},
{
horizontal = 1;
place = "{1600, 50}";
type = Stem;
},
{
place = "{1105, 52}";
type = Stem;
},
{
horizontal = 1;
place = "{0, 21}";
target = up;
type = BottomGhost;
},
{
place = "{293, 56}";
type = Stem;
}
);
layerId = "30428d78-2e09-4e0b-978b-a63d31127a95";
paths = (
{
closed = 1;
nodes = (
"349 0 LINE",
"349 736 LINE",
"647 736 LINE SMOOTH",
"971 736 OFFCURVE",
"1157 924 OFFCURVE",
"1157 1193 CURVE SMOOTH",
"1157 1462 OFFCURVE",
"971 1650 OFFCURVE",
"647 1650 CURVE SMOOTH",
"293 1650 LINE",
"293 0 LINE"
);
},
{
closed = 1;
nodes = (
"349 1600 LINE",
"647 1600 LINE SMOOTH",
"937 1600 OFFCURVE",
"1105 1432 OFFCURVE",
"1105 1193 CURVE SMOOTH",
"1105 954 OFFCURVE",
"937 786 OFFCURVE",
"647 786 CURVE SMOOTH",
"349 786 LINE"
);
}
);
width = 1343;
}
);
unicode = 0050;
},
{
glyphname = Thorn;
leftMetricsKey = P;
rightMetricsKey = P;
layers = (
{
anchors = (
{
name = bottom;
position = "{724, 0}";
},
{
name = top;
position = "{724, 1650}";
}
);
hints = (
{
horizontal = 1;
place = "{296, 350}";
type = Stem;
},
{
horizontal = 1;
place = "{1008, 350}";
type = Stem;
},
{
horizontal = 1;
place = "{1650, -20}";
target = down;
type = TopGhost;
},
{
place = "{196, 440}";
type = Stem;
},
{
place = "{958, 464}";
type = Stem;
}
);
layerId = "6b09ce2e-afcf-4aca-aac2-7dbc8e1b58f4";
paths = (
{
closed = 1;
nodes = (
"636 0 LINE",
"636 296 LINE",
"848 296 LINE SMOOTH",
"1168 296 OFFCURVE",
"1422 472 OFFCURVE",
"1422 827 CURVE SMOOTH",
"1422 1182 OFFCURVE",
"1168 1358 OFFCURVE",
"848 1358 CURVE SMOOTH",
"636 1358 LINE",
"636 1650 LINE",
"196 1650 LINE",
"196 0 LINE"
);
},
{
closed = 1;
nodes = (
"636 1008 LINE",
"704 1008 LINE SMOOTH",
"822 1008 OFFCURVE",
"958 983 OFFCURVE",
"958 827 CURVE SMOOTH",
"958 673 OFFCURVE",
"822 646 OFFCURVE",
"704 646 CURVE SMOOTH",
"636 646 LINE"
);
}
);
width = 1448;
},
{
anchors = (
{
name = bottom;
position = "{715, 0}";
},
{
name = top;
position = "{715, 1650}";
}
);
hints = (
{
horizontal = 1;
place = "{306, 300}";
type = Stem;
},
{
horizontal = 1;
place = "{1044, 300}";
type = Stem;
},
{
horizontal = 1;
place = "{1651, -20}";
target = down;
type = TopGhost;
},
{
place = "{212, 376}";
type = Stem;
},
{
place = "{982, 395}";
type = Stem;
}
);
layerId = "165b9972-5639-46b0-8551-47f8199b5798";
paths = (
{
closed = 1;
nodes = (
"588 0 LINE",
"588 306 LINE",
"814 306 LINE SMOOTH",
"1135 306 OFFCURVE",
"1377 484 OFFCURVE",
"1377 825 CURVE SMOOTH",
"1377 1166 OFFCURVE",
"1135 1344 OFFCURVE",
"814 1344 CURVE SMOOTH",
"588 1344 LINE",
"588 1651 LINE",
"212 1651 LINE",
"212 0 LINE"
);
},
{
closed = 1;
nodes = (
"588 1044 LINE",
"694 1044 LINE SMOOTH",
"841 1044 OFFCURVE",
"982 995 OFFCURVE",
"982 825 CURVE SMOOTH",
"982 657 OFFCURVE",
"841 606 OFFCURVE",
"694 606 CURVE SMOOTH",
"588 606 LINE"
);
}
);
width = 1431;
},
{
anchors = (
{
name = bottom;
position = "{706, 0}";
},
{
name = top;
position = "{706, 1650}";
}
);
hints = (
{
horizontal = 1;
place = "{317, 246}";
type = Stem;
},
{
horizontal = 1;
place = "{1082, 246}";
type = Stem;
},
{
horizontal = 1;
place = "{1650, -20}";
target = down;
type = TopGhost;
},
{
place = "{229, 308}";
type = Stem;
},
{
place = "{1008, 322}";
type = Stem;
}
);
layerId = "88dbb4cf-2a0e-4722-85a3-f94739c801e9";
paths = (
{
closed = 1;
nodes = (
"537 0 LINE",
"537 317 LINE",
"778 317 LINE SMOOTH",
"1100 317 OFFCURVE",
"1330 497 OFFCURVE",
"1330 823 CURVE SMOOTH",
"1330 1148 OFFCURVE",
"1100 1328 OFFCURVE",
"778 1328 CURVE SMOOTH",
"537 1328 LINE",
"537 1650 LINE",
"229 1650 LINE",
"229 0 LINE"
);
},
{
closed = 1;
nodes = (
"537 1082 LINE",
"684 1082 LINE SMOOTH",
"861 1082 OFFCURVE",
"1008 1007 OFFCURVE",
"1008 823 CURVE SMOOTH",
"1008 639 OFFCURVE",
"861 563 OFFCURVE",
"684 563 CURVE SMOOTH",
"537 563 LINE"
);
}
);
width = 1412;
},
{
anchors = (
{
name = bottom;
position = "{698, 0}";
},
{
name = top;
position = "{698, 1650}";
}
);
hints = (
{
horizontal = 1;
place = "{326, 200}";
type = Stem;
},
{
horizontal = 1;
place = "{1115, 200}";
type = Stem;
},
{
horizontal = 1;
place = "{1650, -20}";
target = down;
type = TopGhost;
},
{
place = "{244, 250}";
type = Stem;
},
{
place = "{1030, 260}";
type = Stem;
}
);
layerId = "e8d1f046-7750-4839-b2c6-57e680534bd5";
paths = (
{
closed = 1;
nodes = (
"494 0 LINE",
"494 326 LINE",
"748 326 LINE SMOOTH",
"1070 326 OFFCURVE",
"1290 508 OFFCURVE",
"1290 821 CURVE SMOOTH",
"1290 1133 OFFCURVE",
"1070 1315 OFFCURVE",
"748 1315 CURVE SMOOTH",
"494 1315 LINE",
"494 1650 LINE",
"244 1650 LINE",
"244 0 LINE"
);
},
{
closed = 1;
nodes = (
"494 1115 LINE",
"675 1115 LINE SMOOTH",
"879 1115 OFFCURVE",
"1030 1018 OFFCURVE",
"1030 821 CURVE SMOOTH",
"1030 624 OFFCURVE",
"879 526 OFFCURVE",
"675 526 CURVE SMOOTH",
"494 526 LINE"
);
}
);
width = 1396;
},
{
anchors = (
{
name = bottom;
position = "{692, 0}";
},
{
name = top;
position = "{692, 1650}";
}
);
hints = (
{
horizontal = 1;
place = "{333, 164}";
type = Stem;
},
{
horizontal = 1;
place = "{1141, 164}";
type = Stem;
},
{
horizontal = 1;
place = "{1650, -20}";
target = down;
type = TopGhost;
},
{
place = "{256, 204}";
type = Stem;
},
{
place = "{1048, 211}";
type = Stem;
}
);
layerId = "3e2ba9c9-8461-4c64-8143-df88a38fbe08";
paths = (
{
closed = 1;
nodes = (
"460 0 LINE",
"460 333 LINE",
"724 333 LINE SMOOTH",
"1047 333 OFFCURVE",
"1259 517 OFFCURVE",
"1259 819 CURVE SMOOTH",
"1259 1121 OFFCURVE",
"1047 1305 OFFCURVE",
"724 1305 CURVE SMOOTH",
"460 1305 LINE",
"460 1650 LINE",
"256 1650 LINE",
"256 0 LINE"
);
},
{
closed = 1;
nodes = (
"460 1141 LINE",
"669 1141 LINE SMOOTH",
"893 1141 OFFCURVE",
"1048 1026 OFFCURVE",
"1048 819 CURVE SMOOTH",
"1048 612 OFFCURVE",
"893 497 OFFCURVE",
"669 497 CURVE SMOOTH",
"460 497 LINE"
);
}
);
width = 1383;
},
{
anchors = (
{
name = bottom;
position = "{684, 0}";
},
{
name = top;
position = "{684, 1650}";
}
);
hints = (
{
horizontal = 1;
place = "{343, 119}";
type = Stem;
},
{
horizontal = 1;
place = "{1173, 119}";
type = Stem;
},
{
horizontal = 1;
place = "{1650, -20}";
target = down;
type = TopGhost;
},
{
place = "{271, 146}";
type = Stem;
},
{
place = "{1070, 148}";
type = Stem;
}
);
layerId = "e702a883-bc41-413c-af83-57815b8e3e41";
paths = (
{
closed = 1;
nodes = (
"417 0 LINE",
"417 343 LINE",
"694 343 LINE SMOOTH",
"1017 343 OFFCURVE",
"1218 528 OFFCURVE",
"1218 818 CURVE SMOOTH",
"1218 1107 OFFCURVE",
"1017 1292 OFFCURVE",
"694 1292 CURVE SMOOTH",
"417 1292 LINE",
"417 1650 LINE",
"271 1650 LINE",
"271 0 LINE"
);
},
{
closed = 1;
nodes = (
"417 1173 LINE",
"661 1173 LINE SMOOTH",
"910 1173 OFFCURVE",
"1070 1037 OFFCURVE",
"1070 818 CURVE SMOOTH",
"1070 598 OFFCURVE",
"910 462 OFFCURVE",
"661 462 CURVE SMOOTH",
"417 462 LINE"
);
}
);
width = 1367;
},
{
anchors = (
{
name = bottom;
position = "{678, 0}";
},
{
name = top;
position = "{678, 1650}";
}
);
hints = (
{
horizontal = 1;
place = "{350, 88}";
type = Stem;
},
{
horizontal = 1;
place = "{1195, 88}";
type = Stem;
},
{
horizontal = 1;
place = "{1650, -20}";
target = down;
type = TopGhost;
},
{
place = "{281, 106}";
type = Stem;
},
{
place = "{1086, 105}";
type = Stem;
}
);
layerId = "89499a33-ee22-4529-a629-c9afa075ab0d";
paths = (
{
closed = 1;
nodes = (
"387 0 LINE",
"387 350 LINE",
"673 350 LINE SMOOTH",
"997 350 OFFCURVE",
"1191 536 OFFCURVE",
"1191 817 CURVE SMOOTH",
"1191 1097 OFFCURVE",
"997 1283 OFFCURVE",
"673 1283 CURVE SMOOTH",
"387 1283 LINE",
"387 1650 LINE",
"281 1650 LINE",
"281 0 LINE"
);
},
{
closed = 1;
nodes = (
"387 1195 LINE",
"655 1195 LINE SMOOTH",
"923 1195 OFFCURVE",
"1086 1045 OFFCURVE",
"1086 817 CURVE SMOOTH",
"1086 588 OFFCURVE",
"923 438 OFFCURVE",
"655 438 CURVE SMOOTH",
"387 438 LINE"
);
}
);
width = 1356;
},
{
anchors = (
{
name = bottom;
position = "{675, 0}";
},
{
name = top;
position = "{675, 1650}";
}
);
hints = (
{
horizontal = 1;
place = "{355, 65}";
type = Stem;
},
{
horizontal = 1;
place = "{1211, 65}";
type = Stem;
},
{
horizontal = 1;
place = "{1650, -20}";
target = down;
type = TopGhost;
},
{
place = "{288, 76}";
type = Stem;
},
{
place = "{1097, 73}";
type = Stem;
}
);
layerId = "7b9d160b-1bc8-4aa8-aa2c-85d968a9ba41";
paths = (
{
closed = 1;
nodes = (
"364 0 LINE",
"364 355 LINE",
"657 355 LINE SMOOTH",
"981 355 OFFCURVE",
"1170 542 OFFCURVE",
"1170 816 CURVE SMOOTH",
"1170 1089 OFFCURVE",
"981 1276 OFFCURVE",
"657 1276 CURVE SMOOTH",
"364 1276 LINE",
"364 1650 LINE",
"288 1650 LINE",
"288 0 LINE"
);
},
{
closed = 1;
nodes = (
"364 1211 LINE",
"650 1211 LINE SMOOTH",
"931 1211 OFFCURVE",
"1097 1050 OFFCURVE",
"1097 816 CURVE SMOOTH",
"1097 581 OFFCURVE",
"931 420 OFFCURVE",
"650 420 CURVE SMOOTH",
"364 420 LINE"
);
}
);
width = 1348;
},
{
anchors = (
{
name = bottom;
position = "{672, 0}";
},
{
name = top;
position = "{672, 1650}";
}
);
hints = (
{
horizontal = 1;
place = "{358, 50}";
type = Stem;
},
{
horizontal = 1;
place = "{1222, 50}";
type = Stem;
},
{
horizontal = 1;
place = "{1650, -20}";
target = down;
type = TopGhost;
},
{
place = "{293, 56}";
type = Stem;
},
{
place = "{1105, 52}";
type = Stem;
}
);
layerId = "30428d78-2e09-4e0b-978b-a63d31127a95";
paths = (
{
closed = 1;
nodes = (
"349 0 LINE",
"349 358 LINE",
"647 358 LINE SMOOTH",
"971 358 OFFCURVE",
"1157 546 OFFCURVE",
"1157 815 CURVE SMOOTH",
"1157 1084 OFFCURVE",
"971 1272 OFFCURVE",
"647 1272 CURVE SMOOTH",
"349 1272 LINE",
"349 1650 LINE",
"293 1650 LINE",
"293 0 LINE"
);
},
{
closed = 1;
nodes = (
"349 1222 LINE",
"647 1222 LINE SMOOTH",
"937 1222 OFFCURVE",
"1105 1054 OFFCURVE",
"1105 815 CURVE SMOOTH",
"1105 576 OFFCURVE",
"937 408 OFFCURVE",
"647 408 CURVE SMOOTH",
"349 408 LINE"
);
}
);
width = 1343;
}
);
unicode = 00DE;
},
{
glyphname = Q;
layers = (
{
components = (
{
name = O;
alignment = -1;
}
);
layerId = "6b09ce2e-afcf-4aca-aac2-7dbc8e1b58f4";
paths = (
{
closed = 1;
nodes = (
"768 614 LINE",
"957 339 OFFCURVE",
"1304 72 OFFCURVE",
"1636 -54 CURVE",
"1830 338 LINE",
"1458 434 OFFCURVE",
"1189 585 OFFCURVE",
"993 807 CURVE"
);
}
);
width = 1871;
},
{
components = (
{
name = O;
transform = "{1, 0, 0, 1, -6.78, -0.271}";
alignment = -1;
}
);
layerId = "165b9972-5639-46b0-8551-47f8199b5798";
paths = (
{
closed = 1;
nodes = (
"824 587 LINE",
"1016 323 OFFCURVE",
"1350 69 OFFCURVE",
"1668 -54 CURVE",
"1834 281 LINE",
"1486 377 OFFCURVE",
"1218 532 OFFCURVE",
"1018 751 CURVE"
);
}
);
width = 1895;
},
{
components = (
{
name = O;
transform = "{1, 0, 0, 1, -13.983, -0.559}";
alignment = -1;
}
);
layerId = "88dbb4cf-2a0e-4722-85a3-f94739c801e9";
paths = (
{
closed = 1;
nodes = (
"884 558 LINE",
"1078 306 OFFCURVE",
"1398 65 OFFCURVE",
"1703 -54 CURVE",
"1839 221 LINE",
"1515 316 OFFCURVE",
"1249 475 OFFCURVE",
"1044 691 CURVE"
);
}
);
width = 1921;
},
{
components = (
{
name = O;
transform = "{1, 0, 0, 1, -20.127, -0.805}";
alignment = -1;
}
);
layerId = "e8d1f046-7750-4839-b2c6-57e680534bd5";
paths = (
{
closed = 1;
nodes = (
"935 533 LINE",
"1131 292 OFFCURVE",
"1440 62 OFFCURVE",
"1732 -54 CURVE",
"1843 170 LINE",
"1540 264 OFFCURVE",
"1276 426 OFFCURVE",
"1066 640 CURVE"
);
}
);
width = 1943;
},
{
components = (
{
name = O;
transform = "{1, 0, 0, 1, -25, -1}";
alignment = -1;
}
);
layerId = "3e2ba9c9-8461-4c64-8143-df88a38fbe08";
paths = (
{
closed = 1;
nodes = (
"975 513 LINE",
"1173 280 OFFCURVE",
"1473 59 OFFCURVE",
"1755 -54 CURVE",
"1846 129 LINE",
"1560 223 OFFCURVE",
"1297 387 OFFCURVE",
"1084 599 CURVE"
);
}
);
width = 1961;
},
{
components = (
{
name = O;
transform = "{1, 0, 0, 1, -31.27, -1}";
alignment = -1;
}
);
layerId = "e702a883-bc41-413c-af83-57815b8e3e41";
paths = (
{
closed = 1;
nodes = (
"1026 489 LINE",
"1223 265 OFFCURVE",
"1509 56 OFFCURVE",
"1785 -54 CURVE",
"1847 78 LINE",
"1574 172 OFFCURVE",
"1308 347 OFFCURVE",
"1104 551 CURVE"
);
}
);
width = 1983;
},
{
components = (
{
name = O;
transform = "{1, 0, 0, 1, -35.595, -1}";
alignment = -1;
}
);
layerId = "89499a33-ee22-4529-a629-c9afa075ab0d";
paths = (
{
closed = 1;
nodes = (
"1061 472 LINE",
"1257 255 OFFCURVE",
"1533 54 OFFCURVE",
"1805 -54 CURVE",
"1848 43 LINE",
"1583 136 OFFCURVE",
"1315 320 OFFCURVE",
"1117 518 CURVE"
);
}
);
width = 1999;
},
{
components = (
{
name = O;
transform = "{1, 0, 0, 1, -38.838, -1}";
alignment = -1;
}
);
layerId = "7b9d160b-1bc8-4aa8-aa2c-85d968a9ba41";
paths = (
{
closed = 1;
nodes = (
"1087 459 LINE",
"1283 247 OFFCURVE",
"1552 53 OFFCURVE",
"1820 -54 CURVE",
"1849 17 LINE",
"1590 110 OFFCURVE",
"1320 300 OFFCURVE",
"1127 493 CURVE"
);
}
);
width = 2010;
},
{
components = (
{
name = O;
transform = "{1, 0, 0, 1, -41, -1}";
alignment = -1;
}
);
layerId = "30428d78-2e09-4e0b-978b-a63d31127a95";
paths = (
{
closed = 1;
nodes = (
"1104 450 LINE",
"1300 242 OFFCURVE",
"1564 52 OFFCURVE",
"1830 -54 CURVE",
"1849 0 LINE",
"1595 92 OFFCURVE",
"1324 286 OFFCURVE",
"1134 476 CURVE"
);
}
);
width = 2018;
}
);
unicode = 0051;
},
{
glyphname = R;
layers = (
{
anchors = (
{
name = bottom;
position = "{792, 0}";
},
{
name = top;
position = "{792, 1650}";
}
);
hints = (
{
horizontal = 1;
place = "{1300, 350}";
type = Stem;
},
{
horizontal = 1;
place = "{572, 385}";
type = Stem;
},
{
place = "{196, 440}";
type = Stem;
},
{
horizontal = 1;
place = "{0, 21}";
target = up;
type = BottomGhost;
},
{
place = "{958, 464}";
type = Stem;
}
);
layerId = "6b09ce2e-afcf-4aca-aac2-7dbc8e1b58f4";
paths = (
{
closed = 1;
nodes = (
"636 1300 LINE",
"704 1300 LINE SMOOTH",
"822 1300 OFFCURVE",
"958 1282 OFFCURVE",
"958 1129 CURVE SMOOTH",
"958 978 OFFCURVE",
"822 957 OFFCURVE",
"704 957 CURVE SMOOTH",
"636 957 LINE"
);
},
{
closed = 1;
nodes = (
"636 0 LINE",
"636 572 LINE",
"637 572 LINE",
"1080 0 LINE",
"1638 0 LINE",
"1088 645 LINE",
"1286 713 OFFCURVE",
"1422 874 OFFCURVE",
"1422 1129 CURVE SMOOTH",
"1422 1477 OFFCURVE",
"1168 1650 OFFCURVE",
"848 1650 CURVE SMOOTH",
"196 1650 LINE",
"196 0 LINE"
);
}
);
width = 1584;
},
{
anchors = (
{
name = bottom;
position = "{771, 0}";
},
{
name = top;
position = "{771, 1650}";
}
);
hints = (
{
horizontal = 1;
place = "{1350, 300}";
type = Stem;
},
{
horizontal = 1;
place = "{599, 328}";
type = Stem;
},
{
place = "{212, 376}";
type = Stem;
},
{
horizontal = 1;
place = "{0, 21}";
target = up;
type = BottomGhost;
},
{
place = "{982, 396}";
type = Stem;
}
);
layerId = "165b9972-5639-46b0-8551-47f8199b5798";
paths = (
{
closed = 1;
nodes = (
"588 1350 LINE",
"695 1350 LINE SMOOTH",
"845 1350 OFFCURVE",
"982 1305 OFFCURVE",
"982 1139 CURVE SMOOTH",
"982 975 OFFCURVE",
"845 927 OFFCURVE",
"695 927 CURVE SMOOTH",
"588 927 LINE"
);
},
{
closed = 1;
nodes = (
"588 0 LINE",
"588 599 LINE",
"631 599 LINE",
"1092 0 LINE",
"1569 0 LINE",
"1021 658 LINE",
"1236 718 OFFCURVE",
"1378 882 OFFCURVE",
"1378 1139 CURVE SMOOTH",
"1378 1474 OFFCURVE",
"1136 1650 OFFCURVE",
"815 1650 CURVE SMOOTH",
"212 1650 LINE",
"212 0 LINE"
);
}
);
width = 1543;
},
{
anchors = (
{
name = bottom;
position = "{749, 0}";
},
{
name = top;
position = "{749, 1650}";
}
);
hints = (
{
horizontal = 1;
place = "{1404, 246}";
type = Stem;
},
{
horizontal = 1;
place = "{628, 267}";
type = Stem;
},
{
place = "{229, 308}";
type = Stem;
},
{
horizontal = 1;
place = "{0, 21}";
target = up;
type = BottomGhost;
},
{
place = "{1008, 323}";
type = Stem;
}
);
layerId = "88dbb4cf-2a0e-4722-85a3-f94739c801e9";
paths = (
{
closed = 1;
nodes = (
"537 1404 LINE",
"685 1404 LINE SMOOTH",
"869 1404 OFFCURVE",
"1008 1329 OFFCURVE",
"1008 1150 CURVE SMOOTH",
"1008 972 OFFCURVE",
"869 895 OFFCURVE",
"685 895 CURVE SMOOTH",
"537 895 LINE"
);
},
{
closed = 1;
nodes = (
"537 0 LINE",
"537 628 LINE",
"624 628 LINE",
"1105 0 LINE",
"1496 0 LINE",
"949 671 LINE",
"1182 723 OFFCURVE",
"1331 891 OFFCURVE",
"1331 1150 CURVE SMOOTH",
"1331 1470 OFFCURVE",
"1103 1650 OFFCURVE",
"779 1650 CURVE SMOOTH",
"229 1650 LINE",
"229 0 LINE"
);
}
);
width = 1499;
},
{
anchors = (
{
name = bottom;
position = "{730, 0}";
},
{
name = top;
position = "{730, 1650}";
}
);
hints = (
{
horizontal = 1;
place = "{1450, 200}";
type = Stem;
},
{
horizontal = 1;
place = "{653, 215}";
type = Stem;
},
{
place = "{244, 250}";
type = Stem;
},
{
horizontal = 1;
place = "{0, 21}";
target = up;
type = BottomGhost;
},
{
place = "{1030, 261}";
type = Stem;
}
);
layerId = "e8d1f046-7750-4839-b2c6-57e680534bd5";
paths = (
{
closed = 1;
nodes = (
"494 1450 LINE",
"676 1450 LINE SMOOTH",
"890 1450 OFFCURVE",
"1030 1349 OFFCURVE",
"1030 1159 CURVE SMOOTH",
"1030 969 OFFCURVE",
"890 868 OFFCURVE",
"676 868 CURVE SMOOTH",
"494 868 LINE"
);
},
{
closed = 1;
nodes = (
"494 0 LINE",
"494 653 LINE",
"618 653 LINE",
"1116 0 LINE",
"1434 0 LINE",
"888 682 LINE",
"1136 727 OFFCURVE",
"1291 898 OFFCURVE",
"1291 1159 CURVE SMOOTH",
"1291 1467 OFFCURVE",
"1075 1650 OFFCURVE",
"748 1650 CURVE SMOOTH",
"244 1650 LINE",
"244 0 LINE"
);
}
);
width = 1462;
},
{
anchors = (
{
name = bottom;
position = "{716, 0}";
},
{
name = top;
position = "{716, 1650}";
}
);
hints = (
{
horizontal = 1;
place = "{1486, 164}";
type = Stem;
},
{
horizontal = 1;
place = "{673, 173}";
type = Stem;
},
{
place = "{256, 204}";
type = Stem;
},
{
horizontal = 1;
place = "{0, 21}";
target = up;
type = BottomGhost;
},
{
place = "{1048, 211}";
type = Stem;
}
);
layerId = "3e2ba9c9-8461-4c64-8143-df88a38fbe08";
paths = (
{
closed = 1;
nodes = (
"460 1486 LINE",
"669 1486 LINE SMOOTH",
"907 1486 OFFCURVE",
"1048 1365 OFFCURVE",
"1048 1166 CURVE SMOOTH",
"1048 967 OFFCURVE",
"907 846 OFFCURVE",
"669 846 CURVE SMOOTH",
"460 846 LINE"
);
},
{
closed = 1;
nodes = (
"460 0 LINE",
"460 673 LINE",
"614 673 LINE",
"1125 0 LINE",
"1384 0 LINE",
"840 691 LINE",
"1100 730 OFFCURVE",
"1259 904 OFFCURVE",
"1259 1166 CURVE SMOOTH",
"1259 1465 OFFCURVE",
"1052 1650 OFFCURVE",
"724 1650 CURVE SMOOTH",
"256 1650 LINE",
"256 0 LINE"
);
}
);
width = 1432;
},
{
anchors = (
{
name = bottom;
position = "{696, 0}";
},
{
name = top;
position = "{696, 1650}";
}
);
hints = (
{
horizontal = 1;
place = "{1531, 119}";
type = Stem;
},
{
horizontal = 1;
place = "{703, 125}";
type = Stem;
},
{
place = "{271, 146}";
type = Stem;
},
{
horizontal = 1;
place = "{0, 21}";
target = up;
type = BottomGhost;
},
{
place = "{1070, 149}";
type = Stem;
}
);
layerId = "e702a883-bc41-413c-af83-57815b8e3e41";
paths = (
{
closed = 1;
nodes = (
"417 1531 LINE",
"660 1531 LINE SMOOTH",
"919 1531 OFFCURVE",
"1070 1393 OFFCURVE",
"1070 1180 CURVE SMOOTH",
"1070 966 OFFCURVE",
"919 828 OFFCURVE",
"660 828 CURVE SMOOTH",
"417 828 LINE"
);
},
{
closed = 1;
nodes = (
"417 0 LINE",
"417 703 LINE",
"604 703 LINE",
"1136 0 LINE",
"1321 0 LINE",
"770 715 LINE",
"1035 738 OFFCURVE",
"1219 906 OFFCURVE",
"1219 1180 CURVE SMOOTH",
"1219 1465 OFFCURVE",
"1020 1650 OFFCURVE",
"694 1650 CURVE SMOOTH",
"271 1650 LINE",
"271 0 LINE"
);
}
);
width = 1394;
},
{
anchors = (
{
name = bottom;
position = "{684, 0}";
},
{
name = top;
position = "{684, 1650}";
}
);
hints = (
{
horizontal = 1;
place = "{1562, 88}";
type = Stem;
},
{
horizontal = 1;
place = "{724, 92}";
type = Stem;
},
{
place = "{281, 106}";
type = Stem;
},
{
horizontal = 1;
place = "{0, 21}";
target = up;
type = BottomGhost;
},
{
place = "{1086, 106}";
type = Stem;
}
);
layerId = "89499a33-ee22-4529-a629-c9afa075ab0d";
paths = (
{
closed = 1;
nodes = (
"387 1562 LINE",
"654 1562 LINE SMOOTH",
"927 1562 OFFCURVE",
"1086 1412 OFFCURVE",
"1086 1189 CURVE SMOOTH",
"1086 966 OFFCURVE",
"927 816 OFFCURVE",
"654 816 CURVE SMOOTH",
"387 816 LINE"
);
},
{
closed = 1;
nodes = (
"387 0 LINE",
"387 724 LINE",
"597 724 LINE",
"1143 0 LINE",
"1278 0 LINE",
"721 731 LINE",
"991 744 OFFCURVE",
"1192 907 OFFCURVE",
"1192 1189 CURVE SMOOTH",
"1192 1465 OFFCURVE",
"998 1650 OFFCURVE",
"673 1650 CURVE SMOOTH",
"281 1650 LINE",
"281 0 LINE"
);
}
);
width = 1368;
},
{
anchors = (
{
name = bottom;
position = "{674, 0}";
},
{
name = top;
position = "{674, 1650}";
}
);
hints = (
{
horizontal = 1;
place = "{1585, 65}";
type = Stem;
},
{
horizontal = 1;
place = "{740, 67}";
type = Stem;
},
{
place = "{288, 76}";
type = Stem;
},
{
horizontal = 1;
place = "{0, 21}";
target = up;
type = BottomGhost;
},
{
place = "{1097, 74}";
type = Stem;
}
);
layerId = "7b9d160b-1bc8-4aa8-aa2c-85d968a9ba41";
paths = (
{
closed = 1;
nodes = (
"364 1585 LINE",
"650 1585 LINE SMOOTH",
"933 1585 OFFCURVE",
"1097 1426 OFFCURVE",
"1097 1196 CURVE SMOOTH",
"1097 966 OFFCURVE",
"933 807 OFFCURVE",
"650 807 CURVE SMOOTH",
"364 807 LINE"
);
},
{
closed = 1;
nodes = (
"364 0 LINE",
"364 740 LINE",
"592 740 LINE",
"1149 0 LINE",
"1246 0 LINE",
"684 743 LINE",
"957 748 OFFCURVE",
"1171 908 OFFCURVE",
"1171 1196 CURVE SMOOTH",
"1171 1465 OFFCURVE",
"982 1650 OFFCURVE",
"657 1650 CURVE SMOOTH",
"288 1650 LINE",
"288 0 LINE"
);
}
);
width = 1349;
},
{
anchors = (
{
name = bottom;
position = "{668, 0}";
},
{
name = top;
position = "{668, 1650}";
}
);
hints = (
{
horizontal = 1;
place = "{1600, 50}";
type = Stem;
},
{
horizontal = 1;
place = "{751, 50}";
type = Stem;
},
{
place = "{293, 56}";
type = Stem;
},
{
horizontal = 1;
place = "{0, 21}";
target = up;
type = BottomGhost;
},
{
place = "{1105, 52}";
type = Stem;
}
);
layerId = "30428d78-2e09-4e0b-978b-a63d31127a95";
paths = (
{
closed = 1;
nodes = (
"349 1600 LINE",
"647 1600 LINE SMOOTH",
"937 1600 OFFCURVE",
"1105 1436 OFFCURVE",
"1105 1201 CURVE SMOOTH",
"1105 966 OFFCURVE",
"937 801 OFFCURVE",
"647 801 CURVE SMOOTH",
"349 801 LINE"
);
},
{
closed = 1;
nodes = (
"349 0 LINE",
"349 751 LINE",
"588 751 LINE",
"1153 0 LINE",
"1225 0 LINE",
"660 751 LINE",
"935 751 OFFCURVE",
"1157 909 OFFCURVE",
"1157 1201 CURVE SMOOTH",
"1157 1465 OFFCURVE",
"971 1650 OFFCURVE",
"647 1650 CURVE SMOOTH",
"293 1650 LINE",
"293 0 LINE"
);
}
);
width = 1336;
}
);
unicode = 0052;
},
{
glyphname = S;
layers = (
{
anchors = (
{
name = bottom;
position = "{652, 0}";
},
{
name = top;
position = "{732, 1680}";
},
{
name = cedilla;
position = "{684, 0}";
}
);
hints = (
{
horizontal = 1;
place = "{-32, 408}";
type = Stem;
},
{
horizontal = 1;
place = "{1280, 400}";
type = Stem;
},
{
place = "{804, 484}";
type = Stem;
},
{
place = "{104, 432}";
type = Stem;
}
);
layerId = "6b09ce2e-afcf-4aca-aac2-7dbc8e1b58f4";
paths = (
{
closed = 1;
nodes = (
"1037 -32 OFFCURVE",
"1288 165 OFFCURVE",
"1288 498 CURVE SMOOTH",
"1288 775 OFFCURVE",
"1071 897 OFFCURVE",
"777 1016 CURVE SMOOTH",
"582 1095 OFFCURVE",
"536 1128 OFFCURVE",
"536 1179 CURVE SMOOTH",
"536 1237 OFFCURVE",
"595 1280 OFFCURVE",
"698 1280 CURVE SMOOTH",
"794 1280 OFFCURVE",
"921 1243 OFFCURVE",
"1026 1184 CURVE",
"1200 1538 LINE",
"1082 1624 OFFCURVE",
"877 1680 OFFCURVE",
"702 1680 CURVE SMOOTH",
"332 1680 OFFCURVE",
"104 1427 OFFCURVE",
"104 1167 CURVE SMOOTH",
"104 957 OFFCURVE",
"228 823 OFFCURVE",
"548 685 CURVE SMOOTH",
"750 598 OFFCURVE",
"804 557 OFFCURVE",
"804 489 CURVE SMOOTH",
"804 427 OFFCURVE",
"749 376 OFFCURVE",
"633 376 CURVE SMOOTH",
"515 376 OFFCURVE",
"369 429 OFFCURVE",
"218 532 CURVE",
"11 178 LINE",
"151 51 OFFCURVE",
"398 -32 OFFCURVE",
"650 -32 CURVE SMOOTH"
);
}
);
width = 1361;
},
{
anchors = (
{
name = bottom;
position = "{664, 0}";
},
{
name = cedilla;
position = "{696, 0}";
},
{
name = top;
position = "{725, 1676}";
}
);
hints = (
{
horizontal = 1;
place = "{-32, 348}";
type = Stem;
},
{
horizontal = 1;
place = "{1338, 342}";
type = Stem;
},
{
place = "{859, 412}";
type = Stem;
},
{
place = "{131, 368}";
type = Stem;
}
);
layerId = "165b9972-5639-46b0-8551-47f8199b5798";
paths = (
{
closed = 1;
nodes = (
"1024 -32 OFFCURVE",
"1271 158 OFFCURVE",
"1271 483 CURVE SMOOTH",
"1271 753 OFFCURVE",
"1067 877 OFFCURVE",
"763 996 CURVE SMOOTH",
"558 1076 OFFCURVE",
"499 1125 OFFCURVE",
"499 1195 CURVE SMOOTH",
"499 1274 OFFCURVE",
"570 1338 OFFCURVE",
"695 1338 CURVE SMOOTH",
"801 1338 OFFCURVE",
"924 1295 OFFCURVE",
"1020 1233 CURVE",
"1181 1522 LINE",
"1075 1612 OFFCURVE",
"882 1680 OFFCURVE",
"699 1680 CURVE SMOOTH",
"350 1680 OFFCURVE",
"131 1441 OFFCURVE",
"131 1186 CURVE SMOOTH",
"131 978 OFFCURVE",
"257 840 OFFCURVE",
"567 712 CURVE SMOOTH",
"793 619 OFFCURVE",
"859 566 OFFCURVE",
"859 475 CURVE SMOOTH",
"859 381 OFFCURVE",
"778 316 OFFCURVE",
"645 316 CURVE SMOOTH",
"514 316 OFFCURVE",
"365 378 OFFCURVE",
"226 488 CURVE",
"38 202 LINE",
"165 64 OFFCURVE",
"406 -32 OFFCURVE",
"659 -32 CURVE SMOOTH"
);
}
);
width = 1362;
},
{
anchors = (
{
name = bottom;
position = "{678, 0}";
},
{
name = cedilla;
position = "{710, 0}";
},
{
name = top;
position = "{717, 1672}";
}
);
hints = (
{
horizontal = 1;
place = "{-32, 285}";
type = Stem;
},
{
horizontal = 1;
place = "{1399, 281}";
type = Stem;
},
{
place = "{917, 335}";
type = Stem;
},
{
place = "{160, 301}";
type = Stem;
}
);
layerId = "88dbb4cf-2a0e-4722-85a3-f94739c801e9";
paths = (
{
closed = 1;
nodes = (
"1009 -32 OFFCURVE",
"1252 152 OFFCURVE",
"1252 468 CURVE SMOOTH",
"1252 729 OFFCURVE",
"1063 855 OFFCURVE",
"748 975 CURVE SMOOTH",
"534 1056 OFFCURVE",
"461 1121 OFFCURVE",
"461 1212 CURVE SMOOTH",
"461 1312 OFFCURVE",
"545 1399 OFFCURVE",
"693 1399 CURVE SMOOTH",
"809 1399 OFFCURVE",
"927 1350 OFFCURVE",
"1012 1284 CURVE",
"1161 1504 LINE",
"1067 1599 OFFCURVE",
"886 1680 OFFCURVE",
"697 1680 CURVE SMOOTH",
"371 1680 OFFCURVE",
"160 1456 OFFCURVE",
"160 1205 CURVE SMOOTH",
"160 1001 OFFCURVE",
"287 859 OFFCURVE",
"588 741 CURVE SMOOTH",
"838 642 OFFCURVE",
"917 577 OFFCURVE",
"917 461 CURVE SMOOTH",
"917 332 OFFCURVE",
"808 253 OFFCURVE",
"658 253 CURVE SMOOTH",
"514 253 OFFCURVE",
"361 325 OFFCURVE",
"235 442 CURVE",
"66 229 LINE",
"181 79 OFFCURVE",
"416 -32 OFFCURVE",
"670 -32 CURVE SMOOTH"
);
}
);
width = 1364;
},
{
anchors = (
{
name = bottom;
position = "{689, 0}";
},
{
name = cedilla;
position = "{721, 0}";
},
{
name = top;
position = "{712, 1670}";
}
);
hints = (
{
horizontal = 1;
place = "{-32, 231}";
type = Stem;
},
{
horizontal = 1;
place = "{1452, 228}";
type = Stem;
},
{
place = "{966, 270}";
type = Stem;
},
{
place = "{185, 243}";
type = Stem;
}
);
layerId = "e8d1f046-7750-4839-b2c6-57e680534bd5";
paths = (
{
closed = 1;
nodes = (
"996 -32 OFFCURVE",
"1236 146 OFFCURVE",
"1236 455 CURVE SMOOTH",
"1236 709 OFFCURVE",
"1059 837 OFFCURVE",
"735 957 CURVE SMOOTH",
"513 1039 OFFCURVE",
"428 1118 OFFCURVE",
"428 1227 CURVE SMOOTH",
"428 1346 OFFCURVE",
"523 1452 OFFCURVE",
"691 1452 CURVE SMOOTH",
"815 1452 OFFCURVE",
"929 1397 OFFCURVE",
"1006 1329 CURVE",
"1143 1489 LINE",
"1060 1588 OFFCURVE",
"889 1680 OFFCURVE",
"694 1680 CURVE SMOOTH",
"388 1680 OFFCURVE",
"185 1469 OFFCURVE",
"185 1222 CURVE SMOOTH",
"185 1021 OFFCURVE",
"315 877 OFFCURVE",
"606 766 CURVE SMOOTH",
"877 663 OFFCURVE",
"966 586 OFFCURVE",
"966 449 CURVE SMOOTH",
"966 291 OFFCURVE",
"833 199 OFFCURVE",
"669 199 CURVE SMOOTH",
"513 199 OFFCURVE",
"357 279 OFFCURVE",
"243 402 CURVE",
"90 251 LINE",
"194 91 OFFCURVE",
"424 -32 OFFCURVE",
"679 -32 CURVE SMOOTH"
);
}
);
width = 1365;
},
{
anchors = (
{
name = bottom;
position = "{698, 0}";
},
{
name = top;
position = "{707, 1668}";
},
{
name = cedilla;
position = "{730, 0}";
}
);
hints = (
{
horizontal = 1;
place = "{-32, 188}";
type = Stem;
},
{
horizontal = 1;
place = "{1494, 186}";
type = Stem;
},
{
place = "{1005, 218}";
type = Stem;
},
{
place = "{204, 197}";
type = Stem;
}
);
layerId = "3e2ba9c9-8461-4c64-8143-df88a38fbe08";
paths = (
{
closed = 1;
nodes = (
"986 -32 OFFCURVE",
"1223 141 OFFCURVE",
"1223 445 CURVE SMOOTH",
"1223 693 OFFCURVE",
"1056 822 OFFCURVE",
"724 943 CURVE SMOOTH",
"495 1026 OFFCURVE",
"401 1116 OFFCURVE",
"401 1239 CURVE SMOOTH",
"401 1373 OFFCURVE",
"505 1494 OFFCURVE",
"689 1494 CURVE SMOOTH",
"820 1494 OFFCURVE",
"931 1434 OFFCURVE",
"1001 1364 CURVE",
"1129 1477 LINE",
"1054 1579 OFFCURVE",
"891 1680 OFFCURVE",
"692 1680 CURVE SMOOTH",
"401 1680 OFFCURVE",
"204 1480 OFFCURVE",
"204 1236 CURVE SMOOTH",
"204 1037 OFFCURVE",
"335 892 OFFCURVE",
"620 786 CURVE SMOOTH",
"907 680 OFFCURVE",
"1005 593 OFFCURVE",
"1005 439 CURVE SMOOTH",
"1005 258 OFFCURVE",
"853 156 OFFCURVE",
"677 156 CURVE SMOOTH",
"512 156 OFFCURVE",
"353 243 OFFCURVE",
"249 371 CURVE",
"108 269 LINE",
"204 100 OFFCURVE",
"430 -32 OFFCURVE",
"686 -32 CURVE SMOOTH"
);
}
);
width = 1366;
},
{
anchors = (
{
name = bottom;
position = "{696, 0}";
},
{
name = cedilla;
position = "{728, 0}";
},
{
name = top;
position = "{701, 1663}";
}
);
hints = (
{
horizontal = 1;
place = "{-32, 134}";
type = Stem;
},
{
horizontal = 1;
place = "{1547, 133}";
type = Stem;
},
{
place = "{1054, 153}";
type = Stem;
},
{
place = "{228, 140}";
type = Stem;
}
);
layerId = "e702a883-bc41-413c-af83-57815b8e3e41";
paths = (
{
closed = 1;
nodes = (
"973 -32 OFFCURVE",
"1207 135 OFFCURVE",
"1207 432 CURVE SMOOTH",
"1207 673 OFFCURVE",
"1052 804 OFFCURVE",
"711 925 CURVE SMOOTH",
"473 1010 OFFCURVE",
"368 1113 OFFCURVE",
"368 1254 CURVE SMOOTH",
"368 1407 OFFCURVE",
"483 1547 OFFCURVE",
"687 1547 CURVE SMOOTH",
"841 1547 OFFCURVE",
"958 1467 OFFCURVE",
"1016 1385 CURVE",
"1111 1462 LINE",
"1047 1568 OFFCURVE",
"894 1680 OFFCURVE",
"690 1680 CURVE SMOOTH",
"418 1680 OFFCURVE",
"228 1494 OFFCURVE",
"228 1253 CURVE SMOOTH",
"228 1057 OFFCURVE",
"361 911 OFFCURVE",
"638 812 CURVE SMOOTH",
"945 701 OFFCURVE",
"1054 602 OFFCURVE",
"1054 427 CURVE SMOOTH",
"1054 216 OFFCURVE",
"878 102 OFFCURVE",
"687 102 CURVE SMOOTH",
"499 102 OFFCURVE",
"325 211 OFFCURVE",
"235 361 CURVE",
"131 291 LINE",
"216 112 OFFCURVE",
"438 -32 OFFCURVE",
"694 -32 CURVE SMOOTH"
);
}
);
width = 1367;
},
{
anchors = (
{
name = bottom;
position = "{696, 0}";
},
{
name = cedilla;
position = "{728, 0}";
},
{
name = top;
position = "{697, 1662}";
}
);
hints = (
{
horizontal = 1;
place = "{-32, 97}";
type = Stem;
},
{
horizontal = 1;
place = "{1583, 97}";
type = Stem;
},
{
place = "{1088, 108}";
type = Stem;
},
{
place = "{245, 100}";
type = Stem;
}
);
layerId = "89499a33-ee22-4529-a629-c9afa075ab0d";
paths = (
{
closed = 1;
nodes = (
"964 -32 OFFCURVE",
"1196 131 OFFCURVE",
"1196 423 CURVE SMOOTH",
"1196 659 OFFCURVE",
"1049 792 OFFCURVE",
"702 913 CURVE SMOOTH",
"458 999 OFFCURVE",
"345 1111 OFFCURVE",
"345 1264 CURVE SMOOTH",
"345 1430 OFFCURVE",
"467 1583 OFFCURVE",
"685 1583 CURVE SMOOTH",
"855 1583 OFFCURVE",
"976 1490 OFFCURVE",
"1026 1399 CURVE",
"1099 1451 LINE",
"1042 1560 OFFCURVE",
"896 1680 OFFCURVE",
"688 1680 CURVE SMOOTH",
"429 1680 OFFCURVE",
"245 1503 OFFCURVE",
"245 1265 CURVE SMOOTH",
"245 1070 OFFCURVE",
"379 924 OFFCURVE",
"650 829 CURVE SMOOTH",
"972 716 OFFCURVE",
"1088 608 OFFCURVE",
"1088 418 CURVE SMOOTH",
"1088 188 OFFCURVE",
"896 65 OFFCURVE",
"694 65 CURVE SMOOTH",
"490 65 OFFCURVE",
"306 189 OFFCURVE",
"226 354 CURVE",
"147 307 LINE",
"225 121 OFFCURVE",
"443 -32 OFFCURVE",
"700 -32 CURVE SMOOTH"
);
}
);
width = 1368;
},
{
anchors = (
{
name = bottom;
position = "{695, 0}";
},
{
name = cedilla;
position = "{727, 0}";
},
{
name = top;
position = "{694, 1661}";
}
);
hints = (
{
horizontal = 1;
place = "{-32, 69}";
type = Stem;
},
{
horizontal = 1;
place = "{1610, 70}";
type = Stem;
},
{
place = "{1114, 74}";
type = Stem;
},
{
place = "{258, 70}";
type = Stem;
}
);
layerId = "7b9d160b-1bc8-4aa8-aa2c-85d968a9ba41";
paths = (
{
closed = 1;
nodes = (
"958 -32 OFFCURVE",
"1188 128 OFFCURVE",
"1188 416 CURVE SMOOTH",
"1188 648 OFFCURVE",
"1047 782 OFFCURVE",
"695 904 CURVE SMOOTH",
"447 990 OFFCURVE",
"328 1109 OFFCURVE",
"328 1272 CURVE SMOOTH",
"328 1447 OFFCURVE",
"456 1610 OFFCURVE",
"684 1610 CURVE SMOOTH",
"866 1610 OFFCURVE",
"990 1507 OFFCURVE",
"1034 1409 CURVE",
"1091 1443 LINE",
"1039 1554 OFFCURVE",
"898 1680 OFFCURVE",
"687 1680 CURVE SMOOTH",
"438 1680 OFFCURVE",
"258 1510 OFFCURVE",
"258 1274 CURVE SMOOTH",
"258 1080 OFFCURVE",
"393 933 OFFCURVE",
"659 842 CURVE SMOOTH",
"993 727 OFFCURVE",
"1114 613 OFFCURVE",
"1114 412 CURVE SMOOTH",
"1114 167 OFFCURVE",
"909 37 OFFCURVE",
"700 37 CURVE SMOOTH",
"484 37 OFFCURVE",
"292 172 OFFCURVE",
"219 349 CURVE",
"160 319 LINE",
"232 127 OFFCURVE",
"447 -32 OFFCURVE",
"705 -32 CURVE SMOOTH"
);
}
);
width = 1369;
},
{
anchors = (
{
name = bottom;
position = "{695, 0}";
},
{
name = top;
position = "{692, 1660}";
},
{
name = cedilla;
position = "{727, 0}";
}
);
hints = (
{
horizontal = 1;
place = "{-32, 50}";
type = Stem;
},
{
horizontal = 1;
place = "{1628, 52}";
type = Stem;
},
{
place = "{1131, 52}";
type = Stem;
},
{
place = "{267, 50}";
type = Stem;
}
);
layerId = "30428d78-2e09-4e0b-978b-a63d31127a95";
paths = (
{
closed = 1;
nodes = (
"954 -32 OFFCURVE",
"1183 126 OFFCURVE",
"1183 411 CURVE SMOOTH",
"1183 641 OFFCURVE",
"1046 776 OFFCURVE",
"691 898 CURVE SMOOTH",
"440 984 OFFCURVE",
"317 1108 OFFCURVE",
"317 1277 CURVE SMOOTH",
"317 1458 OFFCURVE",
"449 1628 OFFCURVE",
"684 1628 CURVE SMOOTH",
"873 1628 OFFCURVE",
"999 1518 OFFCURVE",
"1039 1416 CURVE",
"1085 1438 LINE",
"1037 1550 OFFCURVE",
"899 1680 OFFCURVE",
"686 1680 CURVE SMOOTH",
"444 1680 OFFCURVE",
"267 1514 OFFCURVE",
"267 1280 CURVE SMOOTH",
"267 1087 OFFCURVE",
"403 939 OFFCURVE",
"665 850 CURVE SMOOTH",
"1007 734 OFFCURVE",
"1131 616 OFFCURVE",
"1131 408 CURVE SMOOTH",
"1131 152 OFFCURVE",
"918 18 OFFCURVE",
"704 18 CURVE SMOOTH",
"480 18 OFFCURVE",
"283 161 OFFCURVE",
"215 345 CURVE",
"169 326 LINE",
"237 131 OFFCURVE",
"450 -32 OFFCURVE",
"708 -32 CURVE SMOOTH"
);
}
);
width = 1369;
}
);
unicode = 0053;
},
{
glyphname = Germandbls;
leftMetricsKey = H;
rightMetricsKey = S;
layers = (
{
hints = (
{
horizontal = 1;
place = "{-23, 424}";
type = Stem;
},
{
place = "{1261, 428}";
type = Stem;
},
{
place = "{1067, 444}";
type = Stem;
},
{
horizontal = 1;
place = "{1257, 424}";
type = Stem;
},
{
place = "{196, 442}";
type = Stem;
},
{
horizontal = 1;
place = "{1, 21}";
target = up;
type = BottomGhost;
}
);
layerId = "6b09ce2e-afcf-4aca-aac2-7dbc8e1b58f4";
paths = (
{
closed = 1;
nodes = (
"1439 -23 OFFCURVE",
"1689 136 OFFCURVE",
"1689 432 CURVE SMOOTH",
"1689 766 OFFCURVE",
"1371 756 OFFCURVE",
"1371 838 CURVE SMOOTH",
"1371 893 OFFCURVE",
"1511 922 OFFCURVE",
"1511 1171 CURVE SMOOTH",
"1511 1503 OFFCURVE",
"1246 1681 OFFCURVE",
"900 1681 CURVE SMOOTH",
"459 1681 OFFCURVE",
"196 1402 OFFCURVE",
"196 888 CURVE SMOOTH",
"196 1 LINE",
"638 1 LINE",
"638 935 LINE SMOOTH",
"638 1153 OFFCURVE",
"713 1257 OFFCURVE",
"868 1257 CURVE SMOOTH",
"977 1257 OFFCURVE",
"1067 1205 OFFCURVE",
"1067 1082 CURVE SMOOTH",
"1067 913 OFFCURVE",
"897 907 OFFCURVE",
"897 764 CURVE SMOOTH",
"897 555 OFFCURVE",
"1261 614 OFFCURVE",
"1261 474 CURVE SMOOTH",
"1261 426 OFFCURVE",
"1218 401 OFFCURVE",
"1134 401 CURVE SMOOTH",
"1060 401 OFFCURVE",
"981 420 OFFCURVE",
"868 466 CURVE",
"746 59 LINE",
"888 9 OFFCURVE",
"1051 -23 OFFCURVE",
"1164 -23 CURVE SMOOTH"
);
}
);
width = 1762;
},
{
hints = (
{
horizontal = 1;
place = "{-24, 362}";
type = Stem;
},
{
place = "{1257, 367}";
type = Stem;
},
{
place = "{1061, 380}";
type = Stem;
},
{
horizontal = 1;
place = "{1318, 363}";
type = Stem;
},
{
place = "{212, 378}";
type = Stem;
},
{
horizontal = 1;
place = "{1, 21}";
target = up;
type = BottomGhost;
}
);
layerId = "165b9972-5639-46b0-8551-47f8199b5798";
paths = (
{
closed = 1;
nodes = (
"1386 -24 OFFCURVE",
"1624 137 OFFCURVE",
"1624 425 CURVE SMOOTH",
"1624 766 OFFCURVE",
"1287 762 OFFCURVE",
"1287 850 CURVE SMOOTH",
"1287 910 OFFCURVE",
"1441 944 OFFCURVE",
"1441 1196 CURVE SMOOTH",
"1441 1511 OFFCURVE",
"1194 1681 OFFCURVE",
"871 1681 CURVE SMOOTH",
"457 1681 OFFCURVE",
"212 1411 OFFCURVE",
"212 927 CURVE SMOOTH",
"212 1 LINE",
"590 1 LINE",
"590 965 LINE SMOOTH",
"590 1199 OFFCURVE",
"675 1318 OFFCURVE",
"843 1318 CURVE SMOOTH",
"964 1318 OFFCURVE",
"1061 1257 OFFCURVE",
"1061 1122 CURVE SMOOTH",
"1061 940 OFFCURVE",
"883 936 OFFCURVE",
"883 790 CURVE SMOOTH",
"883 579 OFFCURVE",
"1257 635 OFFCURVE",
"1257 459 CURVE SMOOTH",
"1257 382 OFFCURVE",
"1194 338 OFFCURVE",
"1091 338 CURVE SMOOTH",
"1011 338 OFFCURVE",
"931 361 OFFCURVE",
"823 410 CURVE",
"707 69 LINE",
"846 10 OFFCURVE",
"1000 -24 OFFCURVE",
"1115 -24 CURVE SMOOTH"
);
}
);
width = 1715;
},
{
hints = (
{
horizontal = 1;
place = "{-26, 296}";
type = Stem;
},
{
place = "{1253, 302}";
type = Stem;
},
{
place = "{1055, 312}";
type = Stem;
},
{
horizontal = 1;
place = "{1382, 299}";
type = Stem;
},
{
place = "{229, 309}";
type = Stem;
},
{
horizontal = 1;
place = "{1, 21}";
target = up;
type = BottomGhost;
}
);
layerId = "88dbb4cf-2a0e-4722-85a3-f94739c801e9";
paths = (
{
closed = 1;
nodes = (
"1330 -26 OFFCURVE",
"1555 138 OFFCURVE",
"1555 416 CURVE SMOOTH",
"1555 766 OFFCURVE",
"1198 767 OFFCURVE",
"1198 862 CURVE SMOOTH",
"1198 927 OFFCURVE",
"1367 966 OFFCURVE",
"1367 1222 CURVE SMOOTH",
"1367 1520 OFFCURVE",
"1139 1681 OFFCURVE",
"839 1681 CURVE SMOOTH",
"454 1681 OFFCURVE",
"229 1419 OFFCURVE",
"229 968 CURVE SMOOTH",
"229 1 LINE",
"538 1 LINE",
"538 997 LINE SMOOTH",
"538 1247 OFFCURVE",
"633 1382 OFFCURVE",
"817 1382 CURVE SMOOTH",
"950 1382 OFFCURVE",
"1055 1311 OFFCURVE",
"1055 1163 CURVE SMOOTH",
"1055 967 OFFCURVE",
"867 966 OFFCURVE",
"867 817 CURVE SMOOTH",
"867 604 OFFCURVE",
"1253 657 OFFCURVE",
"1253 442 CURVE SMOOTH",
"1253 335 OFFCURVE",
"1169 270 OFFCURVE",
"1045 270 CURVE SMOOTH",
"960 270 OFFCURVE",
"878 297 OFFCURVE",
"775 350 CURVE",
"664 79 LINE",
"802 11 OFFCURVE",
"945 -26 OFFCURVE",
"1064 -26 CURVE SMOOTH"
);
}
);
width = 1667;
},
{
hints = (
{
horizontal = 1;
place = "{-28, 240}";
type = Stem;
},
{
place = "{1250, 246}";
type = Stem;
},
{
place = "{1050, 254}";
type = Stem;
},
{
horizontal = 1;
place = "{1437, 244}";
type = Stem;
},
{
place = "{244, 250}";
type = Stem;
},
{
horizontal = 1;
place = "{0, 21}";
target = up;
type = BottomGhost;
}
);
layerId = "e8d1f046-7750-4839-b2c6-57e680534bd5";
paths = (
{
closed = 1;
nodes = (
"1283 -28 OFFCURVE",
"1496 139 OFFCURVE",
"1496 408 CURVE SMOOTH",
"1496 766 OFFCURVE",
"1122 772 OFFCURVE",
"1122 872 CURVE SMOOTH",
"1122 942 OFFCURVE",
"1304 985 OFFCURVE",
"1304 1245 CURVE SMOOTH",
"1304 1527 OFFCURVE",
"1092 1681 OFFCURVE",
"813 1681 CURVE SMOOTH",
"452 1681 OFFCURVE",
"244 1427 OFFCURVE",
"244 1003 CURVE SMOOTH",
"244 0 LINE",
"494 0 LINE",
"494 1024 LINE SMOOTH",
"494 1288 OFFCURVE",
"598 1437 OFFCURVE",
"795 1437 CURVE SMOOTH",
"939 1437 OFFCURVE",
"1050 1357 OFFCURVE",
"1050 1199 CURVE SMOOTH",
"1050 991 OFFCURVE",
"854 992 OFFCURVE",
"854 840 CURVE SMOOTH",
"854 625 OFFCURVE",
"1250 675 OFFCURVE",
"1250 428 CURVE SMOOTH",
"1250 294 OFFCURVE",
"1148 212 OFFCURVE",
"1006 212 CURVE SMOOTH",
"916 212 OFFCURVE",
"833 242 OFFCURVE",
"734 298 CURVE",
"628 87 LINE",
"765 11 OFFCURVE",
"898 -28 OFFCURVE",
"1020 -28 CURVE SMOOTH"
);
}
);
width = 1625;
},
{
hints = (
{
horizontal = 1;
place = "{-29, 196}";
type = Stem;
},
{
place = "{1247, 202}";
type = Stem;
},
{
place = "{1046, 208}";
type = Stem;
},
{
horizontal = 1;
place = "{1481, 200}";
type = Stem;
},
{
place = "{256, 204}";
type = Stem;
},
{
horizontal = 1;
place = "{0, 21}";
target = up;
type = BottomGhost;
}
);
layerId = "3e2ba9c9-8461-4c64-8143-df88a38fbe08";
paths = (
{
closed = 1;
nodes = (
"1245 -29 OFFCURVE",
"1449 140 OFFCURVE",
"1449 403 CURVE SMOOTH",
"1449 766 OFFCURVE",
"1062 777 OFFCURVE",
"1062 881 CURVE SMOOTH",
"1062 955 OFFCURVE",
"1254 1001 OFFCURVE",
"1254 1264 CURVE SMOOTH",
"1254 1533 OFFCURVE",
"1055 1681 OFFCURVE",
"792 1681 CURVE SMOOTH",
"451 1681 OFFCURVE",
"256 1433 OFFCURVE",
"256 1031 CURVE SMOOTH",
"256 0 LINE",
"460 0 LINE",
"460 1046 LINE SMOOTH",
"460 1321 OFFCURVE",
"571 1481 OFFCURVE",
"778 1481 CURVE SMOOTH",
"930 1481 OFFCURVE",
"1046 1394 OFFCURVE",
"1046 1228 CURVE SMOOTH",
"1046 1010 OFFCURVE",
"844 1013 OFFCURVE",
"844 859 CURVE SMOOTH",
"844 643 OFFCURVE",
"1247 691 OFFCURVE",
"1247 417 CURVE SMOOTH",
"1247 263 OFFCURVE",
"1131 167 OFFCURVE",
"975 167 CURVE SMOOTH",
"881 167 OFFCURVE",
"798 200 OFFCURVE",
"702 258 CURVE",
"600 94 LINE",
"736 12 OFFCURVE",
"861 -29 OFFCURVE",
"985 -29 CURVE SMOOTH"
);
}
);
width = 1592;
},
{
hints = (
{
horizontal = 1;
place = "{-30, 140}";
type = Stem;
},
{
place = "{1244, 146}";
type = Stem;
},
{
place = "{1041, 150}";
type = Stem;
},
{
horizontal = 1;
place = "{1536, 145}";
type = Stem;
},
{
place = "{271, 146}";
type = Stem;
},
{
horizontal = 1;
place = "{0, 21}";
target = up;
type = BottomGhost;
}
);
layerId = "e702a883-bc41-413c-af83-57815b8e3e41";
paths = (
{
closed = 1;
nodes = (
"1198 -30 OFFCURVE",
"1390 141 OFFCURVE",
"1390 396 CURVE SMOOTH",
"1390 766 OFFCURVE",
"987 763 OFFCURVE",
"987 895 CURVE SMOOTH",
"987 990 OFFCURVE",
"1191 1020 OFFCURVE",
"1191 1287 CURVE SMOOTH",
"1191 1540 OFFCURVE",
"1008 1681 OFFCURVE",
"766 1681 CURVE SMOOTH",
"449 1681 OFFCURVE",
"271 1441 OFFCURVE",
"271 1066 CURVE SMOOTH",
"271 0 LINE",
"417 0 LINE",
"417 1073 LINE SMOOTH",
"417 1363 OFFCURVE",
"537 1536 OFFCURVE",
"756 1536 CURVE SMOOTH",
"919 1536 OFFCURVE",
"1041 1441 OFFCURVE",
"1041 1265 CURVE SMOOTH",
"1041 1034 OFFCURVE",
"831 1039 OFFCURVE",
"831 883 CURVE SMOOTH",
"831 665 OFFCURVE",
"1244 710 OFFCURVE",
"1244 403 CURVE SMOOTH",
"1244 223 OFFCURVE",
"1109 110 OFFCURVE",
"936 110 CURVE SMOOTH",
"831 110 OFFCURVE",
"741 151 OFFCURVE",
"639 222 CURVE",
"564 103 LINE",
"699 13 OFFCURVE",
"815 -30 OFFCURVE",
"940 -30 CURVE SMOOTH"
);
}
);
width = 1550;
},
{
hints = (
{
horizontal = 1;
place = "{-31, 102}";
type = Stem;
},
{
place = "{1242, 108}";
type = Stem;
},
{
place = "{1038, 110}";
type = Stem;
},
{
horizontal = 1;
place = "{1574, 107}";
type = Stem;
},
{
place = "{281, 106}";
type = Stem;
},
{
horizontal = 1;
place = "{0, 21}";
target = up;
type = BottomGhost;
}
);
layerId = "89499a33-ee22-4529-a629-c9afa075ab0d";
paths = (
{
closed = 1;
nodes = (
"1166 -31 OFFCURVE",
"1350 142 OFFCURVE",
"1350 392 CURVE SMOOTH",
"1350 766 OFFCURVE",
"935 754 OFFCURVE",
"935 905 CURVE SMOOTH",
"935 1014 OFFCURVE",
"1148 1034 OFFCURVE",
"1148 1303 CURVE SMOOTH",
"1148 1545 OFFCURVE",
"976 1681 OFFCURVE",
"748 1681 CURVE SMOOTH",
"448 1681 OFFCURVE",
"281 1446 OFFCURVE",
"281 1091 CURVE SMOOTH",
"281 0 LINE",
"387 0 LINE",
"387 1092 LINE SMOOTH",
"387 1392 OFFCURVE",
"513 1574 OFFCURVE",
"741 1574 CURVE SMOOTH",
"911 1574 OFFCURVE",
"1038 1473 OFFCURVE",
"1038 1290 CURVE SMOOTH",
"1038 1051 OFFCURVE",
"823 1057 OFFCURVE",
"823 899 CURVE SMOOTH",
"823 680 OFFCURVE",
"1242 724 OFFCURVE",
"1242 394 CURVE SMOOTH",
"1242 196 OFFCURVE",
"1095 71 OFFCURVE",
"910 71 CURVE SMOOTH",
"796 71 OFFCURVE",
"701 118 OFFCURVE",
"595 197 CURVE",
"539 109 LINE",
"673 14 OFFCURVE",
"783 -31 OFFCURVE",
"910 -31 CURVE SMOOTH"
);
}
);
width = 1522;
},
{
hints = (
{
horizontal = 1;
place = "{-32, 73}";
type = Stem;
},
{
place = "{1240, 79}";
type = Stem;
},
{
place = "{1035, 80}";
type = Stem;
},
{
horizontal = 1;
place = "{1602, 79}";
type = Stem;
},
{
place = "{288, 76}";
type = Stem;
},
{
horizontal = 1;
place = "{0, 21}";
target = up;
type = BottomGhost;
}
);
layerId = "7b9d160b-1bc8-4aa8-aa2c-85d968a9ba41";
paths = (
{
closed = 1;
nodes = (
"1141 -32 OFFCURVE",
"1319 142 OFFCURVE",
"1319 388 CURVE SMOOTH",
"1319 766 OFFCURVE",
"895 747 OFFCURVE",
"895 912 CURVE SMOOTH",
"895 1031 OFFCURVE",
"1115 1043 OFFCURVE",
"1115 1314 CURVE SMOOTH",
"1115 1548 OFFCURVE",
"951 1681 OFFCURVE",
"734 1681 CURVE SMOOTH",
"447 1681 OFFCURVE",
"288 1449 OFFCURVE",
"288 1109 CURVE SMOOTH",
"288 0 LINE",
"364 0 LINE",
"364 1106 LINE SMOOTH",
"364 1413 OFFCURVE",
"494 1602 OFFCURVE",
"729 1602 CURVE SMOOTH",
"904 1602 OFFCURVE",
"1035 1497 OFFCURVE",
"1035 1308 CURVE SMOOTH",
"1035 1063 OFFCURVE",
"816 1070 OFFCURVE",
"816 911 CURVE SMOOTH",
"816 691 OFFCURVE",
"1240 733 OFFCURVE",
"1240 387 CURVE SMOOTH",
"1240 175 OFFCURVE",
"1084 41 OFFCURVE",
"890 41 CURVE SMOOTH",
"769 41 OFFCURVE",
"671 92 OFFCURVE",
"561 178 CURVE",
"520 113 LINE",
"653 14 OFFCURVE",
"758 -32 OFFCURVE",
"887 -32 CURVE SMOOTH"
);
}
);
width = 1500;
},
{
hints = (
{
horizontal = 1;
place = "{-33, 54}";
type = Stem;
},
{
place = "{1239, 60}";
type = Stem;
},
{
place = "{1033, 60}";
type = Stem;
},
{
horizontal = 1;
place = "{1621, 60}";
type = Stem;
},
{
place = "{293, 56}";
type = Stem;
},
{
horizontal = 1;
place = "{0, 21}";
target = up;
type = BottomGhost;
}
);
layerId = "30428d78-2e09-4e0b-978b-a63d31127a95";
paths = (
{
closed = 1;
nodes = (
"1124 -33 OFFCURVE",
"1299 142 OFFCURVE",
"1299 385 CURVE SMOOTH",
"1299 766 OFFCURVE",
"869 742 OFFCURVE",
"869 917 CURVE SMOOTH",
"869 1043 OFFCURVE",
"1093 1050 OFFCURVE",
"1093 1322 CURVE SMOOTH",
"1093 1551 OFFCURVE",
"935 1681 OFFCURVE",
"725 1681 CURVE SMOOTH",
"446 1681 OFFCURVE",
"293 1452 OFFCURVE",
"293 1121 CURVE SMOOTH",
"293 0 LINE",
"349 0 LINE",
"349 1115 LINE SMOOTH",
"349 1427 OFFCURVE",
"482 1621 OFFCURVE",
"721 1621 CURVE SMOOTH",
"900 1621 OFFCURVE",
"1033 1513 OFFCURVE",
"1033 1320 CURVE SMOOTH",
"1033 1071 OFFCURVE",
"811 1079 OFFCURVE",
"811 919 CURVE SMOOTH",
"811 698 OFFCURVE",
"1239 740 OFFCURVE",
"1239 382 CURVE SMOOTH",
"1239 161 OFFCURVE",
"1076 21 OFFCURVE",
"876 21 CURVE SMOOTH",
"751 21 OFFCURVE",
"651 75 OFFCURVE",
"539 165 CURVE",
"508 116 LINE",
"640 14 OFFCURVE",
"742 -33 OFFCURVE",
"872 -33 CURVE SMOOTH"
);
}
);
width = 1485;
}
);
unicode = 1E9E;
},
